<svg width="2600" height="1080" viewBox="0 0 2600 1080" fill="none" xmlns="http://www.w3.org/2000/svg">
<path d="M1977.89 786.501C1914.5 796.364 1853.44 805.814 1796.3 808.399C1797.15 808.846 1798 809.297 1798.86 809.748L1801.25 810.998C1814.71 817.961 1828.06 824.928 1841.38 831.67C1868.09 845.181 1894.18 857.4 1919.76 868.496C1963.1 857.4 2015.67 854.678 2066.69 852.134C2149.89 848.005 2235.92 843.709 2249.07 801.586C2254.06 785.602 2252.35 772.331 2244.05 762.133C2235.92 752.192 2223.73 747.318 2215.06 746.195C2204.3 755.743 2190.26 761.447 2174.14 762.4C2107.68 766.307 2041.73 776.573 1977.89 786.501Z" fill="#F3EEE0"/>
<path d="M505.501 913.567C480.985 831.544 479.218 744.355 500.453 661.405L536.001 670.49C516.425 746.994 518.011 827.416 540.652 903.062L505.501 913.567ZM2556.58 930.645C2548.4 918.485 2532.21 914.721 2518.95 921.841C2426.04 971.811 2313.59 992.346 2193.71 981.235C2080.22 970.744 1959.55 932.53 1824.86 864.383C1811.41 857.584 1797.89 850.575 1784.33 843.524L1781.99 842.316C1680.07 789.31 1574.79 734.549 1457.19 742.487L1454.74 705.899C1551.47 699.367 1638.03 730.591 1720.59 770.138C1794.39 777.879 1880.81 764.496 1972.28 750.267C2036.92 740.209 2103.8 729.805 2172.01 725.785C2184.34 725.071 2192.88 719.563 2197.35 709.465C2204.31 693.692 2199.81 671.178 2186.47 654.732C2176.15 642.02 2151.64 622.218 2103.51 632.373C1974.84 659.509 1599.89 612.711 1584.02 610.714C1582.94 610.577 1581.93 610.364 1580.92 610.043C1097.81 461.798 530.413 599.141 524.753 600.547C519.886 601.741 514.694 600.912 510.476 598.201C424.886 543.609 318.422 535.519 194.072 574.183C133.565 592.977 83.2384 618.919 54.6701 635.279L131.596 680.04C139.225 684.481 142.61 693.736 139.647 702.049C103.1 804.398 149.998 878.327 152.006 881.421C155.222 886.363 155.882 892.571 153.762 898.062C151.642 903.552 147.019 907.723 141.32 909.212C92.3958 922.021 63.0416 947.837 47.957 965.282C203.54 1017.33 368.68 1021.79 527.132 977.965L534.992 975.788C538.092 974.93 541.409 974.901 544.546 975.716C550.819 977.36 1166.67 1133.72 1744.49 930.237C1742.33 929.116 1740.17 928.02 1738 926.895C1647.62 879.903 1554.5 831.573 1463.61 837.611L1461.15 801.023C1562.21 794.242 1660.06 845.042 1754.62 894.201C1769.48 901.923 1783.94 909.454 1798.36 916.743C1939.79 988.272 2067.31 1028.48 2188.3 1039.66C2210.73 1041.74 2233.3 1042.78 2255.4 1042.78C2362.08 1042.78 2463.14 1018.65 2547.64 973.005C2554.78 969.187 2559.72 962.741 2561.67 954.889C2563.61 946.994 2562.17 938.933 2557.63 932.191L2556.58 930.645" fill="#F3EEE0"/>
<path d="M127.496 807.345C127.496 807.345 462.321 805.464 510.478 598.202C510.478 598.202 475.691 503.047 281.444 539.957C87.1738 576.881 18.7734 629.297 18.7734 629.297L114.9 691.628L127.496 807.345" fill="#AC7D83"/>
<path d="M2561.68 954.887C2559.75 962.739 2554.78 969.186 2547.67 973.004C2463.12 1018.65 2362.07 1042.78 2255.38 1042.78C2233.29 1042.78 2210.72 1041.74 2188.33 1039.66C2067.31 1028.48 1939.77 988.272 1798.36 916.741C1783.95 909.451 1769.47 901.922 1754.63 894.198C1660.07 845.039 1562.24 794.241 1461.15 801.023L1463.62 837.612C1554.48 831.571 1647.63 879.901 1738.01 926.897C1740.19 928.018 1742.33 929.114 1744.51 930.239C1166.69 1133.72 550.835 977.358 544.521 975.718C541.401 974.901 538.099 974.93 534.978 975.787L527.14 977.964C368.678 1021.78 203.539 1017.33 47.9574 965.282C63.0417 947.837 92.3973 922.02 141.319 909.212C147.019 907.724 151.642 903.552 153.761 898.062C155.884 892.568 155.224 886.36 152.005 881.418C149.998 878.327 103.098 804.394 139.646 702.05C142.61 693.733 139.225 684.477 131.597 680.04L54.6704 635.279C83.2386 618.919 133.564 592.975 194.072 574.184C318.421 535.519 424.885 543.607 510.485 598.2C514.694 600.911 519.883 601.738 524.745 600.544C530.442 599.14 1097.82 461.796 1580.93 610.04C1581.95 610.363 1582.96 610.573 1584.02 610.715C1599.91 612.71 1974.82 659.506 2103.49 632.373C2151.64 622.217 2176.17 642.021 2186.48 654.731C2199.83 671.179 2204.29 693.693 2197.36 709.466C2192.86 719.564 2184.34 725.069 2172 725.787C2103.78 729.804 2036.94 740.21 1972.28 750.265C1880.8 764.495 1794.4 777.877 1720.56 770.138C1638.05 730.588 1551.47 699.368 1454.73 705.896L1457.19 742.485C1574.8 734.55 1680.07 789.31 1781.99 842.318L1784.35 843.523C1797.89 850.576 1811.39 857.583 1824.85 864.383C1959.54 932.528 2080.19 970.743 2193.7 981.237C2313.59 992.347 2426.04 971.81 2518.97 921.839C2532.21 914.72 2548.4 918.483 2556.6 930.645L2557.65 932.191C2562.19 938.933 2563.6 946.995 2561.68 954.887V954.887ZM2215.03 746.193C2223.71 747.315 2235.9 752.191 2244.06 762.133C2252.37 772.329 2254.08 785.602 2249.07 801.585C2235.94 843.708 2149.9 848.004 2066.7 852.133C2015.68 854.677 1963.13 857.401 1919.77 868.497C1894.19 857.401 1868.1 845.181 1841.39 831.672C1828.08 824.931 1814.69 817.964 1801.26 810.997L1798.87 809.746C1798 809.296 1797.12 808.846 1796.29 808.396C1853.44 805.812 1914.47 796.36 1977.9 786.502C2041.73 776.571 2107.7 766.306 2174.14 762.402C2190.25 761.444 2204.29 755.743 2215.03 746.193V746.193ZM2586.97 910.112C2568.21 882.303 2531.52 873.468 2501.59 889.549C2415.08 936.095 2309.81 955.166 2197.11 944.734C2129.69 938.497 2059.44 921.922 1984.69 894.549C2011.58 891.658 2040.28 890.166 2068.51 888.762C2168.7 883.777 2263.33 879.06 2284.09 812.5C2292.72 784.818 2288.59 758.708 2272.44 738.944C2261.88 726.008 2248.09 717.837 2234.67 713.37C2241.52 686.908 2234.23 655.392 2214.96 631.629C2188.44 598.944 2145.04 586.165 2095.94 596.502C1977.25 621.502 1616.93 577.834 1590.15 574.521C1128.33 433.411 593.508 547.188 523.548 563.157C430.546 506.909 312.76 498.679 182.231 539.448C82.7197 570.548 11.5332 618.454 8.55773 620.475C3.34701 624.016 0.313617 629.985 0.538592 636.277C0.763567 642.583 4.18902 648.327 9.63923 651.502L100.333 704.267C76.3696 784.662 96.1203 848.973 110.247 880.518C33.4756 908.399 3.93479 963.483 2.60309 966.012C0.171902 970.689 -0.151075 976.193 1.75759 981.11C3.66987 986.026 7.58897 989.901 12.5457 991.712C181.952 1053.87 363.271 1061.33 536.937 1013.3L540.131 1012.42C575.401 1020.97 795.26 1071.24 1084.53 1071.24C1297.17 1071.24 1547.29 1043.95 1789 953.018C1931.75 1024.41 2061.36 1064.76 2184.95 1076.18C2208.47 1078.36 2232.16 1079.45 2255.38 1079.45C2368.13 1079.45 2475.24 1053.81 2565.09 1005.28C2581.16 996.599 2592.88 981.418 2597.27 963.649C2601.67 945.841 2598.29 926.897 2588.02 911.658L2586.97 910.112" fill="#151516"/>
<path d="M510.177 303.875C507.219 297.289 500.67 293.047 493.44 293.047H398.092V329.718H452.503L399.078 389.635C394.266 395.028 393.069 402.737 396.026 409.325C398.984 415.926 405.533 420.167 412.763 420.167H508.111V383.497H453.7L507.125 323.58C511.937 318.188 513.134 310.478 510.177 303.875Z" fill="#151516"/>
<path d="M571.001 318.876C573.953 325.465 580.503 329.719 587.746 329.719H730.587V293.048H628.653L722.301 188.062C727.114 182.669 728.304 174.957 725.352 168.356C722.4 161.77 715.826 157.528 708.608 157.528H565.742V194.186H667.7L574.053 299.17C569.24 304.565 568.049 312.29 571.001 318.876Z" fill="#151516"/>
<path d="M792.476 211.684C795.416 218.271 801.985 222.524 809.216 222.524H1004.43V185.855H850.139L988.085 31.2061C992.879 25.8109 994.071 18.1009 991.131 11.5006C988.165 4.91351 981.622 0.657243 974.391 0.657243H779.18V37.3269H933.442L795.522 191.978C790.728 197.371 789.51 205.097 792.476 211.684" fill="#151516"/>
<path d="M535.972 670.492L500.438 661.405C479.231 744.355 480.981 831.547 505.498 913.568L540.629 903.062C518.028 827.417 516.396 746.996 535.972 670.492" fill="#151516"/>
<path d="M1427.8 790.642C1427.8 887.861 1250.2 966.668 1031.14 966.668C812.044 966.668 634.453 887.861 634.453 790.642C634.453 693.423 812.044 614.617 1031.14 614.617C1250.2 614.617 1427.8 693.423 1427.8 790.642Z" fill="#AC7D83"/>
</svg>
