<svg width="1457" height="1499" viewBox="0 0 1457 1499" fill="none" xmlns="http://www.w3.org/2000/svg">
<path d="M206.362 518.627C225.955 518.627 241.807 529.834 241.807 543.684C241.807 557.517 225.955 568.74 206.362 568.74C186.812 568.74 170.917 557.517 170.917 543.684C170.917 529.834 186.812 518.627 206.362 518.627ZM269.984 597.324C258.254 579.021 271.387 567.211 306.619 567.211C341.851 567.211 354.984 579.021 343.254 597.324C338.622 604.54 332.204 609.67 325.021 612.883L365.481 647.013L341.852 675.048L306.237 645.02L267.647 675.427L244.952 646.634L287.919 612.76C280.864 609.53 274.532 604.43 269.984 597.324ZM400.756 518.627C420.306 518.627 436.201 529.834 436.201 543.684C436.201 557.517 420.306 568.74 400.756 568.74C381.164 568.74 365.312 557.517 365.312 543.684C365.312 529.834 381.164 518.627 400.756 518.627ZM258.849 781.96C255.067 781.96 251.284 781.904 247.502 781.777L248.692 745.119C290.852 746.563 333.989 739.347 373.429 724.498L386.349 758.811C345.974 774.021 302.114 781.96 258.849 781.96ZM308.489 1340.2C308.489 1345.57 306.152 1350.67 302.072 1354.15L273.724 1378.34C248.65 1399.76 232.542 1429.42 228.079 1461.65H337.007L337.177 1458.08C338.962 1419.45 354.049 1382.2 379.634 1353.2L397.101 1333.42C401.351 1320.88 417.119 1270.73 417.841 1212.14C418.904 1124.81 387.454 1060.34 324.384 1020.53L343.977 989.514C417.756 1036.12 456.006 1113.63 454.519 1213.68C453.371 1287.34 431.314 1346.83 430.379 1349.33C429.571 1351.43 428.424 1353.34 426.936 1355.01L407.131 1377.47C387.029 1400.22 375.214 1429.45 373.812 1459.77L373.727 1461.65H534.333C547.041 1405.01 591.538 1188 563.871 1038.21C562.766 1032.3 564.679 1026.21 568.886 1021.94C573.136 1017.69 579.171 1015.78 585.121 1016.83C587.416 1017.23 807.523 1055.33 1008.12 986.777C986.405 933.855 980.2 877.227 979.902 874.571L1016.37 870.725C1016.45 871.396 1023.76 937.871 1049.39 989.136C1049.39 989.165 1049.39 989.178 1049.39 989.191C1153 1198.11 1224.62 1224.74 1225.3 1224.95C1234.6 1227.76 1240.09 1237.33 1237.83 1246.76L1204.85 1384.81C1203.58 1390.08 1200.05 1394.52 1195.21 1396.95L1156.79 1416.16C1138.04 1425.51 1124.83 1442.12 1119.68 1461.65H1264.4L1355.01 1303.04C1375.45 1267.24 1372.26 1223.1 1346.85 1190.61C1300.18 1130.89 1290.19 1051.08 1320.84 982.298C1350.5 915.806 1376.68 822.605 1333.03 756.202C1330.78 752.747 1328.15 749.152 1324.79 744.906C1321.6 740.848 1320.28 735.625 1321.13 730.525C1321.98 725.425 1324.96 720.933 1329.29 718.137C1362.74 696.663 1382.72 668.461 1384.88 665.316C1438.48 587.588 1429.55 471.463 1363.72 389.218C1351.86 374.399 1338.69 360.931 1325.98 347.897C1301.16 322.462 1277.7 298.43 1268.48 269.302C1263.89 254.751 1262.65 237.939 1264.78 219.329C1270.47 168.863 1301.8 120.382 1346.46 92.7968C1358.02 85.6402 1363.46 72.0112 1359.64 59.6444L1359.09 57.8168C1356.49 49.3597 1350.25 42.6876 1341.96 39.5427C1333.8 36.3979 1324.92 37.2055 1317.52 41.6252C1255.94 78.6832 1214.42 142.642 1206.47 212.699C1203.41 239.554 1205.45 264.538 1212.55 286.968C1225.93 329.428 1256.79 361.016 1283.99 388.882C1296.23 401.436 1307.83 413.293 1317.9 425.876C1367.16 487.404 1375.19 576.016 1336.6 632.016C1327.13 645.78 1293.47 682.001 1252.28 684.317C1249.14 684.513 1245.99 683.867 1243.19 682.477C1028.31 577.04 592.728 639.414 537.393 647.914C508.196 707.674 452.606 737.605 449.419 739.262L432.334 706.82C433.184 706.352 518.311 660.132 518.311 571.885C518.311 463.151 463.826 374.288 436.159 336.126L391.109 412.124C386.901 419.259 378.402 422.659 370.412 420.424C284.647 396.438 185.537 420.326 184.517 420.564C177.887 422.196 170.917 420.033 166.37 414.92L106.785 347.544C76.1422 374.318 51.8749 420.636 42.0574 472.658C24.2925 566.577 52.0023 671.678 120.172 768.603C252.177 956.395 308.489 1127.34 308.489 1340.2Z" fill="#F9CCBE"/>
<path d="M1171.16 1367.98L1198.77 1252.44C1169.97 1235.18 1106.04 1181.53 1023.9 1020.15C1003.76 1027.19 983.448 1033.16 963.262 1038.27C1052.58 1201.62 1113.39 1224.87 1114.04 1225.1C1123.32 1227.89 1128.4 1237.33 1126.15 1246.77L1093.12 1384.82C1091.85 1390.09 1088.36 1394.53 1083.48 1396.95L1045.07 1416.17C1026.36 1425.52 1013.11 1442.12 1007.98 1461.66H1082.25C1087.95 1428.05 1109.12 1399.01 1140.34 1383.36L1171.16 1367.98" fill="#F9CCBE"/>
<path d="M428.666 650.036C428.666 708.767 373.41 756.378 305.194 756.378C237.014 756.378 181.758 708.767 181.758 650.036C181.758 591.298 237.014 543.705 305.194 543.705C373.41 543.705 428.666 591.298 428.666 650.036Z" fill="#F3EEE0"/>
<path d="M562.223 621.32C562.223 621.32 584.227 911.249 618.477 930.799C652.69 950.365 652.69 621.32 652.69 621.32H562.223" fill="#E48162"/>
<path d="M713.812 601.216C713.812 601.216 735.82 891.136 770.027 910.698C804.273 930.249 804.273 601.216 804.273 601.216H713.812" fill="#E48162"/>
<path d="M1172.23 643.926C1179.81 725.051 1198.77 896.414 1224.8 911.302C1249.31 925.305 1256.26 760.569 1258.25 665.893L1172.23 643.926Z" fill="#E48162"/>
<path d="M1020.21 616.817C1027.49 695.905 1046.67 873.53 1073.22 888.688C1099.44 903.672 1105.59 714.178 1107.01 624.627L1020.21 616.817Z" fill="#E48162"/>
<path d="M867.246 603.551C873.216 671.964 893.222 874.366 921.611 890.604C949.722 906.671 954.783 687.485 955.652 608.734L867.246 603.551" fill="#E48162"/>
<path d="M296.04 1342.74H581.19L548.195 1480.25H210.871C210.871 1480.25 236.418 1370.23 296.04 1342.74" fill="#F3EEE0"/>
<path d="M1081.02 1370.86H1332.36L1276.11 1480.25H990.078C990.078 1480.25 1010.58 1395.3 1081.02 1370.86Z" fill="#F3EEE0"/>
<path d="M170.924 391.522C170.924 391.522 180.645 489.919 195.752 496.563C210.893 503.206 210.893 391.522 210.893 391.522H170.924Z" fill="#E48162"/>
<path d="M256.076 391.51C256.076 391.51 265.801 489.922 280.92 496.594C296.039 503.194 296.039 391.51 296.039 391.51H256.076Z" fill="#E48162"/>
<path d="M341.207 391.5C341.207 391.5 350.931 489.92 366.056 496.582C381.182 503.208 381.182 391.5 381.182 391.5H341.207Z" fill="#E48162"/>
<path d="M206.361 568.77C225.945 568.77 241.801 557.52 241.801 543.703C241.801 529.851 225.945 518.637 206.361 518.637C186.778 518.637 170.922 529.851 170.922 543.703C170.922 557.52 186.778 568.77 206.361 568.77Z" fill="#151516"/>
<path d="M400.756 568.73C420.313 568.73 436.198 557.535 436.198 543.686C436.198 529.837 420.313 518.642 400.756 518.642C381.163 518.642 365.277 529.837 365.277 543.686C365.277 557.535 381.163 568.73 400.756 568.73Z" fill="#151516"/>
<path d="M267.639 675.422L306.214 645.037L341.844 675.063L365.477 647.013L324.998 612.893C332.182 609.661 338.611 604.561 343.244 597.342C354.989 579.025 341.807 567.21 306.609 567.21C271.374 567.21 258.228 579.025 269.973 597.342C274.499 604.453 280.82 609.553 287.932 612.786L244.939 646.654L267.639 675.422" fill="#151516"/>
<path d="M42.03 472.664C51.903 420.639 76.0938 374.32 106.781 347.549L166.361 414.926C170.891 420.037 177.901 422.199 184.525 420.571C185.509 420.332 284.623 396.441 370.402 420.43C378.395 422.665 386.857 419.263 391.088 412.13L436.136 336.134C463.832 374.295 518.283 463.155 518.283 571.893C518.283 660.138 433.187 706.359 432.332 706.821L449.428 739.267C452.591 737.609 508.196 707.68 537.387 647.919C592.736 639.419 1028.3 577.047 1243.15 682.481C1246.02 683.875 1249.14 684.52 1252.26 684.323C1293.46 682.007 1327.1 645.782 1336.58 632.017C1375.18 576.021 1367.14 487.413 1317.91 425.879C1307.82 413.297 1296.24 401.442 1283.97 388.885C1256.79 361.02 1225.93 329.433 1212.51 286.977C1205.46 264.544 1203.41 239.559 1206.44 212.707C1214.39 142.647 1255.93 78.7073 1317.52 41.6279C1324.87 37.2259 1333.76 36.4137 1341.93 39.5336C1350.22 42.6962 1356.46 49.3632 1359.06 57.8424L1359.62 59.6333C1363.47 72.0102 1358.04 85.6479 1346.46 92.8022C1301.79 120.39 1270.46 168.871 1264.74 219.336C1262.64 237.944 1263.88 254.757 1268.5 269.305C1277.69 298.435 1301.15 322.467 1325.98 347.904C1338.68 360.935 1351.84 374.406 1363.68 389.223C1429.54 471.472 1438.48 587.595 1384.88 665.318C1382.7 668.463 1362.74 696.666 1329.32 718.142C1324.96 720.937 1321.97 725.433 1321.11 730.531C1320.26 735.63 1321.58 740.853 1324.79 744.913C1328.12 749.157 1330.77 752.751 1333.04 756.204C1376.67 822.61 1350.52 915.813 1320.86 982.3C1290.17 1051.08 1300.17 1130.9 1346.84 1190.62C1372.27 1223.1 1375.43 1267.25 1354.96 1303.05L1264.35 1461.66H1119.68C1124.81 1442.12 1138.06 1425.52 1156.78 1416.17L1195.2 1396.95C1200.07 1394.52 1203.58 1390.08 1204.82 1384.82L1237.85 1246.77C1240.12 1237.33 1234.61 1227.76 1225.29 1224.96C1224.6 1224.75 1153.01 1198.12 1049.41 989.198C1049.37 989.185 1049.37 989.168 1049.37 989.142C1023.73 937.878 1016.42 871.404 1016.38 870.729L979.918 874.575C980.174 877.229 986.372 933.861 1008.13 986.783C807.547 1055.33 587.393 1017.23 585.128 1016.84C579.187 1015.78 573.118 1017.7 568.887 1021.95C564.655 1026.22 562.775 1032.3 563.886 1038.21C591.539 1188.01 547.047 1405.02 534.31 1461.66H373.736L373.778 1459.78C375.189 1429.45 387.028 1400.22 407.116 1377.47L426.947 1355.01C428.443 1353.34 429.554 1351.43 430.366 1349.34C431.307 1346.84 453.403 1287.35 454.471 1213.68C456.01 1113.64 417.758 1036.12 343.946 989.518L324.371 1020.53C387.455 1060.35 418.869 1124.82 417.844 1212.15C417.117 1270.73 401.346 1320.89 397.072 1333.43L379.634 1353.2C354.033 1382.21 338.945 1419.45 337.15 1458.09L337.022 1461.66H228.078C232.523 1429.42 248.636 1399.76 273.724 1378.34L302.061 1354.16C306.121 1350.67 308.514 1345.58 308.514 1340.21C308.514 1127.34 252.183 956.401 120.159 768.606C52.0315 671.681 24.2501 566.585 42.03 472.664ZM1082.24 1461.66H1008C1013.13 1442.12 1026.38 1425.52 1045.05 1416.17L1083.52 1396.95C1088.35 1394.52 1091.85 1390.08 1093.14 1384.82L1126.13 1246.77C1128.4 1237.33 1123.31 1227.89 1114.04 1225.1C1113.39 1224.87 1052.58 1201.61 963.249 1038.27C983.465 1033.16 1003.77 1027.19 1023.9 1020.15C1106.04 1181.53 1169.98 1235.18 1198.79 1252.44L1171.14 1367.97L1140.36 1383.36C1109.12 1399 1087.96 1428.05 1082.24 1461.66ZM271.801 1331.78L249.918 1350.45C211.922 1382.85 190.167 1430.07 190.167 1479.99C190.167 1490.11 198.373 1498.33 208.503 1498.33H354.503H548.884C557.304 1498.33 564.656 1492.59 566.707 1484.4C569.272 1473.86 627.569 1235.36 603.891 1056.68C657.231 1063.55 786.989 1074.86 926.108 1046.74C1001.54 1187.47 1059.97 1236.14 1087.07 1252.43L1059.46 1367.97L1028.68 1383.36C991.842 1401.78 968.934 1438.8 968.934 1479.99C968.934 1490.11 977.183 1498.33 987.269 1498.33H1098.99H1111.22H1275C1281.58 1498.33 1287.69 1494.8 1290.94 1489.08L1386.85 1321.25C1414.71 1272.44 1410.35 1212.3 1375.73 1168.03C1337.44 1119.03 1329.23 1053.58 1354.36 997.215C1387.49 922.946 1415.99 817.934 1364.88 737.904C1394.03 715.5 1411.46 691.388 1415.1 686.135C1477.63 595.39 1468.05 460.894 1392.32 366.302C1379.37 350.079 1365.56 335.963 1352.23 322.3C1330.51 300.067 1310.04 279.066 1303.46 258.253C1300.43 248.646 1299.66 236.948 1301.19 223.477C1305.68 183.928 1330.43 145.81 1365.69 123.996C1391.5 108.072 1403.43 77.1515 1394.67 48.8077L1394.11 47.0127C1388.17 27.6952 1373.9 12.4805 1355 5.25781C1336.24 -1.8794 1315.73 -0.0842371 1298.59 10.2156C1227.3 53.1243 1179.26 127.27 1170.03 208.562C1166.39 240.555 1168.91 270.655 1177.55 298.029C1193.62 348.801 1227.68 383.701 1257.73 414.52C1269.35 426.401 1280.29 437.623 1289.27 448.804C1328.8 498.183 1336.16 568.017 1306.37 611.22C1299.31 621.443 1277.22 643.521 1254.52 647.244C1042.87 546.977 654.794 593.805 551.021 608.759C553.543 597.245 554.996 584.967 554.996 571.893C554.996 412.383 451.993 296.358 447.633 291.499C443.701 287.174 438.017 284.896 432.204 285.528C426.391 286.092 421.22 289.405 418.228 294.418L366.556 381.637C292.06 364.657 214.914 376.906 186.705 382.582L122.937 310.5C116.868 303.645 106.696 302.341 99.088 307.367C53.9545 337.228 19.1214 396.471 6.00022 465.852C-13.6175 569.602 16.258 684.605 90.1555 789.689C217.435 970.756 270.39 1128.41 271.801 1331.78Z" fill="#151516"/>
<path d="M248.678 745.127L247.488 781.787C251.273 781.913 255.022 781.967 258.842 781.967C302.096 781.967 345.927 774.034 386.334 758.82L373.43 724.507C333.96 739.357 290.85 746.572 248.678 745.127" fill="#151516"/>
</svg>
