<svg width="1457" height="1916" viewBox="0 0 1457 1916" fill="none" xmlns="http://www.w3.org/2000/svg">
<path d="M700.42 308.431C680.845 308.431 664.976 297.22 664.976 283.374C664.976 269.558 680.845 258.316 700.42 258.316C719.996 258.316 735.864 269.558 735.864 283.374C735.864 297.22 719.996 308.431 700.42 308.431ZM584.806 510.026C531.257 510.026 477.83 496.578 430.5 470.326L448.299 438.253C513.06 474.185 594.088 482.947 665.007 461.657L675.545 496.793C645.983 505.676 615.379 510.026 584.806 510.026ZM506.045 258.316C525.651 258.316 541.52 269.558 541.52 283.374C541.52 297.22 525.651 308.431 506.045 308.431C486.469 308.431 470.601 297.22 470.601 283.374C470.601 269.558 486.469 258.316 506.045 258.316ZM569.672 337.012C557.909 318.724 571.082 306.9 606.311 306.9C641.51 306.9 654.683 318.724 642.95 337.012C638.324 344.241 631.891 349.387 624.692 352.604L665.191 386.698L641.541 414.758L605.913 384.707L567.344 415.125L544.644 386.33L587.624 352.451C580.517 349.234 574.206 344.149 569.672 337.012ZM1277.33 1178.19C1277.6 1177.88 1277.85 1177.55 1278.09 1177.24C1330.51 1120.39 1355.94 1036.08 1354.1 926.204C1351.03 743.019 1256.9 603.946 1074.34 512.875C955.667 453.662 836.682 435.068 804.914 430.932C783.838 450.231 765.243 460.248 763.466 461.167L746.372 428.726C747.23 428.267 832.363 382.042 832.363 293.789C832.363 184.368 777.619 91.4282 749.834 51.3298L705.169 126.687C700.941 133.824 692.455 137.255 684.429 135.019C598.683 111.003 499.55 134.896 498.57 135.141C491.953 136.795 484.938 134.621 480.434 129.505L420.728 62.0208C366.351 107.633 312.251 215.43 351.586 332.264C353.363 337.594 355.231 342.955 357.1 348.377C374.102 397.175 393.371 452.467 364.054 501.388L358.141 511.221C332.47 554.015 262.623 583.331 223.258 596.962L96.7377 639.051C69.228 648.578 45.9152 672.319 41.5039 695.355C40.3704 701.42 40.5848 706.873 42.2697 711.774C48.7949 707.945 55.81 704.882 63.2848 702.829L283.271 645.975L392.697 591.172L409.117 623.95L297.945 679.64C296.781 680.222 295.555 680.682 294.33 680.988L72.7202 738.271C59.9456 741.764 49.1625 750.28 42.6374 762.135C36.1429 773.989 34.7335 787.652 38.7159 800.609C46.2827 825.238 71.9237 840.034 97.0746 834.397L446.4 755.364C455.743 753.281 465.117 758.673 467.935 767.802C468.242 768.751 503.992 872.29 696.591 980.577C739.418 934.567 789.26 894.621 844.984 862.365L882.726 840.524L901.107 872.26L863.334 894.101C709.458 983.15 602.972 1134.57 571.174 1309.48C569.918 1316.41 564.771 1322.01 558.001 1323.88L453.874 1352.61C439.598 1356.53 429.673 1369.61 429.673 1384.41C429.673 1401.44 442.968 1415.9 459.971 1417.28L536.495 1423.5C595.742 1428.31 651.068 1394.83 674.381 1340.21C705.842 1266.38 782.95 1223.68 861.895 1236.27C884.35 1239.85 906.866 1244.23 928.8 1249.23C930.638 1249.69 1061.29 1282.62 1176.36 1242.33C1181.9 1240.37 1188.06 1241.23 1192.87 1244.57C1193.82 1245.24 1194.62 1246.01 1195.38 1246.81C1211 1238.05 1233.89 1224.41 1262.04 1205.58C1265.5 1195.9 1270.47 1186.64 1277.33 1178.19Z" fill="#F3EEE0"/>
<path d="M1383.32 1453.83C1367.5 1429.2 1347.93 1408.32 1328.96 1388.1C1305.58 1363.16 1283.5 1339.6 1270.85 1311.73C1256.98 1281.15 1249.42 1240.51 1262.04 1205.57C1233.9 1224.42 1211.03 1238.04 1195.42 1246.79C1198.68 1250.12 1200.66 1254.54 1200.79 1259.26C1201.3 1287.01 1206.91 1312.83 1217.4 1335.94C1234.05 1372.65 1260.51 1400.91 1286.13 1428.22C1304.11 1447.4 1321.04 1465.45 1333.96 1485.57C1385.92 1566.36 1360.82 1689.05 1281.31 1742.98C1234.45 1774.78 1174.99 1784.9 1117.52 1794.72L965.257 1820.66C957.543 1822 950.774 1826.24 946.262 1832.64C941.719 1839.01 939.95 1846.79 941.261 1854.53C944.005 1870.48 959.22 1881.24 975.104 1878.5L1127.31 1852.55C1188.01 1842.22 1256.82 1830.48 1314.27 1791.52C1420.43 1719.53 1452.69 1561.73 1383.32 1453.83Z" fill="#CDED88"/>
<path d="M589.517 1137.1L446.215 1188.34C436.541 1191.44 430.419 1199.83 430.419 1209.37C430.419 1221.44 440.245 1231.27 452.312 1231.27H552.659C562.484 1198.79 574.829 1167.3 589.517 1137.1Z" fill="#F3EEE0"/>
<path d="M869.219 415.128C869.219 415.128 771.43 514.39 646.743 595.048C522.056 675.736 771.43 672.64 967.009 438.275L869.219 415.128Z" fill="#CDED88"/>
<path d="M1028.15 474.168C1028.15 474.168 909.083 612.169 790.132 685.513C671.18 758.857 967.021 752.62 1125.94 510.029L1028.15 474.168Z" fill="#CDED88"/>
<path d="M1184.61 560.832C1184.61 560.832 1091.71 700.171 949.894 763.75C808.111 827.3 1099.04 837.103 1267.75 630.516L1184.61 560.832Z" fill="#CDED88"/>
<path d="M348.467 389.712C348.467 389.712 513.507 302.036 605.1 199.018C605.1 199.018 728.241 299.078 817.894 391.313C817.894 391.313 920.547 162.327 749.437 22.9885L700.606 101.207C700.606 101.207 544.069 96.3393 492.712 111.003L430.386 37.6523C430.386 37.6523 243.349 137.898 348.467 389.712Z" fill="#CDED88"/>
<path d="M1336.17 739.289C1336.17 739.289 1196.85 854.189 1074.61 873.748C952.335 893.307 1189.52 986.221 1365.53 837.086L1336.17 739.289Z" fill="#CDED88"/>
<path d="M506.273 308.432C525.859 308.432 541.716 297.215 541.716 283.355C541.716 269.526 525.859 258.309 506.273 258.309C486.687 258.309 470.83 269.526 470.83 283.355C470.83 297.215 486.687 308.432 506.273 308.432Z" fill="#151516"/>
<path d="M700.637 308.432C720.224 308.432 736.081 297.215 736.081 283.355C736.081 269.526 720.224 258.309 700.637 258.309C681.051 258.309 665.194 269.526 665.194 283.355C665.194 297.215 681.051 308.432 700.637 308.432Z" fill="#151516"/>
<path d="M567.556 415.12L606.098 384.718L641.734 414.771L665.365 386.724L624.904 352.602C632.083 349.376 638.507 344.231 643.129 337.023C654.872 318.712 641.704 306.912 606.505 306.912C571.277 306.912 558.109 318.712 569.852 337.023C574.416 344.144 580.723 349.23 587.786 352.456L544.826 386.346L567.556 415.12Z" fill="#151516"/>
<path d="M392.915 591.165L283.468 645.978L63.522 702.834C56.0006 704.877 48.9744 707.941 42.4745 711.779C40.8031 706.858 40.5555 701.411 41.7007 695.375C46.1268 672.317 69.4339 648.578 96.9195 639.045L223.452 596.983C262.792 583.303 332.682 554.024 358.341 511.22L364.253 501.377C393.565 452.475 374.313 397.167 357.289 348.358C355.432 342.972 353.544 337.587 351.78 332.263C312.439 215.456 366.544 107.624 420.927 62.0032L480.634 129.506C485.122 134.613 492.148 136.78 498.771 135.139C499.762 134.892 598.902 110.998 684.639 135.016C692.656 137.244 701.137 133.839 705.346 126.69L750.01 51.3253C777.805 91.4373 832.56 184.382 832.56 293.792C832.56 382.032 747.441 428.272 746.575 428.736L763.66 461.172C765.455 460.244 784.026 450.216 805.136 430.934C836.893 435.05 955.873 453.682 1074.54 512.86C1257.1 603.947 1351.22 743.008 1354.29 926.204C1356.15 1036.08 1330.7 1120.36 1278.3 1177.24C1278.05 1177.55 1277.78 1177.86 1277.53 1178.2C1245.77 1217.23 1253.32 1272.7 1271.03 1311.72C1283.69 1339.61 1305.76 1363.2 1329.16 1388.11C1348.1 1408.32 1367.69 1429.21 1383.51 1453.85C1452.87 1561.74 1420.62 1719.56 1314.45 1791.55C1257.01 1830.49 1188.2 1842.22 1127.47 1852.55L975.311 1878.52C959.402 1881.25 944.173 1870.47 941.449 1854.54C940.118 1846.8 941.913 1839.03 946.432 1832.65C950.952 1826.25 957.699 1822.01 965.437 1820.68L1117.69 1794.74C1175.17 1784.93 1234.63 1774.78 1281.49 1742.99C1361.01 1689.07 1386.11 1566.35 1334.14 1485.57C1321.23 1465.46 1304.3 1447.41 1286.32 1428.22C1260.72 1400.89 1234.23 1372.67 1217.57 1335.96C1207.08 1312.84 1201.48 1287.03 1200.95 1259.26C1200.86 1253.41 1197.92 1247.94 1193.09 1244.59C1188.26 1241.22 1182.1 1240.38 1176.56 1242.33C1061.51 1282.6 930.833 1249.67 929.006 1249.24C907.061 1244.22 884.528 1239.86 862.088 1236.27C783.129 1223.67 706.058 1266.38 674.58 1340.2C651.273 1394.83 595.93 1428.28 536.688 1423.49L460.174 1417.3C443.181 1415.9 429.872 1401.45 429.872 1384.4C429.872 1369.6 439.808 1356.54 454.077 1352.61L558.2 1323.89C564.978 1322 570.116 1316.4 571.354 1309.5C603.173 1134.56 709.648 983.153 863.543 894.109L901.304 872.258L882.95 840.502L845.157 862.354C789.474 894.604 739.641 934.561 696.772 980.585C504.188 872.289 468.438 768.759 468.129 767.8C465.312 758.669 455.934 753.284 446.586 755.388L97.2598 834.374C72.1267 840.038 46.4983 825.244 38.915 800.607C34.9531 787.67 36.3151 773.99 42.846 762.136C49.3769 750.282 60.1483 741.77 72.9315 738.273L294.518 681.014C295.756 680.674 296.994 680.21 298.139 679.652L409.32 623.972L392.915 591.165ZM452.281 1231.28C440.241 1231.28 430.398 1221.44 430.398 1209.4C430.398 1199.84 436.527 1191.45 446.184 1188.36L589.492 1137.1C574.821 1167.31 562.471 1198.79 552.628 1231.28H452.281ZM3.84624 811.378C17.0319 854.244 61.6031 880.026 105.339 870.153L439.777 794.51C456.893 829.639 512.886 917.724 672.073 1008.75C651.211 1033.97 632.299 1060.75 615.523 1088.85L434.453 1153.63C410.093 1161.4 393.72 1183.84 393.72 1209.4C393.72 1241.68 419.998 1267.93 452.281 1267.93H542.693C540.835 1275.79 539.04 1283.65 537.462 1291.58L444.327 1317.26C414.21 1325.56 393.194 1353.17 393.194 1384.4C393.194 1420.42 421.298 1450.91 457.203 1453.85L533.716 1460.04C608.714 1466.14 678.82 1423.77 708.318 1354.59C733.141 1296.28 793.993 1262.48 856.269 1272.48C877.935 1275.95 899.695 1280.15 920.34 1284.83C925.756 1286.25 1046.87 1316.96 1165.88 1284.05C1168.61 1307.86 1174.74 1330.29 1184.18 1351.12C1203.34 1393.31 1231.9 1423.83 1259.64 1453.39C1276.38 1471.24 1292.2 1488.11 1303.28 1505.38C1345.13 1570.44 1324.92 1669.23 1260.91 1712.63C1220.64 1739.96 1165.17 1749.43 1111.47 1758.59L959.278 1784.53C941.883 1787.5 926.716 1797.06 916.502 1811.45C906.319 1825.84 902.326 1843.33 905.297 1860.73C910.776 1892.85 938.756 1915.6 970.328 1915.6C974.011 1915.6 977.725 1915.29 981.47 1914.67L1133.66 1888.7C1198.04 1877.75 1271.03 1865.31 1335.04 1821.91C1456.96 1739.18 1494.04 1557.94 1414.37 1434.01C1396.72 1406.59 1375.99 1384.46 1355.9 1363.04C1334.63 1340.35 1314.55 1318.97 1304.43 1296.59C1291.8 1268.8 1284.74 1227.11 1306.03 1201.29C1306.1 1201.2 1306.19 1201.08 1306.28 1200.95C1364.47 1137.44 1392.95 1044.81 1390.97 925.585C1387.69 730.411 1283.94 576.339 1090.92 480.052C987.537 428.489 885.828 406.607 834.54 398.157C853.669 371.818 869.238 337.154 869.238 293.792C869.238 134.613 766.631 11.6469 762.267 6.47815C758.429 1.95935 752.579 -0.454834 746.729 0.0712891C740.818 0.566528 735.525 3.87817 732.491 8.98499L680.801 96.2036C606.299 79.2427 529.167 91.4681 500.969 97.1321L437.208 25.0792C431.141 18.2083 420.958 16.9082 413.343 21.9222C343.825 67.9148 267.93 198.217 316.989 343.963C318.816 349.41 320.766 354.888 322.685 360.428C337.727 403.635 353.296 448.328 332.775 482.528L326.894 492.34C312.718 516.017 269.54 542.17 211.659 562.257L85.1268 604.319C45.1676 618.185 12.513 652.787 5.67254 688.473C2.2059 706.641 5.48664 723.602 14.7723 737.87C13.3485 740.006 11.9558 742.172 10.7177 744.463C-0.61081 765.107 -3.05609 788.877 3.84624 811.378Z" fill="#151516"/>
<path d="M675.77 496.776L665.201 461.65C594.295 482.929 513.272 474.197 448.527 438.251L430.723 470.297C478.059 496.578 531.443 510.029 585.025 510.029C615.575 510.029 646.181 505.649 675.77 496.776Z" fill="#151516"/>
</svg>
