<svg width="2207" height="1891" viewBox="0 0 2207 1891" fill="none" xmlns="http://www.w3.org/2000/svg">
<path d="M1616.4 500.066C1609.49 505.128 1601.63 507.602 1593.77 508.001L1619.24 554.436L1587.07 572.077L1564.67 531.219L1517.72 545.682L1506.93 510.628L1559.21 494.509C1553.79 488.952 1549.73 481.93 1548.04 473.651C1543.7 452.356 1560.22 446.077 1593.09 458.77C1625.93 471.463 1633.95 487.22 1616.4 500.066ZM1540.5 671.872C1474.92 671.872 1409.13 640.173 1368.38 588.786L1397.12 565.987C1431.43 609.281 1487.14 635.772 1542.33 635.182L1542.73 671.859C1541.99 671.872 1541.25 671.872 1540.5 671.872ZM1475 387.92C1479.98 374.998 1498.82 370.259 1517.09 377.32C1535.36 384.38 1546.12 400.575 1541.13 413.478C1536.14 426.38 1517.28 431.138 1499.03 424.058C1480.76 417.017 1470.01 400.822 1475 387.92ZM1244.95 1022.94L1209.83 1019.71L1206.58 1054.82L1170.06 1051.45L1173.31 1016.34L1138.2 1013.1L1141.57 976.578L1176.68 979.823L1179.91 944.725L1216.44 948.082L1213.2 983.195L1248.29 986.438L1244.95 1022.94ZM1656.29 457.99C1661.28 445.068 1680.14 440.329 1698.39 447.39C1716.66 454.45 1727.41 470.645 1722.42 483.547C1717.44 496.45 1698.6 501.208 1680.33 494.128C1662.06 487.087 1651.3 470.892 1656.29 457.99ZM2080.94 811.228C1802.47 787.534 1655.93 749.513 1645.4 698.207C1643.35 688.138 1644.24 668.923 1673.34 653.419C1769.11 602.392 1761.29 526.537 1760.91 523.34C1759.86 514.453 1765.36 505.965 1773.94 503.453C1777.03 502.502 1846.58 480.484 1855.45 400.708L1771.81 398.424C1767.13 398.31 1762.66 396.388 1759.34 393.058C1661.9 295.641 1536.2 305.404 1534.95 305.518C1527.09 306.165 1519.57 301.731 1516.45 294.442L1479.26 207.378C1405.93 241.557 1407.74 314.995 1407.85 318.306C1408.12 325.328 1404.35 331.97 1398.15 335.263C1394.44 337.261 1306.23 387.101 1335.04 524.843L1299.15 532.341C1270.56 395.722 1344.04 328.754 1371.28 309.153C1373.39 268.294 1397.01 199.519 1476.06 169.127C1488.97 143.797 1511.35 87.8481 1497.3 57.6088C1494.14 50.7959 1487.58 41.2616 1467.29 37.2462C1454.48 34.6581 1438.99 44.611 1428.27 53.384C1340.41 125.224 1235.14 375.074 1217.73 602.868L1235.26 607.797C1196.7 744.963 1100.36 827.322 932.103 866.999C859.43 884.121 786.604 871.705 716.178 859.682L696.991 856.424C540.128 830.188 364.002 1013.08 362.24 1014.94C357.126 1020.3 349.266 1022.07 342.344 1019.39L290.946 999.529C264.647 989.361 235.489 994.191 214.078 1011.24L347.904 1149.82L509.425 1095.58C612.183 1061.07 723.916 1070.18 815.958 1120.55C818.516 1121.94 821.043 1123.59 823.936 1125.72C829.387 1129.72 832.196 1136.4 831.24 1143.08C830.298 1149.78 825.735 1155.4 819.386 1157.73C714.184 1196.14 630.556 1264.71 583.91 1350.81C556.956 1400.55 542.713 1454.7 528.934 1507.06C525.143 1521.47 520.872 1537.72 516.505 1552.98C500.969 1607.23 476.714 1674.87 426.503 1716.8C400.097 1738.87 365.532 1755.12 317.729 1767.94C238.608 1789.18 154.021 1793.39 73.1318 1780.13C57.783 1777.66 42.672 1786.62 38.7002 1800.63C34.5038 1815.41 42.0535 1830.7 56.2567 1836.19C58.1084 1836.9 60.0573 1837.44 62.048 1837.77C151.614 1852.69 245.294 1848.14 332.939 1824.6C389.257 1809.5 430.939 1789.56 464.117 1761.85C526.589 1709.66 555.074 1631.44 572.912 1569.12C577.407 1553.42 581.605 1537.46 585.665 1522.04C599.148 1470.78 611.888 1422.34 635.5 1378.76C678.45 1299.49 757.726 1238.22 858.727 1206.28C868.026 1203.35 877.999 1208.21 881.426 1217.34C897.591 1260.52 908.801 1309.23 913.9 1340.43C934.181 1464.37 855.932 1705.7 833.136 1772.18L1031.26 1848.76C1040.99 1815.95 1036.76 1780.25 1019.02 1750.38L1014.89 1743.43C1011.73 1738.1 1011.47 1731.51 1014.23 1725.93L1096.84 1559.02C1118.39 1515.5 1136.28 1465.26 1151.48 1405.4C1166.14 1347.83 1205.4 1299.35 1259.2 1272.39C1437.83 1182.88 1606.98 931.832 1630.56 849.809C1632.04 844.611 1635.74 840.356 1640.67 838.137C1645.59 835.932 1651.25 836.015 1656.12 838.349C1764.39 890.385 1959.21 909.513 2094.34 905.229C2139.42 903.824 2168.92 889.12 2169.51 867.8C2170.12 844.261 2136.45 815.946 2080.94 811.228Z" fill="#91F4C4"/>
<path d="M352.368 999.763L427.548 1131.76L352.368 1168.43L190.947 999.763C190.947 999.763 258.851 942.951 352.368 999.763Z" fill="#F3EEE0"/>
<path d="M839.266 1685.3L1028.98 1733.17C1028.98 1733.17 1072.99 1839.51 1049.15 1870.68L812.621 1776.02L839.266 1685.3" fill="#F3EEE0"/>
<path d="M2011.82 790.722V929.528C2011.82 929.528 2204.35 935.021 2189.66 860.119C2175 785.218 2011.82 790.722 2011.82 790.722Z" fill="#F3EEE0"/>
<path d="M2084.15 884.908C2069.48 893.911 2050.28 889.318 2041.27 874.64C2032.27 859.978 2036.87 840.779 2051.55 831.776C2066.22 822.772 2085.42 827.366 2094.43 842.044C2103.43 856.719 2098.83 875.905 2084.15 884.908Z" fill="#F68CA8"/>
<path d="M2122.72 837.5C2117.98 840.393 2111.81 838.919 2108.9 834.185C2106 829.451 2107.49 823.274 2112.22 820.365C2116.95 817.471 2123.13 818.947 2126.04 823.679C2128.93 828.413 2127.45 834.593 2122.72 837.5Z" fill="#F68CA8"/>
<path d="M2135.53 865.171C2130.82 868.077 2124.61 866.589 2121.73 861.869C2118.82 857.136 2120.29 850.957 2125.03 848.049C2129.76 845.141 2135.95 846.631 2138.85 851.351C2141.75 856.084 2140.26 862.278 2135.53 865.171" fill="#F68CA8"/>
<path d="M2127.12 895.128C2122.38 898.02 2116.2 896.546 2113.3 891.812C2110.38 887.092 2111.89 880.9 2116.59 877.993C2121.33 875.099 2127.54 876.573 2130.41 881.306C2133.33 886.039 2131.84 892.22 2127.12 895.128" fill="#F68CA8"/>
<path d="M1333.37 148.974L1455.56 213.151L1492.89 181.078C1492.89 181.078 1547.97 32.4351 1492.89 18.7961C1437.8 5.15719 1366.36 75.6408 1333.37 148.974" fill="#F3EEE0"/>
<path d="M1499.03 424.067C1517.29 431.121 1536.14 426.378 1541.13 413.471C1546.13 400.564 1535.36 384.374 1517.09 377.32C1498.83 370.25 1479.99 375.009 1475.01 387.916C1470.02 400.822 1480.77 417.013 1499.03 424.067Z" fill="#151516"/>
<path d="M1680.34 494.122C1698.6 501.186 1717.46 496.438 1722.44 483.533C1727.43 470.628 1716.68 454.428 1698.4 447.38C1680.15 440.316 1661.3 445.064 1656.31 457.968C1651.32 470.873 1662.07 487.074 1680.34 494.122Z" fill="#151516"/>
<path d="M1593.09 458.769C1560.23 446.066 1543.69 452.347 1548.05 473.66C1549.73 481.924 1553.78 488.945 1559.21 494.517L1506.93 510.62L1517.73 545.676L1564.67 531.21L1587.09 572.074L1619.23 554.428L1593.76 508.007C1601.63 507.598 1609.49 505.127 1616.4 500.074C1633.95 487.229 1625.94 471.472 1593.09 458.769" fill="#151516"/>
<path d="M1397.13 565.982L1368.38 588.77C1409.15 640.16 1474.92 671.859 1540.52 671.859C1541.27 671.859 1542.01 671.859 1542.74 671.844L1542.35 635.181C1487.16 635.773 1431.45 609.281 1397.13 565.982Z" fill="#151516"/>
<path d="M2094.36 905.222C1959.24 909.506 1764.41 890.378 1656.13 838.34C1651.25 836.01 1645.61 835.925 1640.68 838.13C1635.75 840.349 1632.05 844.606 1630.57 849.802C1606.99 931.825 1437.84 1182.88 1259.2 1272.39C1205.41 1299.34 1166.13 1347.82 1151.49 1405.4C1136.28 1465.26 1118.4 1515.49 1096.85 1559.02L1014.24 1725.93C1011.48 1731.51 1011.73 1738.09 1014.91 1743.43L1019.03 1750.38C1036.77 1780.24 1040.99 1815.95 1031.26 1848.75L833.144 1772.18C855.94 1705.69 934.19 1464.37 913.908 1340.42C908.809 1309.23 897.601 1260.52 881.433 1217.33C878.006 1208.2 868.035 1203.34 858.735 1206.28C757.732 1238.22 678.459 1299.48 635.506 1378.75C611.896 1422.33 599.156 1470.78 585.671 1522.04C581.613 1537.46 577.414 1553.42 572.918 1569.12C555.08 1631.43 526.596 1709.65 464.123 1761.84C430.946 1789.56 389.262 1809.5 332.945 1824.6C245.3 1848.14 151.619 1852.69 62.0517 1837.77C60.062 1837.43 58.1127 1836.9 56.2617 1836.18C42.0583 1830.69 34.5078 1815.41 38.7048 1800.62C42.6766 1786.62 57.7872 1777.66 73.1366 1780.13C154.025 1793.39 238.612 1789.18 317.736 1767.94C365.539 1755.12 400.104 1738.87 426.508 1716.8C476.719 1674.86 500.976 1607.22 516.511 1552.98C520.879 1537.71 525.15 1521.46 528.942 1507.05C542.72 1454.69 556.962 1400.55 583.916 1350.8C630.562 1264.71 714.191 1196.14 819.394 1157.73C825.742 1155.39 830.307 1149.78 831.249 1143.08C832.204 1136.39 829.394 1129.72 823.945 1125.72C821.05 1123.58 818.523 1121.94 815.967 1120.55C723.924 1070.17 612.19 1061.07 509.432 1095.58L347.909 1149.82L214.082 1011.24C235.495 994.184 264.652 989.354 290.951 999.521L342.35 1019.38C349.271 1022.06 357.132 1020.29 362.246 1014.93C364.008 1013.08 540.135 830.181 696.999 856.416L716.185 859.675C786.611 871.697 859.438 884.113 932.11 866.992C1100.37 827.316 1196.72 744.956 1235.28 607.785L1217.73 602.854C1235.15 375.06 1340.41 125.214 1428.28 53.3721C1438.99 44.6086 1454.48 34.6508 1467.31 37.2317C1487.59 41.2572 1494.16 50.7719 1497.31 57.5901C1511.36 87.8483 1488.97 143.781 1476.07 169.128C1397.02 199.501 1373.41 268.28 1371.29 309.132C1344.05 328.739 1270.57 395.708 1299.15 532.322L1335.04 524.83C1306.24 387.079 1394.46 337.252 1398.16 335.249C1404.36 331.956 1408.11 325.311 1407.86 318.3C1407.75 314.987 1405.94 241.547 1479.29 207.36L1516.46 294.436C1519.58 301.717 1527.09 306.147 1534.95 305.492C1536.2 305.395 1661.92 295.65 1759.35 393.05C1762.66 396.362 1767.13 398.289 1771.83 398.423L1855.46 400.696C1846.6 480.473 1777.03 502.488 1773.95 503.431C1765.36 505.954 1759.87 514.449 1760.93 523.328C1761.29 526.525 1769.13 602.392 1673.35 653.409C1644.24 668.916 1643.36 688.13 1645.42 698.199C1655.95 749.505 1802.49 787.525 2080.96 811.219C2136.47 815.938 2170.14 844.253 2169.52 867.793C2168.94 889.113 2139.43 903.818 2094.36 905.222V905.222ZM2084.06 774.675C1736.77 745.137 1687.91 699.576 1682.03 691.766C1683.13 690.558 1685.58 688.451 1690.6 685.768C1783.62 636.205 1796.75 564.622 1797.77 533.67C1836.86 516.644 1893.39 469.976 1893.04 382.803C1893 372.903 1885.13 364.833 1875.21 364.544L1780 361.963C1689.78 275.561 1582.97 267.991 1545.22 268.434L1509.39 184.536C1521.78 159.96 1552.73 89.9478 1530.6 42.2011C1523.66 27.2357 1508.27 7.99436 1474.43 1.2532C1452.9 -3.00337 1429.53 4.97058 1405.05 24.9629C1354.22 66.527 1297.53 162.348 1253.39 281.281C1206.72 406.994 1180.35 539.102 1178.65 654.449C1135.18 744.871 1054.34 800.503 923.683 831.291C858.273 846.74 792.258 835.447 722.366 823.523L703.052 820.251C546.568 794.085 383.793 942.204 344.39 980.856L304.172 965.307C257.985 947.457 205.752 961.095 174.198 999.283C168.254 1006.47 168.662 1016.99 175.144 1023.69L329.576 1183.62C334.484 1188.71 341.886 1190.49 348.605 1188.27L521.105 1130.34C603.567 1102.65 692.266 1105.89 769.194 1138.58C673.22 1181.87 596.825 1249.99 551.667 1333.34C522.621 1386.95 507.803 1443.26 493.462 1497.78C489.739 1511.94 485.511 1528.01 481.257 1542.88C467.169 1592.08 445.546 1653.12 402.995 1688.66C380.821 1707.18 350.708 1721.13 308.227 1732.53C234.101 1752.42 154.85 1756.37 79.0711 1743.95C45.0765 1738.3 12.5593 1758.43 3.4255 1790.61C-5.9741 1823.73 11.055 1858.02 43.0348 1870.4C47.2146 1872 51.5927 1873.21 56.0325 1873.94C150.737 1889.71 249.774 1884.89 342.454 1860.02C404.093 1843.49 450.222 1821.23 487.632 1789.99C557.777 1731.39 588.903 1646.57 608.174 1579.2C612.78 1563.12 617.036 1546.98 621.137 1531.36C634.046 1482.29 646.237 1435.93 667.756 1396.21C703.769 1329.72 769.152 1277.16 852.991 1246.92C865.126 1283.3 873.736 1322 877.712 1346.34C899.342 1478.54 793.803 1773.7 792.72 1776.66C789.35 1786.04 794.069 1796.39 803.368 1799.99L1035.27 1889.62C1037.45 1890.47 1039.68 1890.86 1041.9 1890.86C1048.87 1890.86 1055.5 1886.84 1058.58 1880.13C1080.13 1832.91 1077.47 1778.15 1051.51 1733.28L1129.73 1575.3C1152.42 1529.43 1171.16 1476.81 1187.03 1414.44C1199.05 1367.19 1231.35 1327.36 1275.63 1305.17C1453.63 1215.98 1617.14 982.738 1658.82 879.731C1775.1 928.396 1958.88 946.164 2095.5 941.881C2175.72 939.367 2205.27 902.456 2206.18 868.776C2207.62 814.521 2144.35 779.802 2084.06 774.675" fill="#151516"/>
<path d="M1216.44 948.077L1179.92 944.721L1176.69 979.819L1141.57 976.575L1138.2 1013.09L1173.32 1016.34L1170.07 1051.45L1206.59 1054.82L1209.83 1019.71L1244.95 1022.94L1248.31 986.434L1213.21 983.19L1216.44 948.077Z" fill="#151516"/>
<path d="M1461.73 132.481C1461.73 149.693 1447.77 163.654 1430.54 163.654C1413.34 163.654 1399.38 149.693 1399.38 132.481C1399.38 115.27 1413.34 101.309 1430.54 101.309C1447.77 101.309 1461.73 115.27 1461.73 132.481Z" fill="#F68CA8"/>
<path d="M1441.48 74.7987C1441.48 80.3482 1437 84.8486 1431.45 84.8486C1425.9 84.8486 1421.4 80.3482 1421.4 74.7987C1421.4 69.2645 1425.9 64.7489 1431.45 64.7489C1437 64.7489 1441.48 69.2645 1441.48 74.7987Z" fill="#F68CA8"/>
<path d="M1471.77 78.3703C1471.77 83.927 1467.27 88.4209 1461.72 88.4209C1456.18 88.4209 1451.67 83.927 1451.67 78.3703C1451.67 72.8289 1456.18 68.3198 1461.72 68.3198C1467.27 68.3198 1471.77 72.8289 1471.77 78.3703Z" fill="#F68CA8"/>
<path d="M1492.9 101.216C1492.9 106.751 1488.4 111.249 1482.85 111.249C1477.3 111.249 1472.8 106.751 1472.8 101.216C1472.8 95.6656 1477.3 91.1681 1482.85 91.1681C1488.4 91.1681 1492.9 95.6656 1492.9 101.216Z" fill="#F68CA8"/>
</svg>
