<svg width="1267" height="963" viewBox="0 0 1267 963" fill="none" xmlns="http://www.w3.org/2000/svg">
<path d="M568.452 962.227L155.252 832.716V250.947L568.452 337.288V962.227Z" fill="#E0BA4F"/>
<path d="M568.451 962.227L1076.21 840.939V259.169L568.451 337.288V962.227Z" fill="#C8A749"/>
<path d="M1076.21 259.169L568.452 337.288L155.252 250.947L645.541 197.499L1076.21 259.169Z" fill="#C3A348"/>
<path d="M442.367 577.121L155.252 488.741V250.947L377.449 297.376V320.467C377.449 356.725 406.921 386.433 443.093 386.816C443.096 386.816 443.1 386.816 443.103 386.816C443.136 386.816 443.171 386.817 443.204 386.817C443.212 386.817 443.219 386.817 443.227 386.817C443.256 386.817 443.284 386.817 443.313 386.819C443.324 386.819 443.335 386.819 443.345 386.819C443.372 386.819 443.401 386.819 443.428 386.819C443.439 386.819 443.451 386.819 443.461 386.819C443.485 386.819 443.513 386.82 443.537 386.82C443.551 386.82 443.564 386.82 443.577 386.82C443.604 386.82 443.629 386.82 443.656 386.82C443.668 386.82 443.679 386.82 443.691 386.82C443.728 386.82 443.765 386.82 443.803 386.82C478.749 386.82 507.612 359.441 509.997 325.073L568.452 337.288L442.367 577.121" fill="#C9A849"/>
<path d="M700.016 577.121L568.451 337.288L707.555 549.027L1076.21 466.688V492.319L700.016 577.121ZM568.451 337.288L1076.21 259.169L568.451 337.288" fill="#B29542"/>
<path d="M645.542 197.499L155.253 250.947L31.9102 51.5428L531.45 0.149462L645.542 197.499Z" fill="#E0BE5F"/>
<path d="M1076.21 259.169L645.541 197.499L772.996 0.149462L1219.09 52.5694L1076.21 259.169Z" fill="#E0BE5F"/>
<path d="M645.541 325.428V197.499L1076.21 259.169L645.541 325.428Z" fill="#AD9142"/>
<path d="M443.803 386.82C407.308 386.82 377.449 356.961 377.449 320.467V160.413C377.449 123.917 407.308 94.0588 443.803 94.0588C480.297 94.0588 510.157 123.917 510.157 160.413V320.467C510.157 356.961 480.297 386.82 443.803 386.82Z" fill="#C1BFBD"/>
<path d="M466.141 228.145C465.255 228.147 464.341 228.074 463.407 227.922C462.769 227.819 462.041 227.848 461.515 227.542C456.913 224.851 452.295 223.873 447.616 223.873C442.667 223.873 437.652 224.968 432.524 226.29C430.1 226.915 427.5 227.183 424.877 227.183C421.989 227.183 419.075 226.858 416.335 226.323C410.195 225.124 407.757 220.571 409.411 214.572C413.892 198.295 423.489 185.672 437.953 176.95C440.325 175.518 443.395 175.24 446.819 174.229C449.831 175.481 453.475 176.228 456.16 178.248C467.16 186.519 475.105 197.175 479.051 210.488C481.879 220.035 475.492 228.145 466.141 228.145" fill="#ACACAA"/>
<path d="M462.945 163.405C461.862 163.405 460.729 163.233 459.544 162.864C454.312 161.235 452.784 156.847 451.988 152.049C451.75 150.621 451.672 149.168 451.562 148.107C451.965 139.463 453.966 131.787 459.724 125.512C462.41 122.585 465.544 120.596 469.28 120.596C470.222 120.596 471.204 120.723 472.225 120.992C477.201 122.307 479.388 126.316 480.249 130.967C482.208 141.532 478.94 150.707 472.048 158.645C469.556 161.516 466.53 163.405 462.945 163.405Z" fill="#ACACAA"/>
<path d="M433.73 162.1C431.41 162.1 428.977 161.241 426.742 159.528C417.722 152.616 414.524 133.02 420.869 123.543C423.112 120.192 426.272 118.447 429.55 118.447C432.101 118.447 434.725 119.503 437.045 121.681C443.462 127.709 445.525 135.509 446.473 144.339C445.041 148.527 444.149 153.011 442.049 156.832C440.118 160.349 437.041 162.1 433.73 162.1" fill="#ACACAA"/>
<path d="M409.687 188.621C405.843 188.621 402.582 186.54 399.778 183.405C394.008 176.956 391.098 169.433 392.722 160.72C393.951 154.125 398.262 150.409 403.32 150.409C406.111 150.409 409.13 151.54 411.984 153.941C418.395 159.336 421.108 166.628 421.667 174.8C421.082 180.348 419.966 185.537 414.035 187.779C412.507 188.356 411.06 188.621 409.687 188.621Z" fill="#ACACAA"/>
<path d="M482.714 196.291C480.961 196.291 479.185 195.865 477.409 194.892C475.674 193.941 474.385 192.495 473.52 190.325C473.769 190.499 474.028 190.659 474.298 190.807C476.076 191.781 477.852 192.205 479.604 192.205C482.036 192.205 484.424 191.387 486.705 190.084C489.813 188.308 492.53 185.295 494.56 181.759V190.211C493.132 191.828 491.533 193.188 489.816 194.169C487.534 195.472 485.146 196.291 482.714 196.291Z" fill="#ACACAA"/>
<path d="M443.71 170.144C446.721 171.396 450.365 172.143 453.051 174.163C464.051 182.433 471.997 193.089 475.941 206.403C479.037 216.856 471.09 225.585 460.298 223.836C459.659 223.733 458.931 223.763 458.406 223.455C448.935 217.92 439.39 219.633 429.415 222.204C424.322 223.517 418.455 223.259 413.225 222.237C407.085 221.039 404.649 216.485 406.301 210.487C410.782 194.209 420.381 181.587 434.843 172.864C437.217 171.432 440.285 171.155 443.71 170.144Z" fill="#FBCFD8"/>
<path d="M448.451 144.021C448.854 135.377 450.855 127.701 456.612 121.427C459.976 117.761 464.04 115.568 469.114 116.908C474.09 118.221 476.276 122.231 477.138 126.881C479.098 137.447 475.828 146.621 468.938 154.56C465.692 158.297 461.544 160.371 456.432 158.779C451.2 157.149 449.674 152.761 448.876 147.964C448.639 146.536 448.562 145.083 448.451 144.021" fill="#FBCFD8"/>
<path d="M443.364 140.253C441.93 144.441 441.038 148.925 438.94 152.747C435.656 158.727 429.058 159.601 423.632 155.443C414.613 148.531 411.414 128.935 417.76 119.457C421.746 113.501 428.632 112.616 433.934 117.596C440.353 123.624 442.416 131.424 443.364 140.253" fill="#FBCFD8"/>
<path d="M418.558 170.715C417.974 176.263 416.856 181.452 410.926 183.693C405.12 185.888 400.474 183.574 396.668 179.32C390.9 172.871 387.988 165.348 389.612 156.635C391.52 146.403 400.847 143.103 408.875 149.856C415.286 155.249 418 162.543 418.558 170.715" fill="#FBCFD8"/>
<path d="M469.08 175.925C469.457 169.467 472.252 161.945 479.707 156.963C487.847 151.523 496.013 155.005 498.024 164.553C499.871 173.319 494.524 185.616 486.705 190.084C482.78 192.327 478.541 193.132 474.299 190.807C470.624 188.792 468.944 184.551 469.08 175.925" fill="#FBCFD8"/>
<path d="M443.691 386.82C443.679 386.82 443.668 386.82 443.656 386.82C443.667 386.82 443.679 386.82 443.691 386.82ZM443.578 386.82C443.564 386.82 443.551 386.82 443.538 386.82C443.551 386.82 443.564 386.82 443.578 386.82ZM443.462 386.819C443.451 386.819 443.439 386.819 443.428 386.819C443.439 386.819 443.451 386.819 443.462 386.819ZM443.346 386.819C443.335 386.819 443.324 386.819 443.314 386.819C443.324 386.819 443.335 386.819 443.346 386.819ZM443.227 386.817C443.219 386.817 443.212 386.817 443.204 386.817C443.214 386.817 443.218 386.817 443.227 386.817ZM443.103 386.816C443.1 386.816 443.096 386.816 443.094 386.816C443.095 386.816 443.1 386.816 443.103 386.816Z" fill="#B49643"/>
<path d="M510.158 212.257V160.413C510.158 160.38 510.158 160.345 510.158 160.312C510.158 160.345 510.158 160.379 510.158 160.412V212.257ZM510.158 160.281C510.158 160.259 510.158 160.232 510.158 160.211C510.158 160.233 510.158 160.257 510.158 160.281ZM510.157 160.173C510.157 160.151 510.157 160.129 510.157 160.107C510.157 160.128 510.157 160.151 510.157 160.173ZM510.157 160.073C510.157 160.051 510.157 160.027 510.157 160.004C510.157 160.025 510.157 160.051 510.157 160.073ZM510.157 159.968C510.157 159.945 510.155 159.923 510.155 159.9C510.155 159.921 510.157 159.945 510.157 159.968ZM510.155 159.868C510.155 159.845 510.155 159.817 510.155 159.796C510.155 159.819 510.155 159.844 510.155 159.868ZM510.154 159.764C510.154 159.731 510.154 159.7 510.154 159.667C510.154 159.7 510.154 159.731 510.154 159.764ZM510.154 159.665C510.153 159.629 510.153 159.597 510.153 159.561C510.153 159.595 510.153 159.632 510.154 159.665ZM510.153 159.54C510.151 159.513 510.151 159.484 510.151 159.457C510.151 159.485 510.151 159.512 510.153 159.54ZM510.15 159.432C510.15 159.408 510.15 159.381 510.15 159.357C510.15 159.38 510.15 159.409 510.15 159.432ZM510.149 159.327C510.149 159.303 510.149 159.276 510.147 159.252C510.149 159.275 510.149 159.303 510.149 159.327ZM510.147 159.224C510.147 159.2 510.146 159.177 510.146 159.153C510.146 159.176 510.147 159.2 510.147 159.224ZM510.145 159.119C510.145 159.093 510.144 159.073 510.143 159.048C510.144 159.072 510.145 159.095 510.145 159.119ZM510.143 159.017C510.142 158.985 510.142 158.956 510.14 158.925C510.142 158.956 510.142 158.985 510.143 159.017ZM510.14 158.919C510.139 158.848 510.138 158.78 510.137 158.709C510.138 158.78 510.139 158.848 510.14 158.919ZM510.135 158.695C510.135 158.667 510.134 158.637 510.134 158.608C510.134 158.637 510.135 158.665 510.135 158.695ZM510.133 158.583C510.133 158.559 510.131 158.531 510.13 158.507C510.131 158.532 510.133 158.557 510.133 158.583ZM510.13 158.477C510.129 158.453 510.129 158.427 510.127 158.403C510.129 158.428 510.129 158.452 510.13 158.477ZM510.127 158.376C510.126 158.351 510.125 158.327 510.125 158.303C510.125 158.327 510.126 158.352 510.127 158.376ZM510.123 158.271C510.122 158.244 510.122 158.215 510.121 158.188C510.122 158.216 510.122 158.243 510.123 158.271ZM510.121 158.173C510.119 158.137 510.118 158.108 510.117 158.072C510.118 158.107 510.119 158.137 510.121 158.173ZM510.117 158.069C510.114 158.001 510.111 157.933 510.109 157.864C510.111 157.932 510.114 158.001 510.117 158.069ZM510.109 157.839C510.107 157.815 510.106 157.787 510.104 157.763C510.106 157.788 510.107 157.813 510.109 157.839ZM510.103 157.733C510.103 157.709 510.102 157.687 510.101 157.663C510.102 157.685 510.103 157.709 510.103 157.733ZM510.099 157.628C510.099 157.607 510.098 157.581 510.097 157.56C510.098 157.581 510.099 157.607 510.099 157.628ZM510.095 157.527C510.094 157.503 510.093 157.48 510.093 157.456C510.093 157.479 510.094 157.504 510.095 157.527ZM510.091 157.425C510.09 157.4 510.089 157.372 510.087 157.345C510.089 157.372 510.09 157.399 510.091 157.425ZM510.086 157.325C510.083 157.259 510.079 157.191 510.076 157.125C510.079 157.191 510.083 157.259 510.086 157.325ZM510.074 157.081C510.074 157.063 510.072 157.045 510.071 157.027C510.072 157.045 510.074 157.063 510.074 157.081ZM510.068 156.976C510.068 156.959 510.067 156.944 510.066 156.927C510.067 156.944 510.068 156.959 510.068 156.976ZM510.063 156.877C510.063 156.86 510.062 156.844 510.061 156.827C510.062 156.844 510.063 156.86 510.063 156.877ZM510.058 156.777C510.058 156.76 510.057 156.744 510.055 156.727C510.057 156.741 510.058 156.763 510.058 156.777ZM510.053 156.679C510.053 156.663 510.051 156.643 510.05 156.627C510.051 156.643 510.053 156.663 510.053 156.679ZM510.047 156.577C510.046 156.563 510.046 156.547 510.045 156.532C510.046 156.547 510.046 156.563 510.047 156.577ZM510.033 156.331C510.031 156.316 510.031 156.301 510.03 156.285C510.031 156.301 510.031 156.316 510.033 156.331ZM510.026 156.227C510.026 156.213 510.025 156.204 510.023 156.191C510.025 156.204 510.026 156.213 510.026 156.227ZM510.019 156.129C510.019 156.116 510.018 156.103 510.018 156.091C510.018 156.104 510.019 156.116 510.019 156.129ZM510.014 156.032C510.013 156.019 510.011 156.007 510.011 155.993C510.011 156.007 510.013 156.019 510.014 156.032ZM510.007 155.933C510.006 155.923 510.004 155.907 510.004 155.896C510.004 155.907 510.006 155.921 510.007 155.933ZM510.001 155.833C509.999 155.827 509.999 155.819 509.999 155.812C509.999 155.82 509.999 155.825 510.001 155.833ZM509.966 155.367V155.364V155.367ZM509.959 155.273C509.959 155.272 509.959 155.273 509.959 155.271V155.273ZM509.953 155.181C509.951 155.18 509.951 155.179 509.951 155.177C509.951 155.179 509.951 155.18 509.953 155.181Z" fill="#CAAC56"/>
<path d="M443.804 386.82C443.766 386.82 443.729 386.82 443.692 386.82C443.68 386.82 443.668 386.82 443.657 386.82C443.63 386.82 443.604 386.82 443.578 386.82C443.565 386.82 443.552 386.82 443.538 386.82C443.513 386.82 443.488 386.819 443.462 386.819C443.452 386.819 443.44 386.819 443.429 386.819C443.401 386.819 443.374 386.819 443.346 386.819C443.336 386.819 443.325 386.819 443.314 386.819C443.285 386.817 443.256 386.817 443.228 386.817C443.218 386.817 443.214 386.817 443.205 386.817C443.172 386.817 443.137 386.816 443.104 386.816C443.101 386.816 443.096 386.816 443.094 386.816C433.293 386.712 423.989 384.445 415.625 380.488C419.704 381.279 423.906 381.708 428.206 381.708C464.702 381.708 494.561 351.849 494.561 315.355V190.211C499.637 184.468 502.576 175.479 501.136 168.639C500.398 165.14 498.837 162.456 496.75 160.727C496.15 159.477 495.412 158.399 494.561 157.503V155.301C494.561 128.867 478.89 105.924 456.386 95.2787C485.245 100.877 507.592 125.325 509.952 155.177C509.952 155.179 509.952 155.18 509.953 155.181C509.954 155.212 509.957 155.24 509.96 155.271C509.96 155.273 509.96 155.272 509.96 155.273C509.962 155.304 509.964 155.333 509.966 155.364V155.367C509.978 155.515 509.989 155.663 510 155.812C510 155.819 510 155.827 510.001 155.833C510.002 155.853 510.004 155.875 510.005 155.896C510.005 155.907 510.006 155.923 510.008 155.933C510.009 155.953 510.01 155.973 510.012 155.993C510.012 156.007 510.013 156.019 510.014 156.032C510.016 156.051 510.017 156.071 510.018 156.091C510.018 156.103 510.02 156.116 510.02 156.129C510.021 156.148 510.024 156.171 510.024 156.191C510.025 156.204 510.026 156.213 510.026 156.227C510.028 156.247 510.029 156.267 510.03 156.285C510.032 156.301 510.032 156.316 510.033 156.331C510.037 156.396 510.041 156.465 510.045 156.532C510.046 156.547 510.046 156.563 510.048 156.577C510.049 156.595 510.049 156.609 510.05 156.627C510.052 156.643 510.053 156.663 510.053 156.679C510.054 156.696 510.056 156.709 510.056 156.727C510.057 156.744 510.058 156.76 510.058 156.777C510.06 156.795 510.061 156.809 510.061 156.827C510.062 156.844 510.064 156.86 510.064 156.877C510.065 156.893 510.066 156.912 510.066 156.927C510.068 156.944 510.069 156.959 510.069 156.976C510.07 156.992 510.072 157.011 510.072 157.027C510.073 157.045 510.074 157.063 510.074 157.081C510.076 157.096 510.077 157.111 510.077 157.125C510.08 157.191 510.084 157.259 510.086 157.325C510.086 157.333 510.088 157.337 510.088 157.345C510.089 157.372 510.09 157.4 510.092 157.425C510.092 157.436 510.092 157.447 510.093 157.456C510.093 157.48 510.094 157.503 510.096 157.527C510.096 157.539 510.097 157.548 510.097 157.56C510.098 157.581 510.1 157.607 510.1 157.628C510.101 157.64 510.101 157.651 510.101 157.663C510.102 157.687 510.104 157.709 510.104 157.733C510.105 157.743 510.105 157.752 510.105 157.763C510.106 157.787 510.108 157.815 510.109 157.839C510.109 157.848 510.109 157.855 510.109 157.864C510.112 157.933 510.114 158.001 510.117 158.069V158.072C510.118 158.108 510.12 158.137 510.121 158.173C510.121 158.177 510.121 158.184 510.121 158.188C510.122 158.215 510.122 158.244 510.124 158.271C510.124 158.283 510.125 158.291 510.125 158.303C510.125 158.327 510.126 158.351 510.128 158.376C510.128 158.385 510.128 158.393 510.128 158.403C510.129 158.427 510.129 158.453 510.13 158.477C510.13 158.488 510.13 158.497 510.13 158.507C510.132 158.531 510.133 158.559 510.133 158.583C510.133 158.591 510.133 158.6 510.134 158.608C510.134 158.637 510.136 158.667 510.136 158.695C510.136 158.699 510.136 158.705 510.137 158.709C510.138 158.78 510.14 158.848 510.141 158.919C510.141 158.921 510.141 158.923 510.141 158.925C510.142 158.956 510.142 158.985 510.144 159.017C510.144 159.027 510.144 159.039 510.144 159.048C510.145 159.073 510.145 159.093 510.145 159.119C510.146 159.129 510.146 159.141 510.146 159.153C510.146 159.177 510.148 159.2 510.148 159.224C510.148 159.233 510.148 159.241 510.148 159.252C510.149 159.276 510.149 159.303 510.149 159.327C510.149 159.339 510.149 159.345 510.15 159.357C510.15 159.381 510.15 159.408 510.15 159.432C510.152 159.443 510.152 159.448 510.152 159.457C510.152 159.484 510.152 159.513 510.153 159.54C510.153 159.548 510.153 159.555 510.153 159.561C510.153 159.597 510.153 159.629 510.154 159.665V159.667C510.154 159.7 510.154 159.731 510.154 159.764C510.156 159.773 510.156 159.785 510.156 159.796C510.156 159.817 510.156 159.845 510.156 159.868C510.156 159.88 510.156 159.888 510.156 159.9C510.156 159.923 510.157 159.945 510.157 159.968C510.157 159.981 510.157 159.991 510.157 160.004C510.157 160.027 510.157 160.051 510.157 160.073C510.157 160.084 510.157 160.095 510.157 160.107C510.157 160.129 510.157 160.151 510.157 160.173C510.158 160.187 510.158 160.196 510.158 160.211C510.158 160.232 510.158 160.259 510.158 160.281C510.158 160.291 510.158 160.301 510.158 160.312C510.158 160.345 510.158 160.38 510.158 160.413V212.257V320.467C510.158 322.015 510.105 323.551 509.998 325.073C507.613 359.441 478.75 386.82 443.804 386.82" fill="#ACACAA"/>
<path d="M494.561 190.211V181.759C497.638 176.397 499.137 169.835 498.025 164.553C497.727 163.143 497.297 161.864 496.75 160.727C498.837 162.456 500.398 165.14 501.135 168.639C502.575 175.479 499.637 184.468 494.561 190.211" fill="#989999"/>
<path d="M494.561 181.759V157.503C495.411 158.399 496.15 159.477 496.75 160.727C497.297 161.864 497.727 163.143 498.025 164.553C499.137 169.835 497.638 176.397 494.561 181.759" fill="#E6BABF"/>
<path d="M431.746 539.776L0.0449219 423.628L155.252 250.947L568.452 337.288L431.746 539.776Z" fill="#E0BA4F"/>
<path d="M1266.71 424.141L707.555 549.027L568.451 337.288L1076.21 259.169L1266.71 424.141Z" fill="#E0BA4F"/>
<path d="M754.605 401.336C749.102 395.112 745.21 388.695 742.598 383.541C739.461 383.779 736.386 383.903 733.379 383.903C727.859 383.903 722.578 383.484 717.606 382.58C713.482 390.127 707.933 396.42 707.933 396.42C704.541 389.448 702.549 382.688 701.374 377.211C689.266 370.891 680.555 359.676 677.081 341.783C675.959 336.003 675.555 330.301 675.763 324.737L823.375 298.068C824.593 301.516 825.845 309.027 826.569 312.759C829.393 327.305 827.346 339.045 821.726 348.517C824.514 356.965 825.25 365.876 825.25 365.876C820.218 364.244 815.729 362.212 811.857 360.148C807.961 363.524 803.455 366.484 798.451 369.076C799.465 379.423 796.309 391.757 796.309 391.757C789.455 386.588 784.242 380.871 780.639 376.259C774.819 378.071 768.645 379.579 762.223 380.825C761.826 380.903 761.433 380.971 761.037 381.044C759.629 390.96 754.605 401.336 754.605 401.336" fill="#CAA94A"/>
<path d="M694.195 359.44C694.195 359.44 694.437 374.719 702.431 391.157C702.431 391.157 716.593 375.097 716.479 363.531C716.367 351.963 694.195 359.44 694.195 359.44Z" fill="#EEEDED"/>
<path d="M732.668 367.724C732.668 367.724 736.995 382.379 749.104 396.072C749.104 396.072 758.441 376.804 755.232 365.691C752.023 354.576 732.668 367.724 732.668 367.724" fill="#EEEDED"/>
<path d="M769.055 361.988C769.055 361.988 776.213 375.487 790.808 386.493C790.808 386.493 796.121 365.752 790.761 355.5C785.403 345.248 769.055 361.988 769.055 361.988" fill="#EEEDED"/>
<path d="M791.184 344.556C791.184 344.556 802.36 354.975 819.749 360.612C819.749 360.612 817.994 339.273 809.581 331.333C801.168 323.395 791.184 344.556 791.184 344.556Z" fill="#EEEDED"/>
<path d="M821.068 307.496C829.083 348.776 798.003 367.548 756.723 375.563C715.443 383.577 679.595 377.799 671.582 336.519C663.567 295.239 690.991 257.631 732.27 249.616C773.55 241.601 813.055 266.216 821.068 307.496" fill="#C1BFBD"/>
</svg>
