<svg width="1457" height="1499" viewBox="0 0 1457 1499" fill="none" xmlns="http://www.w3.org/2000/svg">
<path d="M206.364 518.627C225.957 518.627 241.809 529.834 241.809 543.684C241.809 557.517 225.957 568.74 206.364 568.74C186.814 568.74 170.919 557.517 170.919 543.684C170.919 529.834 186.814 518.627 206.364 518.627ZM269.986 597.324C258.256 579.021 271.389 567.211 306.621 567.211C341.853 567.211 354.986 579.021 343.256 597.324C338.624 604.54 332.206 609.67 325.023 612.883L365.483 647.013L341.854 675.048L306.239 645.02L267.649 675.427L244.954 646.634L287.921 612.76C280.866 609.53 274.534 604.43 269.986 597.324ZM400.758 518.627C420.308 518.627 436.203 529.834 436.203 543.684C436.203 557.517 420.308 568.74 400.758 568.74C381.166 568.74 365.314 557.517 365.314 543.684C365.314 529.834 381.166 518.627 400.758 518.627ZM258.851 781.96C255.069 781.96 251.286 781.904 247.504 781.777L248.694 745.119C290.854 746.563 333.991 739.347 373.431 724.498L386.351 758.811C345.976 774.021 302.116 781.96 258.851 781.96ZM308.491 1340.2C308.491 1345.57 306.153 1350.67 302.073 1354.15L273.726 1378.34C248.651 1399.76 232.544 1429.42 228.081 1461.65H337.008L337.179 1458.08C338.964 1419.45 354.051 1382.2 379.636 1353.2L397.103 1333.42C401.353 1320.88 417.121 1270.73 417.843 1212.14C418.906 1124.81 387.456 1060.34 324.386 1020.53L343.979 989.514C417.758 1036.12 456.008 1113.63 454.521 1213.68C453.373 1287.34 431.316 1346.83 430.381 1349.33C429.573 1351.43 428.426 1353.34 426.938 1355.01L407.133 1377.47C387.031 1400.22 375.216 1429.45 373.814 1459.77L373.728 1461.65H534.335C547.043 1405.01 591.54 1188 563.873 1038.21C562.768 1032.3 564.681 1026.21 568.888 1021.94C573.138 1017.69 579.173 1015.78 585.123 1016.83C587.418 1017.23 807.525 1055.33 1008.12 986.777C986.407 933.855 980.201 877.227 979.904 874.571L1016.37 870.725C1016.45 871.396 1023.76 937.871 1049.39 989.136C1049.39 989.165 1049.39 989.178 1049.39 989.191C1153.01 1198.11 1224.62 1224.74 1225.3 1224.95C1234.61 1227.76 1240.09 1237.33 1237.84 1246.76L1204.86 1384.81C1203.58 1390.08 1200.05 1394.52 1195.21 1396.95L1156.79 1416.16C1138.05 1425.51 1124.83 1442.12 1119.69 1461.65H1264.4L1355.01 1303.04C1375.45 1267.24 1372.26 1223.1 1346.85 1190.61C1300.18 1130.89 1290.2 1051.08 1320.84 982.298C1350.5 915.806 1376.68 822.605 1333.04 756.202C1330.78 752.747 1328.15 749.152 1324.79 744.906C1321.6 740.848 1320.29 735.625 1321.14 730.525C1321.99 725.425 1324.96 720.933 1329.3 718.137C1362.74 696.663 1382.72 668.461 1384.89 665.316C1438.48 587.588 1429.55 471.463 1363.72 389.218C1351.86 374.399 1338.69 360.931 1325.98 347.897C1301.16 322.462 1277.7 298.43 1268.48 269.302C1263.89 254.751 1262.66 237.939 1264.78 219.329C1270.48 168.863 1301.8 120.382 1346.47 92.7968C1358.03 85.6401 1363.47 72.0112 1359.64 59.6444L1359.09 57.8168C1356.5 49.3597 1350.25 42.6875 1341.96 39.5427C1333.8 36.3979 1324.92 37.2054 1317.52 41.6252C1255.94 78.6832 1214.42 142.642 1206.47 212.699C1203.41 239.554 1205.45 264.538 1212.55 286.968C1225.94 329.428 1256.79 361.016 1283.99 388.882C1296.23 401.436 1307.83 413.293 1317.91 425.876C1367.16 487.404 1375.2 576.016 1336.61 632.016C1327.13 645.781 1293.47 682.001 1252.29 684.317C1249.14 684.513 1246 683.867 1243.19 682.477C1028.31 577.04 592.73 639.414 537.395 647.914C508.198 707.674 452.608 737.605 449.421 739.262L432.336 706.82C433.186 706.352 518.313 660.132 518.313 571.885C518.313 463.151 463.828 374.288 436.161 336.126L391.111 412.124C386.903 419.259 378.404 422.659 370.414 420.424C284.649 396.438 185.539 420.326 184.519 420.564C177.889 422.196 170.919 420.033 166.371 414.92L106.787 347.544C76.1442 374.318 51.8768 420.636 42.0594 472.658C24.2944 566.577 52.0042 671.678 120.174 768.603C252.179 956.396 308.491 1127.34 308.491 1340.2Z" fill="#CDED88"/>
<path d="M1171.16 1367.98L1198.77 1252.44C1169.97 1235.18 1106.05 1181.53 1023.9 1020.15C1003.76 1027.19 983.45 1033.16 963.264 1038.27C1052.58 1201.62 1113.39 1224.87 1114.05 1225.1C1123.32 1227.89 1128.41 1237.33 1126.15 1246.77L1093.12 1384.82C1091.85 1390.09 1088.36 1394.53 1083.48 1396.95L1045.08 1416.17C1026.37 1425.52 1013.11 1442.12 1007.99 1461.66H1082.25C1087.95 1428.05 1109.12 1399.01 1140.35 1383.36L1171.16 1367.98Z" fill="#CDED88"/>
<path d="M428.668 650.036C428.668 708.767 373.412 756.378 305.196 756.378C237.016 756.378 181.76 708.767 181.76 650.036C181.76 591.298 237.016 543.705 305.196 543.705C373.412 543.705 428.668 591.298 428.668 650.036Z" fill="#F3EEE0"/>
<path d="M562.225 621.32C562.225 621.32 584.229 911.249 618.479 930.799C652.692 950.365 652.692 621.32 652.692 621.32H562.225Z" fill="#62CA79"/>
<path d="M713.814 601.216C713.814 601.216 735.821 891.136 770.029 910.698C804.275 930.249 804.275 601.216 804.275 601.216H713.814Z" fill="#62CA79"/>
<path d="M1172.23 643.926C1179.81 725.051 1198.77 896.414 1224.8 911.302C1249.31 925.305 1256.26 760.569 1258.25 665.893L1172.23 643.926Z" fill="#62CA79"/>
<path d="M1020.21 616.817C1027.49 695.905 1046.68 873.53 1073.22 888.688C1099.44 903.672 1105.59 714.178 1107.01 624.627L1020.21 616.817Z" fill="#62CA79"/>
<path d="M867.248 603.551C873.218 671.964 893.224 874.366 921.612 890.604C949.724 906.671 954.784 687.486 955.654 608.734L867.248 603.551Z" fill="#62CA79"/>
<path d="M296.042 1342.74H581.192L548.197 1480.25H210.873C210.873 1480.25 236.42 1370.23 296.042 1342.74Z" fill="#F3EEE0"/>
<path d="M1081.02 1370.86H1332.36L1276.12 1480.25H990.08C990.08 1480.25 1010.59 1395.3 1081.02 1370.86Z" fill="#F3EEE0"/>
<path d="M170.926 391.522C170.926 391.522 180.647 489.919 195.754 496.563C210.895 503.206 210.895 391.522 210.895 391.522H170.926Z" fill="#62CA79"/>
<path d="M256.078 391.51C256.078 391.51 265.803 489.922 280.922 496.594C296.041 503.194 296.041 391.51 296.041 391.51H256.078Z" fill="#62CA79"/>
<path d="M341.21 391.5C341.21 391.5 350.934 489.92 366.059 496.582C381.185 503.208 381.185 391.5 381.185 391.5H341.21Z" fill="#62CA79"/>
<path d="M206.363 568.77C225.946 568.77 241.803 557.52 241.803 543.703C241.803 529.851 225.946 518.637 206.363 518.637C186.78 518.637 170.924 529.851 170.924 543.703C170.924 557.52 186.78 568.77 206.363 568.77Z" fill="#151516"/>
<path d="M400.758 568.73C420.314 568.73 436.2 557.535 436.2 543.686C436.2 529.837 420.314 518.642 400.758 518.642C381.165 518.642 365.279 529.837 365.279 543.686C365.279 557.535 381.165 568.73 400.758 568.73Z" fill="#151516"/>
<path d="M267.641 675.422L306.216 645.037L341.846 675.063L365.479 647.013L325 612.893C332.184 609.661 338.613 604.561 343.246 597.342C354.991 579.025 341.809 567.21 306.611 567.21C271.376 567.21 258.23 579.025 269.975 597.342C274.501 604.453 280.822 609.553 287.934 612.786L244.941 646.654L267.641 675.422Z" fill="#151516"/>
<path d="M42.032 472.664C51.9049 420.639 76.0958 374.32 106.783 347.549L166.363 414.926C170.893 420.037 177.903 422.199 184.527 420.571C185.51 420.332 284.625 396.441 370.404 420.43C378.396 422.665 386.859 419.263 391.09 412.13L436.138 336.134C463.834 374.295 518.285 463.155 518.285 571.893C518.285 660.138 433.189 706.359 432.334 706.821L449.43 739.267C452.593 737.609 508.198 707.68 537.389 647.919C592.738 639.419 1028.3 577.047 1243.16 682.481C1246.02 683.875 1249.14 684.52 1252.26 684.323C1293.46 682.007 1327.1 645.782 1336.59 632.017C1375.18 576.021 1367.14 487.413 1317.91 425.879C1307.82 413.297 1296.24 401.442 1283.97 388.885C1256.79 361.021 1225.93 329.433 1212.51 286.977C1205.46 264.544 1203.41 239.559 1206.44 212.707C1214.39 142.647 1255.94 78.7073 1317.52 41.6279C1324.87 37.226 1333.76 36.4137 1341.93 39.5336C1350.22 42.6962 1356.46 49.3633 1359.07 57.8424L1359.62 59.6333C1363.47 72.0101 1358.04 85.6479 1346.46 92.8022C1301.79 120.39 1270.47 168.871 1264.74 219.336C1262.65 237.944 1263.88 254.757 1268.5 269.305C1277.69 298.435 1301.15 322.467 1325.99 347.904C1338.68 360.935 1351.84 374.406 1363.68 389.223C1429.55 471.472 1438.48 587.595 1384.88 665.318C1382.7 668.463 1362.74 696.666 1329.32 718.142C1324.96 720.937 1321.97 725.433 1321.11 730.531C1320.26 735.63 1321.58 740.853 1324.79 744.913C1328.12 749.157 1330.77 752.751 1333.04 756.204C1376.68 822.61 1350.52 915.813 1320.86 982.3C1290.17 1051.08 1300.17 1130.9 1346.84 1190.62C1372.27 1223.1 1375.44 1267.25 1354.96 1303.05L1264.35 1461.66H1119.68C1124.81 1442.12 1138.06 1425.52 1156.78 1416.17L1195.2 1396.95C1200.07 1394.52 1203.58 1390.08 1204.82 1384.82L1237.86 1246.77C1240.12 1237.33 1234.61 1227.76 1225.29 1224.96C1224.61 1224.75 1153.02 1198.12 1049.41 989.198C1049.37 989.185 1049.37 989.168 1049.37 989.142C1023.73 937.878 1016.42 871.404 1016.38 870.729L979.92 874.575C980.176 877.229 986.373 933.861 1008.13 986.783C807.549 1055.33 587.395 1017.23 585.13 1016.84C579.189 1015.78 573.12 1017.7 568.889 1021.95C564.657 1026.22 562.777 1032.3 563.888 1038.21C591.541 1188.01 547.049 1405.02 534.312 1461.66H373.738L373.78 1459.78C375.191 1429.45 387.03 1400.22 407.118 1377.47L426.949 1355.01C428.445 1353.34 429.556 1351.43 430.368 1349.34C431.309 1346.84 453.405 1287.35 454.473 1213.68C456.012 1113.64 417.76 1036.12 343.948 989.518L324.373 1020.53C387.457 1060.35 418.871 1124.82 417.846 1212.15C417.119 1270.73 401.348 1320.89 397.074 1333.43L379.636 1353.2C354.034 1382.21 338.947 1419.45 337.152 1458.09L337.024 1461.66H228.08C232.525 1429.42 248.638 1399.76 273.726 1378.34L302.063 1354.16C306.123 1350.67 308.516 1345.58 308.516 1340.21C308.516 1127.34 252.185 956.401 120.161 768.606C52.0335 671.681 24.2521 566.585 42.032 472.664ZM1082.24 1461.66H1008C1013.13 1442.12 1026.38 1425.52 1045.06 1416.17L1083.52 1396.95C1088.35 1394.52 1091.86 1390.08 1093.14 1384.82L1126.13 1246.77C1128.4 1237.33 1123.31 1227.89 1114.04 1225.1C1113.4 1224.87 1052.58 1201.61 963.251 1038.27C983.467 1033.16 1003.77 1027.19 1023.9 1020.15C1106.05 1181.53 1169.98 1235.18 1198.79 1252.44L1171.14 1367.97L1140.37 1383.36C1109.12 1399 1087.97 1428.05 1082.24 1461.66ZM271.803 1331.78L249.92 1350.45C211.924 1382.85 190.169 1430.07 190.169 1479.99C190.169 1490.11 198.375 1498.33 208.504 1498.33H354.505H548.886C557.306 1498.33 564.658 1492.59 566.709 1484.4C569.273 1473.86 627.571 1235.36 603.893 1056.68C657.233 1063.55 786.991 1074.86 926.11 1046.74C1001.55 1187.47 1059.97 1236.14 1087.07 1252.43L1059.46 1367.97L1028.69 1383.36C991.844 1401.78 968.935 1438.8 968.935 1479.99C968.935 1490.11 977.184 1498.33 987.271 1498.33H1098.99H1111.22H1275C1281.58 1498.33 1287.69 1494.8 1290.94 1489.08L1386.85 1321.25C1414.71 1272.44 1410.35 1212.3 1375.74 1168.03C1337.44 1119.03 1329.23 1053.58 1354.37 997.215C1387.49 922.946 1416 817.934 1364.88 737.904C1394.03 715.5 1411.47 691.388 1415.1 686.135C1477.63 595.39 1468.05 460.894 1392.32 366.302C1379.37 350.079 1365.56 335.963 1352.23 322.3C1330.52 300.068 1310.04 279.066 1303.46 258.253C1300.43 248.646 1299.66 236.948 1301.2 223.477C1305.68 183.928 1330.43 145.81 1365.69 123.996C1391.51 108.072 1403.43 77.1515 1394.67 48.8077L1394.11 47.0127C1388.17 27.6952 1373.9 12.4805 1355.01 5.25781C1336.24 -1.87939 1315.73 -0.0842285 1298.59 10.2156C1227.3 53.1244 1179.26 127.27 1170.03 208.562C1166.39 240.555 1168.92 270.655 1177.55 298.029C1193.62 348.802 1227.68 383.701 1257.73 414.52C1269.36 426.401 1280.3 437.623 1289.27 448.804C1328.81 498.183 1336.16 568.017 1306.37 611.22C1299.32 621.443 1277.22 643.521 1254.52 647.244C1042.88 546.977 654.796 593.805 551.023 608.759C553.545 597.245 554.998 584.967 554.998 571.893C554.998 412.383 451.995 296.358 447.635 291.499C443.703 287.174 438.019 284.896 432.206 285.528C426.393 286.092 421.222 289.405 418.23 294.418L366.557 381.637C292.062 364.657 214.915 376.906 186.707 382.582L122.939 310.5C116.87 303.645 106.698 302.341 99.0899 307.367C53.9564 337.228 19.1234 396.471 6.00218 465.852C-13.6155 569.602 16.26 684.605 90.1575 789.689C217.437 970.756 270.392 1128.41 271.803 1331.78Z" fill="#151516"/>
<path d="M248.68 745.127L247.49 781.787C251.275 781.913 255.024 781.967 258.844 781.967C302.098 781.967 345.929 774.034 386.336 758.82L373.432 724.507C333.962 739.357 290.852 746.572 248.68 745.127Z" fill="#151516"/>
</svg>
