<svg width="1457" height="1917" viewBox="0 0 1457 1917" fill="none" xmlns="http://www.w3.org/2000/svg">
<path d="M700.475 308.947C680.899 308.947 665.031 297.735 665.031 283.889C665.031 270.074 680.899 258.832 700.475 258.832C720.05 258.832 735.919 270.074 735.919 283.889C735.919 297.735 720.05 308.947 700.475 308.947ZM584.861 510.542C531.312 510.542 477.885 497.094 430.555 470.841L448.353 438.769C513.115 474.701 594.143 483.462 665.062 462.172L675.6 497.308C646.038 506.192 615.434 510.542 584.861 510.542ZM506.099 258.832C525.705 258.832 541.574 270.074 541.574 283.889C541.574 297.735 525.705 308.947 506.099 308.947C486.524 308.947 470.655 297.735 470.655 283.889C470.655 270.074 486.524 258.832 506.099 258.832ZM569.727 337.527C557.963 319.239 571.136 307.415 606.366 307.415C641.565 307.415 654.738 319.239 643.005 337.527C638.379 344.757 631.946 349.903 624.747 353.12L665.245 387.214L641.596 415.274L605.968 385.223L567.399 415.641L544.699 386.846L587.679 352.966C580.572 349.75 574.261 344.665 569.727 337.527ZM1277.38 1178.71C1277.66 1178.4 1277.9 1178.06 1278.15 1177.76C1330.56 1120.9 1355.99 1036.6 1354.15 926.72C1351.09 743.535 1256.95 604.462 1074.4 513.391C955.721 454.177 836.737 435.583 804.969 431.448C783.893 450.746 765.298 460.763 763.521 461.682L746.427 429.242C747.284 428.783 832.417 382.558 832.417 294.304C832.417 184.884 777.674 91.9438 749.888 51.8455L705.223 127.202C700.996 134.34 692.51 137.771 684.484 135.534C598.738 111.518 499.605 135.412 498.625 135.657C492.008 137.311 484.992 135.136 480.489 130.021L420.782 62.5364C366.406 108.149 312.306 215.945 351.641 332.779C353.417 338.109 355.286 343.47 357.155 348.892C374.157 397.69 393.426 452.983 364.109 501.903L358.196 511.736C332.524 554.53 262.678 583.846 223.313 597.478L96.7924 639.567C69.2827 649.094 45.9699 672.835 41.5586 695.871C40.4251 701.936 40.6395 707.388 42.3244 712.29C48.8496 708.461 55.8647 705.397 63.3395 703.345L283.326 646.49L392.752 591.688L409.172 624.465L297.999 680.156C296.835 680.738 295.61 681.197 294.385 681.504L72.7749 738.787C60.0003 742.279 49.2172 750.795 42.6921 762.65C36.1976 774.505 34.7882 788.167 38.7706 801.125C46.3373 825.754 71.9784 840.549 97.1293 834.913L446.454 755.88C455.798 753.797 465.172 759.189 467.99 768.317C468.297 769.267 504.047 872.806 696.646 981.093C739.473 935.082 789.315 895.137 845.039 862.881L882.781 841.039L901.161 872.775L863.389 894.616C709.512 983.666 603.027 1135.08 571.228 1310C569.972 1316.92 564.826 1322.53 558.055 1324.4L453.929 1353.13C439.653 1357.05 429.728 1370.13 429.728 1384.93C429.728 1401.96 443.023 1416.42 460.025 1417.79L536.55 1424.01C595.797 1428.82 651.123 1395.34 674.436 1340.72C705.897 1266.9 783.004 1224.2 861.949 1236.79C884.404 1240.37 906.92 1244.75 928.855 1249.74C930.693 1250.2 1061.35 1283.13 1176.41 1242.85C1181.96 1240.89 1188.11 1241.75 1192.92 1245.09C1193.87 1245.76 1194.67 1246.53 1195.44 1247.32C1211.06 1238.56 1233.94 1224.93 1262.1 1206.09C1265.56 1196.41 1270.52 1187.16 1277.38 1178.71Z" fill="#F3EEE0"/>
<path d="M1383.38 1454.35C1367.56 1429.72 1347.98 1408.83 1329.02 1388.62C1305.63 1363.68 1283.56 1340.11 1270.9 1312.25C1257.03 1281.67 1249.47 1241.03 1262.09 1206.09C1233.95 1224.93 1211.08 1238.56 1195.47 1247.31C1198.74 1250.63 1200.72 1255.05 1200.84 1259.78C1201.36 1287.52 1206.97 1313.35 1217.46 1336.45C1234.1 1373.16 1260.57 1401.42 1286.18 1428.74C1304.17 1447.92 1321.09 1465.97 1334.02 1486.09C1385.97 1566.88 1360.88 1689.56 1281.36 1743.49C1234.5 1775.29 1175.05 1785.42 1117.57 1795.23L965.311 1821.18C957.597 1822.52 950.829 1826.76 946.316 1833.16C941.774 1839.53 940.005 1847.31 941.316 1855.05C944.06 1870.99 959.274 1881.76 975.159 1879.01L1127.36 1853.07C1188.07 1842.73 1256.88 1830.99 1314.32 1792.03C1420.48 1720.05 1452.74 1562.25 1383.38 1454.35Z" fill="#FFBA52"/>
<path d="M589.572 1137.61L446.27 1188.85C436.596 1191.95 430.474 1200.34 430.474 1209.89C430.474 1221.96 440.299 1231.78 452.367 1231.78H552.713C562.539 1199.31 574.884 1167.82 589.572 1137.61Z" fill="#F3EEE0"/>
<path d="M869.274 415.644C869.274 415.644 771.484 514.905 646.798 595.564C522.111 676.251 771.484 673.155 967.064 438.791L869.274 415.644Z" fill="#FFBA52"/>
<path d="M1028.2 474.684C1028.2 474.684 909.138 612.685 790.186 686.029C671.234 759.373 967.075 753.135 1125.99 510.544L1028.2 474.684Z" fill="#FFBA52"/>
<path d="M1184.67 561.348C1184.67 561.348 1091.76 700.687 949.948 764.266C808.166 827.815 1099.1 837.619 1267.8 631.032L1184.67 561.348Z" fill="#FFBA52"/>
<path d="M348.522 390.227C348.522 390.227 513.562 302.551 605.155 199.534C605.155 199.534 728.296 299.594 817.948 391.829C817.948 391.829 920.602 162.843 749.492 23.5041L700.661 101.722C700.661 101.722 544.124 96.8549 492.766 111.519L430.441 38.1679C430.441 38.1679 243.403 138.413 348.522 390.227Z" fill="#FFBA52"/>
<path d="M1336.23 739.805C1336.23 739.805 1196.91 854.705 1074.66 874.264C952.39 893.823 1189.57 986.737 1365.58 837.601L1336.23 739.805Z" fill="#FFBA52"/>
<path d="M506.328 308.947C525.915 308.947 541.771 297.73 541.771 283.871C541.771 270.041 525.915 258.825 506.328 258.825C486.742 258.825 470.885 270.041 470.885 283.871C470.885 297.73 486.742 308.947 506.328 308.947Z" fill="#151516"/>
<path d="M700.692 308.947C720.278 308.947 736.135 297.73 736.135 283.871C736.135 270.041 720.278 258.825 700.692 258.825C681.106 258.825 665.249 270.041 665.249 283.871C665.249 297.73 681.106 308.947 700.692 308.947Z" fill="#151516"/>
<path d="M567.611 415.636L606.153 385.234L641.789 415.287L665.42 387.239L624.959 353.117C632.139 349.891 638.562 344.746 643.184 337.538C654.927 319.228 641.76 307.427 606.56 307.427C571.332 307.427 558.165 319.228 569.907 337.538C574.471 344.659 580.778 349.746 587.841 352.972L544.881 386.862L567.611 415.636Z" fill="#151516"/>
<path d="M392.97 591.68L283.523 646.494L63.5766 703.35C56.0553 705.393 49.0291 708.457 42.5292 712.295C40.8578 707.374 40.6101 701.926 41.7554 695.891C46.1815 672.833 69.4886 649.094 96.9741 639.561L223.507 597.499C262.847 583.819 332.737 554.54 358.396 511.735L364.308 501.893C393.62 452.991 374.367 397.682 357.344 348.873C355.487 343.488 353.599 338.103 351.834 332.779C312.494 215.972 366.598 108.14 420.981 62.5188L480.688 130.022C485.176 135.129 492.202 137.295 498.826 135.655C499.817 135.407 598.956 111.514 684.694 135.531C692.71 137.76 701.191 134.355 705.401 127.205L750.065 51.8409C777.86 91.9529 832.614 184.897 832.614 294.308C832.614 382.548 747.496 428.788 746.629 429.252L763.715 461.688C765.51 460.76 784.081 450.732 805.191 431.449C836.947 435.566 955.928 454.198 1074.6 513.375C1257.15 604.463 1351.28 743.524 1354.34 926.72C1356.2 1036.59 1330.76 1120.87 1278.36 1177.76C1278.11 1178.07 1277.83 1178.38 1277.58 1178.72C1245.83 1217.75 1253.38 1273.21 1271.08 1312.24C1283.74 1340.13 1305.81 1363.71 1329.21 1388.63C1348.15 1408.84 1367.75 1429.73 1383.56 1454.36C1452.93 1562.26 1420.67 1720.08 1314.51 1792.07C1257.06 1831 1188.25 1842.73 1127.53 1853.07L975.366 1879.04C959.456 1881.76 944.228 1870.99 941.504 1855.05C940.173 1847.31 941.968 1839.54 946.487 1833.17C951.006 1826.76 957.754 1822.52 965.492 1821.19L1117.75 1795.25C1175.22 1785.44 1234.68 1775.29 1281.54 1743.5C1361.06 1689.59 1386.16 1566.87 1334.19 1486.09C1321.29 1465.97 1304.36 1447.93 1286.37 1428.74C1260.78 1401.41 1234.28 1373.18 1217.63 1336.47C1207.14 1313.35 1201.53 1287.54 1201.01 1259.78C1200.91 1253.93 1197.97 1248.45 1193.15 1245.11C1188.32 1241.73 1182.16 1240.9 1176.62 1242.85C1061.57 1283.12 930.887 1250.18 929.061 1249.75C907.116 1244.74 884.583 1240.37 862.143 1236.78C783.184 1224.19 706.113 1266.9 674.634 1340.71C651.327 1395.34 595.985 1428.8 536.742 1424L460.229 1417.81C443.236 1416.42 429.927 1401.97 429.927 1384.91C429.927 1370.12 439.862 1357.06 454.131 1353.13L558.254 1324.4C565.033 1322.52 570.171 1316.91 571.409 1310.01C603.228 1135.08 709.703 983.669 863.597 894.624L901.359 872.773L883.004 841.018L845.212 862.869C789.529 895.12 739.696 935.077 696.827 981.1C504.243 872.804 468.493 769.275 468.183 768.315C465.367 759.185 455.988 753.799 446.641 755.904L97.3145 834.89C72.1813 840.554 46.553 825.759 38.9697 801.123C35.0078 788.185 36.3698 774.505 42.9007 762.651C49.4316 750.797 60.203 742.286 72.9862 738.788L294.573 681.53C295.811 681.189 297.049 680.725 298.194 680.168L409.374 624.488L392.97 591.68ZM452.336 1231.8C440.295 1231.8 430.453 1221.96 430.453 1209.92C430.453 1200.35 436.581 1191.97 446.238 1188.87L589.547 1137.62C574.876 1167.82 562.526 1199.3 552.683 1231.8H452.336ZM3.90093 811.894C17.0865 854.76 61.6578 880.542 105.393 870.669L439.831 795.026C456.948 830.154 512.94 918.24 672.127 1009.27C651.266 1034.49 632.354 1061.26 615.578 1089.37L434.508 1154.14C410.148 1161.91 393.775 1184.35 393.775 1209.92C393.775 1242.2 420.053 1268.44 452.336 1268.44H542.747C540.89 1276.31 539.095 1284.17 537.516 1292.09L444.381 1317.78C414.265 1326.07 393.248 1353.68 393.248 1384.91C393.248 1420.94 421.353 1451.42 457.257 1454.36L533.771 1460.55C608.768 1466.65 678.875 1424.28 708.372 1355.11C733.196 1296.8 794.048 1263 856.324 1272.99C877.99 1276.46 899.749 1280.67 920.395 1285.34C925.811 1286.77 1046.93 1317.47 1165.94 1284.57C1168.66 1308.37 1174.79 1330.81 1184.23 1351.64C1203.39 1393.83 1231.96 1424.34 1259.69 1453.9C1276.44 1471.76 1292.25 1488.63 1303.33 1505.9C1345.18 1570.96 1324.97 1669.75 1260.96 1713.14C1220.69 1740.47 1165.23 1749.94 1111.52 1759.1L959.332 1785.04C941.937 1788.01 926.771 1797.58 916.557 1811.97C906.373 1826.36 902.38 1843.85 905.352 1861.24C910.83 1893.37 938.811 1916.12 970.382 1916.12C974.066 1916.12 977.78 1915.81 981.525 1915.19L1133.72 1889.22C1198.1 1878.26 1271.08 1865.82 1335.09 1822.43C1457.01 1739.7 1494.09 1558.45 1414.42 1434.53C1396.78 1407.1 1376.04 1384.97 1355.95 1363.56C1334.69 1340.87 1314.6 1319.48 1304.48 1297.11C1291.85 1269.31 1284.79 1227.62 1306.09 1201.81C1306.15 1201.72 1306.24 1201.59 1306.34 1201.47C1364.53 1137.96 1393 1045.32 1391.02 926.101C1387.74 730.927 1283.99 576.855 1090.97 480.568C987.592 429.004 885.883 407.122 834.595 398.673C853.724 372.334 869.293 337.669 869.293 294.308C869.293 135.129 766.686 12.1625 762.322 6.99377C758.484 2.47498 752.634 0.060791 746.784 0.586914C740.872 1.08215 735.579 4.3938 732.546 9.50061L680.856 96.7192C606.354 79.7583 529.221 91.9838 501.024 97.6477L437.262 25.5948C431.196 18.7239 421.012 17.4238 413.398 22.4379C343.88 68.4304 267.985 198.732 317.044 344.478C318.87 349.926 320.82 355.404 322.739 360.944C337.782 404.151 353.351 448.844 332.83 483.044L326.949 492.855C312.773 516.532 269.594 542.686 211.714 562.772L85.1815 604.834C45.2222 618.7 12.5677 653.303 5.72723 688.989C2.26059 707.157 5.54133 724.118 14.827 738.386C13.4032 740.522 12.0105 742.688 10.7724 744.978C-0.556123 765.622 -3.0014 789.392 3.90093 811.894Z" fill="#151516"/>
<path d="M675.824 497.291L665.255 462.165C594.349 483.444 513.326 474.712 448.581 438.767L430.777 470.813C478.113 497.094 531.498 510.545 585.08 510.545C615.629 510.545 646.235 506.165 675.824 497.291Z" fill="#151516"/>
</svg>
