<svg width="4616" height="2654" viewBox="0 0 4616 2654" fill="none" xmlns="http://www.w3.org/2000/svg">
<path d="M885.231 623.28C885.231 431.08 1522.23 275.28 2308 275.28C3093.77 275.28 3730.77 431.08 3730.77 623.28C3730.77 637.04 3727.49 650.6 3721.15 663.947H3966.47C3953.33 418.493 3215.85 220.613 2308 220.613C1400.15 220.613 662.669 418.493 649.527 663.947H894.854C888.506 650.6 885.231 637.04 885.231 623.28" fill="#F3686D"/>
<path d="M3357.25 1002.64L3495.95 853.6C3520.53 827.187 3519.05 785.84 3492.64 761.254L3199.6 488.547C3175.21 465.854 3138.11 465.4 3113.21 486.254C3241.91 606.12 3328.99 770.84 3352.47 945.333C3355 964.16 3356.71 983.387 3357.25 1002.64" fill="#853024"/>
<path d="M2834.56 784.894C2809.97 811.307 2811.47 852.653 2837.88 877.24L3130.91 1149.95C3157.32 1174.53 3198.67 1173.04 3223.25 1146.63L3357.25 1002.64C3356.71 983.387 3355 964.16 3352.47 945.333C3328.99 770.84 3241.91 606.12 3113.21 486.254C3111.15 487.987 3109.15 489.84 3107.27 491.867L2834.56 784.894" fill="#953928"/>
<path d="M1330.59 935.974L1469.28 786.934C1493.87 760.52 1492.39 719.174 1465.97 694.587L1172.94 421.88C1148.55 399.187 1111.45 398.734 1086.55 419.587C1215.24 539.454 1302.32 704.174 1325.8 878.667C1328.33 897.494 1330.03 916.72 1330.59 935.974Z" fill="#853024"/>
<path d="M807.89 718.227C783.308 744.641 784.793 785.987 811.209 810.574L1104.24 1083.28C1130.65 1107.87 1172 1106.37 1196.58 1079.96L1330.58 935.974C1330.03 916.72 1328.33 897.494 1325.79 878.667C1302.32 704.174 1215.24 539.454 1086.54 419.587C1084.48 421.32 1082.48 423.173 1080.6 425.2L807.89 718.227" fill="#F3686D"/>
<path d="M2918.59 745.307L3057.28 596.267C3081.87 569.853 3080.39 528.507 3053.97 503.92L2760.93 231.213C2736.55 208.52 2699.44 208.067 2674.55 228.92C2803.24 348.787 2890.32 513.507 2913.8 688C2916.33 706.827 2918.04 726.053 2918.59 745.307" fill="#853024"/>
<path d="M2395.89 527.56C2371.31 553.974 2372.8 595.32 2399.21 619.907L2692.24 892.613C2718.65 917.2 2760 915.707 2784.59 889.294L2918.59 745.307C2918.04 726.053 2916.33 706.827 2913.8 688C2890.32 513.507 2803.24 348.787 2674.55 228.92C2672.48 230.653 2670.48 232.507 2668.6 234.533L2395.89 527.56" fill="#953928"/>
<path d="M1316.43 780.827L1268.03 978.587C1259.45 1013.63 1280.91 1049 1315.96 1057.57L1704.78 1152.75C1737.14 1160.67 1769.76 1142.96 1781.33 1112.61C1610.5 1070.73 1454.16 969.4 1348.56 828.507C1337.17 813.32 1326.3 797.374 1316.43 780.827Z" fill="#955139"/>
<path d="M1878.95 715.987C1887.52 680.947 1866.07 645.573 1831.01 637L1442.2 541.84C1407.15 533.253 1371.77 554.72 1363.2 589.76L1316.43 780.827C1326.31 797.374 1337.17 813.32 1348.56 828.507C1454.16 969.4 1610.51 1070.73 1781.33 1112.61C1782.29 1110.09 1783.12 1107.49 1783.77 1104.81L1878.95 715.987" fill="#AA6345"/>
<path d="M1967.11 831.494L1918.71 1029.25C1910.12 1064.29 1931.59 1099.67 1966.63 1108.24L2355.45 1203.41C2387.81 1211.33 2420.43 1193.63 2432 1163.28C2261.17 1121.4 2104.83 1020.07 1999.23 879.173C1987.84 863.987 1976.97 848.04 1967.11 831.494" fill="#955139"/>
<path d="M2529.61 766.654C2538.19 731.614 2516.73 696.24 2481.68 687.667L2092.87 592.507C2057.81 583.92 2022.44 605.387 2013.87 640.427L1967.11 831.494C1976.97 848.041 1987.84 863.987 1999.23 879.174C2104.83 1020.07 2261.17 1121.4 2432 1163.28C2432.96 1160.76 2433.79 1158.16 2434.44 1155.48L2529.61 766.654" fill="#AA6345"/>
<path d="M2500.44 819.494L2452.04 1017.25C2443.45 1052.29 2464.92 1087.67 2499.96 1096.24L2888.79 1191.41C2921.15 1199.33 2953.76 1181.63 2965.33 1151.28C2794.51 1109.4 2638.16 1008.07 2532.56 867.173C2521.17 851.987 2510.31 836.04 2500.44 819.494Z" fill="#955139"/>
<path d="M3062.95 754.654C3071.52 719.614 3050.07 684.24 3015.01 675.667L2626.2 580.507C2591.15 571.92 2555.77 593.387 2547.2 628.427L2500.44 819.494C2510.31 836.041 2521.17 851.987 2532.56 867.174C2638.16 1008.07 2794.51 1109.4 2965.33 1151.28C2966.29 1148.76 2967.12 1146.16 2967.77 1143.48L3062.95 754.654" fill="#AA6345"/>
<path d="M2308.32 2521.2C1074.54 2521.2 66.927 2270.83 3.99575 1955.85C1.92595 1967.36 2.04679 1979.01 0.871786 1990.6C-34.8813 2343.05 1033.95 2653.28 2308.32 2653.28C3582.69 2653.28 4633.65 2366.09 4615.77 1990.6C4615.23 1978.96 4614.72 1967.36 4612.65 1955.85C4549.72 2270.83 3542.11 2521.2 2308.32 2521.2Z" fill="#ED1C24"/>
<path d="M2308.32 2521.2C3542.11 2521.2 4549.72 2270.83 4612.65 1955.85C4549.72 1606.01 3542.11 1327.92 2308.32 1327.92C1074.54 1327.92 66.9273 1606.01 3.99609 1955.85C66.9273 2270.83 1074.54 2521.2 2308.32 2521.2Z" fill="#F3686D"/>
<path d="M3649.68 929.413L3893.33 2181.11C4014.77 2143.75 4126.07 2103.48 4224.33 2061.24L3831.03 842.947C3782.28 873.693 3721.28 902.667 3649.68 929.413" fill="#B2151B"/>
<path d="M2306.7 1115.28C1703.83 1115.28 1176.09 1028.01 885.699 897.507C930.051 1622.71 1860.55 2220.31 3088.35 2359.37C3380.98 2315.75 3656.46 2253.97 3893.34 2181.11L3649.68 929.413C3348.22 1042.04 2858.99 1115.28 2306.7 1115.28" fill="#ED1C24"/>
<path d="M3831.03 842.947L4224.33 2061.24C4274.51 2039.68 4321.29 2017.6 4364.29 1995.13C4393.48 1979.88 4407.05 1945.51 4396.32 1914.37L3965.36 664.613H3965.35C3965.35 664.84 3965.36 665.053 3965.36 665.28C3965.36 728.387 3917.47 788.44 3831.03 842.947Z" fill="#ED1C24"/>
<path d="M3088.34 2359.37C1860.54 2220.31 930.048 1622.71 885.696 897.507C734.842 829.707 648.026 750.24 648.026 665.28C648.026 665.053 648.041 664.84 648.042 664.613H648.026L233.99 1907.28C223.584 1938.52 237.504 1972.73 266.83 1987.69C1103.97 2414.72 2056.65 2513.2 3088.34 2359.37" fill="#B2151B"/>
<path d="M2308 275.28C1522.23 275.28 885.23 431.08 885.23 623.28C885.23 641.307 890.832 659 901.63 676.28C1006 553.414 1595.91 459.28 2308 459.28C3020.09 459.28 3610 553.414 3714.37 676.28C3725.17 659 3730.77 641.307 3730.77 623.28C3730.77 431.08 3093.77 275.28 2308 275.28Z" fill="#B2151B"/>
<path d="M2586.21 1930.64C2586.21 1776.87 2461.44 1652.23 2307.61 1652.43C2154.41 1652.64 2029.43 1778.13 2029.79 1931.33C2029.85 1957.8 2033.61 1983.39 2040.59 2007.63C2048.79 2036.15 2074.96 2055.73 2104.63 2055.73H2511.37C2541.15 2055.73 2567.29 2035.99 2575.49 2007.36C2582.47 1982.99 2586.21 1957.25 2586.21 1930.64Z" fill="white"/>
<path d="M2266.77 1456.73C2277.8 1542.11 2244.8 1616.71 2193.08 1623.39C2141.37 1630.05 2090.52 1566.27 2079.51 1480.89C2068.49 1395.53 2101.48 1320.92 2153.2 1314.24C2204.92 1307.57 2255.76 1371.36 2266.77 1456.73" fill="white"/>
<path d="M2022.52 1583.31C2047.8 1652.15 2034.47 1720.36 1992.77 1735.67C1951.07 1750.97 1896.77 1707.57 1871.51 1638.73C1846.24 1569.89 1859.56 1501.68 1901.27 1486.37C1942.97 1471.07 1997.25 1514.47 2022.52 1583.31Z" fill="white"/>
<path d="M2349.23 1456.73C2338.2 1542.11 2371.2 1616.71 2422.92 1623.39C2474.63 1630.05 2525.48 1566.27 2536.49 1480.89C2547.51 1395.53 2514.52 1320.92 2462.8 1314.24C2411.08 1307.57 2360.24 1371.36 2349.23 1456.73" fill="white"/>
<path d="M2593.48 1583.31C2568.21 1652.15 2581.53 1720.36 2623.23 1735.67C2664.93 1750.97 2719.23 1707.57 2744.49 1638.73C2769.76 1569.89 2756.44 1501.68 2714.73 1486.37C2673.03 1471.07 2618.75 1514.47 2593.48 1583.31" fill="white"/>
<path d="M1995.53 178.867L1854.68 325.88C1829.71 351.934 1830.6 393.294 1856.65 418.254L2145.68 695.2C2169.73 718.24 2206.83 719.24 2232.03 698.747C2105.09 577.027 2020.43 411.054 1999.49 236.24C1997.23 217.387 1995.8 198.134 1995.53 178.867" fill="#853024"/>
<path d="M2515 404.187C2539.96 378.134 2539.08 336.774 2513.03 311.814L2224 34.8669C2197.95 9.9069 2156.59 10.787 2131.62 36.8403L1995.54 178.867C1995.8 198.134 1997.23 217.387 1999.5 236.24C2020.43 411.054 2105.1 577.027 2232.03 698.747C2234.12 697.054 2236.15 695.214 2238.07 693.227L2515 404.187Z" fill="#953928"/>
<path d="M2349 527.894L2474.8 687.973C2497.09 716.347 2538.17 721.267 2566.55 698.973L2881.28 451.64C2907.47 431.053 2913.67 394.467 2896.91 366.64C2758.57 475.253 2582.37 535.814 2406.35 532.027C2387.36 531.614 2368.11 530.334 2349 527.894Z" fill="#955139"/>
<path d="M2644.94 45.1606C2622.64 16.7873 2581.56 11.8673 2553.2 34.1606L2238.46 281.494C2210.1 303.801 2205.16 344.867 2227.46 373.24L2349 527.894C2368.11 530.334 2387.36 531.614 2406.35 532.027C2582.38 535.814 2758.58 475.254 2896.91 366.64C2895.52 364.334 2893.99 362.067 2892.28 359.894L2644.94 45.1606Z" fill="#AA6345"/>
<path d="M2714.75 164.373L2575.68 313.08C2551.03 339.427 2552.41 380.773 2578.77 405.427L2871.13 678.84C2895.47 701.6 2932.57 702.147 2957.52 681.347C2829.12 561.16 2742.44 396.24 2719.39 221.68C2716.91 202.867 2715.25 183.626 2714.75 164.373" fill="#BC6827"/>
<path d="M3236.91 383.387C3261.55 357.027 3260.17 315.68 3233.81 291.027L2941.44 17.6133C2915.09 -7.02669 2873.75 -5.64013 2849.09 20.7065L2714.75 164.373C2715.25 183.627 2716.91 202.867 2719.39 221.68C2742.44 396.24 2829.12 561.16 2957.52 681.347C2959.6 679.627 2961.6 677.773 2963.49 675.747L3236.91 383.387" fill="#D78A34"/>
<path d="M1281.23 414.213L1234.08 612.266C1225.73 647.373 1247.41 682.6 1282.51 690.96L1671.93 783.653C1704.33 791.373 1736.84 773.467 1748.21 743.053C1577.13 702.24 1420.15 601.907 1313.66 461.694C1302.17 446.574 1291.21 430.68 1281.23 414.213" fill="#BC6827"/>
<path d="M1843.32 345.814C1851.68 310.707 1829.99 275.48 1794.89 267.12L1405.48 174.427C1370.37 166.067 1335.13 187.747 1326.78 222.854L1281.23 414.214C1291.21 430.68 1302.17 446.574 1313.66 461.694C1420.15 601.907 1577.13 702.24 1748.21 743.054C1749.16 740.52 1749.97 737.92 1750.61 735.227L1843.32 345.814" fill="#D78A34"/>
<path d="M2643.19 587.666L2594.8 418.387C2583.64 379.347 2542.96 356.747 2503.92 367.907L2126.89 475.653C2098.41 483.8 2079.8 509.613 2079.52 537.8C2079.47 543.213 2084.59 547.2 2089.81 545.787C2256.39 500.6 2438.45 512.04 2596.96 580.773C2608.57 585.813 2620.16 591.266 2631.56 597.133C2637.93 600.426 2645.15 594.56 2643.19 587.666Z" fill="#BC6827"/>
<path d="M2189.77 933.453C2200.93 972.493 2241.63 995.093 2280.67 983.933L2649.83 878.427C2688.85 867.28 2711.47 826.587 2700.31 787.547L2649.43 609.533C2648.84 607.453 2647.44 605.68 2645.55 604.627C2629.69 595.814 2613.36 587.893 2596.96 580.773C2437.79 511.747 2254.84 500.507 2087.71 546.36C2083.39 547.547 2080.77 552.04 2082 556.347C2082.01 556.373 2082.03 556.4 2082.03 556.427L2189.77 933.453" fill="#D78A34"/>
<path d="M3437.29 844.747L3612.37 863.307C3652.75 867.6 3688.95 838.334 3693.23 797.96L3734.57 408.027C3737.69 378.574 3720.72 351.64 3694.71 340.827C3689.71 338.747 3684.08 342 3683.44 347.387C3662.93 518.747 3584.11 683.267 3460.99 804.48C3451.97 813.36 3442.59 822.054 3432.87 830.427C3427.43 835.107 3430.16 843.987 3437.29 844.747" fill="#BC6827"/>
<path d="M3286.56 294.827C3246.17 290.547 3209.97 319.8 3205.69 360.173L3165.21 741.973C3160.93 782.347 3190.19 818.547 3230.56 822.827L3414.68 842.347C3416.83 842.573 3419 841.947 3420.68 840.587C3434.79 829.2 3448.25 817.027 3460.99 804.48C3584.63 682.76 3663.6 517.346 3683.69 345.2C3684.21 340.746 3681.03 336.653 3676.56 336.173C3676.53 336.173 3676.51 336.173 3676.48 336.173L3286.56 294.827" fill="#D78A34"/>
<path d="M3506.42 569.547L3589.91 383.854C3604.71 350.947 3590.03 312.267 3557.11 297.467L3192.03 133.32C3161.64 119.654 3126.35 131.134 3109.47 158.88C3269.84 231.08 3405.22 359.107 3483.48 516.814C3491.92 533.827 3499.71 551.48 3506.42 569.547Z" fill="#853024"/>
<path d="M2941.49 531.2C2926.69 564.107 2941.37 602.787 2974.28 617.587L3339.37 781.733C3372.28 796.533 3410.96 781.853 3425.74 748.947L3506.41 569.547C3499.7 551.48 3491.92 533.827 3483.48 516.813C3405.21 359.107 3269.84 231.08 3109.46 158.88C3108.06 161.187 3106.77 163.587 3105.64 166.12L2941.49 531.2" fill="#953928"/>
<path d="M1706.89 781.267L1779.29 971.561C1792.12 1005.28 1829.87 1022.21 1863.59 1009.39L2237.72 867.04C2268.85 855.2 2285.67 822.107 2277.96 790.561C2113.56 853.027 1927.32 858.347 1760.4 802.294C1742.41 796.254 1724.4 789.28 1706.89 781.267Z" fill="#853024"/>
<path d="M2133.2 408.614C2120.37 374.894 2082.63 357.947 2048.91 370.787L1674.77 513.12C1641.05 525.96 1624.11 563.707 1636.95 597.427L1706.89 781.267C1724.4 789.28 1742.41 796.254 1760.4 802.294C1927.32 858.347 2113.56 853.027 2277.96 790.561C2277.32 787.934 2276.53 785.334 2275.55 782.747L2133.2 408.614Z" fill="#953928"/>
<path d="M992.559 773.147L1129.03 924.227C1153.22 951 1194.53 953.107 1221.31 928.92L1518.36 660.6C1543.08 638.267 1546.75 601.334 1528.13 574.72C1397.57 692.56 1225.93 765.053 1050.06 773.333C1031.09 774.227 1011.79 774.253 992.559 773.147" fill="#955139"/>
<path d="M1254.73 271.267C1230.55 244.48 1189.23 242.387 1162.45 266.573L865.401 534.894C838.623 559.08 836.523 600.4 860.711 627.173L992.559 773.147C1011.79 774.253 1031.09 774.227 1050.06 773.333C1225.94 765.053 1397.57 692.56 1528.13 574.72C1526.59 572.52 1524.91 570.374 1523.05 568.32L1254.73 271.267Z" fill="#AA6345"/>
<path d="M2879.12 703.667L2964.73 888.387C2979.91 921.133 3018.75 935.373 3051.48 920.2L3414.67 751.866C3444.89 737.853 3459.33 703.68 3449.43 672.747C3289.83 746.627 3104.43 765.053 2933.99 720.88C2915.6 716.12 2897.16 710.44 2879.12 703.667Z" fill="#955139"/>
<path d="M3278.15 301.933C3262.97 269.186 3224.13 254.96 3191.39 270.133L2828.21 438.453C2795.47 453.627 2781.23 492.466 2796.4 525.213L2879.12 703.666C2897.16 710.44 2915.6 716.12 2933.99 720.88C3104.43 765.053 3289.83 746.626 3449.43 672.746C3448.6 670.173 3447.64 667.627 3446.47 665.12L3278.15 301.933Z" fill="#AA6345"/>
<path d="M3721.15 663.947C3719.17 668.08 3716.92 672.2 3714.37 676.28C3725.17 689 3730.77 702.027 3730.77 715.28C3730.77 856.667 3093.77 971.28 2308 971.28C1522.23 971.28 885.231 856.667 885.231 715.28C885.231 702.027 890.832 689 901.631 676.28C899.076 672.2 896.821 668.08 894.853 663.947H649.527C649.409 666.16 649.332 668.387 649.332 670.613C649.332 919.147 1391.95 1120.61 2308 1120.61C3224.05 1120.61 3966.67 919.147 3966.67 670.613C3966.67 668.387 3966.59 666.16 3966.47 663.947H3721.15Z" fill="#F3686D"/>
<path d="M901.63 676.28C890.832 689 885.23 702.027 885.23 715.28C885.23 856.667 1522.23 971.28 2308 971.28C1595.91 971.28 1006 843.32 901.63 676.28Z" fill="#F3686D"/>
<path d="M2308 971.28C3093.77 971.28 3730.77 856.667 3730.77 715.28C3730.77 702.027 3725.17 689 3714.37 676.28C3610 843.32 3020.09 971.28 2308 971.28Z" fill="#F3686D"/>
</svg>
