<svg width="4616" height="2433" viewBox="0 0 4616 2433" fill="none" xmlns="http://www.w3.org/2000/svg">
<path d="M2308.32 2300.87C1074.54 2300.87 66.927 2050.49 3.99575 1735.52C1.92595 1747.03 2.04679 1758.68 0.871786 1770.27C-34.8813 2122.72 1033.95 2432.95 2308.32 2432.95C3582.69 2432.95 4633.65 2145.76 4615.77 1770.27C4615.23 1758.63 4614.72 1747.03 4612.65 1735.52C4549.72 2050.49 3542.11 2300.87 2308.32 2300.87Z" fill="#ED1C24"/>
<path d="M2308.32 2300.87C3542.11 2300.87 4549.72 2050.49 4612.65 1735.52C4549.72 1385.68 3542.11 1107.59 2308.32 1107.59C1074.54 1107.59 66.9273 1385.68 3.99609 1735.52C66.9273 2050.49 1074.54 2300.87 2308.32 2300.87Z" fill="#F3686D"/>
<path d="M3649.68 709.08L3893.33 1960.77C4014.77 1923.41 4126.07 1883.15 4224.33 1840.91L3831.03 622.613C3782.28 653.36 3721.28 682.333 3649.68 709.08" fill="#B2151B"/>
<path d="M2306.7 894.947C1703.83 894.947 1176.09 807.68 885.699 677.173C930.051 1402.37 1860.55 1999.97 3088.35 2139.04C3380.98 2095.41 3656.46 2033.64 3893.34 1960.77L3649.68 709.08C3348.22 821.707 2858.99 894.947 2306.7 894.947" fill="#ED1C24"/>
<path d="M3831.03 622.613L4224.33 1840.91C4274.51 1819.35 4321.29 1797.27 4364.29 1774.8C4393.48 1759.55 4407.05 1725.17 4396.32 1694.04L3965.36 444.28H3965.35C3965.35 444.507 3965.36 444.72 3965.36 444.947C3965.36 508.053 3917.47 568.107 3831.03 622.613Z" fill="#ED1C24"/>
<path d="M3088.34 2139.04C1860.54 1999.97 930.048 1402.37 885.696 677.174C734.842 609.374 648.026 529.907 648.026 444.947C648.026 444.72 648.041 444.507 648.042 444.28H648.026L233.99 1686.95C223.584 1718.19 237.504 1752.4 266.83 1767.36C1103.97 2194.39 2056.65 2292.87 3088.34 2139.04Z" fill="#B2151B"/>
<path d="M3730.77 494.947C3730.77 636.333 3093.77 750.947 2308 750.947C1522.23 750.947 885.231 636.333 885.231 494.947C885.231 481.693 890.832 468.667 901.631 455.947C890.832 438.667 885.231 420.973 885.231 402.947C885.231 210.747 1522.23 54.9467 2308 54.9467C3093.77 54.9467 3730.77 210.747 3730.77 402.947C3730.77 420.973 3725.17 438.667 3714.37 455.947C3725.17 468.667 3730.77 481.693 3730.77 494.947ZM2308 0.279982C1391.95 0.279982 649.332 201.747 649.332 450.28C649.332 698.813 1391.95 900.28 2308 900.28C3224.05 900.28 3966.67 698.813 3966.67 450.28C3966.67 201.747 3224.05 0.279982 2308 0.279982Z" fill="#F3686D"/>
<path d="M2308 54.9468C1522.23 54.9468 885.23 210.747 885.23 402.947C885.23 420.973 890.832 438.667 901.63 455.947C1006 333.08 1595.91 238.947 2308 238.947C3020.09 238.947 3610 333.08 3714.37 455.947C3725.17 438.667 3730.77 420.973 3730.77 402.947C3730.77 210.747 3093.77 54.9468 2308 54.9468Z" fill="#B2151B"/>
<path d="M901.63 455.947C890.832 468.667 885.23 481.693 885.23 494.947C885.23 636.333 1522.23 750.947 2308 750.947C1595.91 750.947 1006 622.987 901.63 455.947Z" fill="#F3686D"/>
<path d="M2308 750.947C3093.77 750.947 3730.77 636.333 3730.77 494.947C3730.77 481.693 3725.17 468.667 3714.37 455.947C3610 622.987 3020.09 750.947 2308 750.947Z" fill="#F3686D"/>
<path d="M2308 238.947C1595.91 238.947 1006 333.08 901.633 455.947C1006 622.987 1595.91 750.947 2308 750.947C3020.09 750.947 3610 622.987 3714.37 455.947C3610 333.08 3020.09 238.947 2308 238.947Z" fill="#1CC4EB"/>
<path d="M3613.84 476.707C3529.57 377.213 3045.88 294.547 2460.63 285.547C2073.45 279.6 1729.73 307.24 1516.13 354.667C1720.43 327.573 1984.53 313.387 2272.69 317.827C2857.95 326.827 3341.64 409.493 3425.91 508.987C3385.53 569.72 3260.97 622.56 3081.33 661.053C3360.81 623.213 3560.59 556.827 3613.84 476.707" fill="#81DEF4"/>
<path d="M2586.21 1710.31C2586.21 1556.53 2461.44 1431.89 2307.61 1432.09C2154.41 1432.31 2029.43 1557.8 2029.79 1711C2029.85 1737.47 2033.61 1763.05 2040.59 1787.29C2048.79 1815.81 2074.96 1835.4 2104.63 1835.4H2511.37C2541.15 1835.4 2567.29 1815.65 2575.49 1787.03C2582.47 1762.65 2586.21 1736.92 2586.21 1710.31" fill="white"/>
<path d="M2266.77 1236.4C2277.8 1321.76 2244.8 1396.37 2193.08 1403.05C2141.37 1409.72 2090.52 1345.93 2079.51 1260.56C2068.49 1175.2 2101.48 1100.59 2153.2 1093.91C2204.92 1087.24 2255.76 1151.03 2266.77 1236.4Z" fill="white"/>
<path d="M2022.52 1362.97C2047.8 1431.81 2034.47 1500.03 1992.77 1515.33C1951.07 1530.64 1896.77 1487.24 1871.51 1418.4C1846.24 1349.56 1859.56 1281.35 1901.27 1266.04C1942.97 1250.73 1997.25 1294.13 2022.52 1362.97" fill="white"/>
<path d="M2349.23 1236.4C2338.2 1321.76 2371.2 1396.37 2422.92 1403.05C2474.63 1409.72 2525.48 1345.93 2536.49 1260.56C2547.51 1175.2 2514.52 1100.59 2462.8 1093.91C2411.08 1087.24 2360.24 1151.03 2349.23 1236.4Z" fill="white"/>
<path d="M2593.48 1362.97C2568.21 1431.81 2581.53 1500.03 2623.23 1515.33C2664.93 1530.64 2719.23 1487.24 2744.49 1418.4C2769.76 1349.56 2756.44 1281.35 2714.73 1266.04C2673.03 1250.73 2618.75 1294.13 2593.48 1362.97" fill="white"/>
</svg>
