<svg width="809" height="841" viewBox="0 0 809 841" fill="none" xmlns="http://www.w3.org/2000/svg">
<path d="M767.404 82.9538C775.885 69.6643 772.591 52.1676 759.879 43.1075C753.223 38.3438 745.098 36.5406 737.084 38.1211C729.247 39.6348 722.613 44.1093 718.384 50.7207C696.078 85.6251 683.032 115.766 677.333 145.595C669.942 184.373 674.929 221.971 679.737 258.344C681.897 274.572 683.923 289.909 684.88 305.225C689.243 375.457 661.906 468.928 592.605 515.386C606.764 529.477 619.297 544.636 630.094 560.73C706.028 506.971 750.04 407.957 743.428 301.596C742.36 284.278 740.089 267.182 737.907 250.664C733.499 217.407 729.359 186.042 734.991 156.591C739.221 134.286 749.528 110.891 767.404 82.9538" fill="#9CA6FF"/>
<path d="M238.014 370.634C257.59 370.634 273.467 381.859 273.467 395.684C273.467 409.551 257.59 420.755 238.014 420.755C218.417 420.755 202.561 409.551 202.561 395.684C202.561 381.859 218.417 370.634 238.014 370.634ZM301.605 449.336C289.872 431.029 303.021 419.212 338.241 419.212C373.462 419.212 386.632 431.029 374.899 449.336C370.269 456.544 363.842 461.681 356.655 464.915L397.139 499.013L373.482 527.065L337.861 497.047L299.279 527.446L276.596 498.654L319.553 464.789C312.471 461.554 306.171 456.46 301.605 449.336V449.336ZM432.38 370.634C451.956 370.634 467.833 381.859 467.833 395.684C467.833 409.551 451.956 420.755 432.38 420.755C412.783 420.755 396.927 409.551 396.927 395.684C396.927 381.859 412.783 370.634 432.38 370.634ZM117.852 346.788C124.13 351.566 126.646 359.789 124.13 367.251C92.7364 460.223 112.947 525.903 182.563 557.147C292.916 606.697 499.839 589.701 539.414 508.78C576.41 433.101 540.746 350.467 540.387 349.642C537.512 343.131 538.675 335.521 543.368 330.152C574.212 294.912 571.992 245.657 567.891 219.276L426.059 265.338C422.613 266.459 418.892 266.543 415.425 265.55C330.081 241.472 255.434 265.106 254.694 265.338C251.903 266.247 248.944 266.48 246.047 265.994L88.6776 239.95C67.6851 307.554 117.323 346.387 117.852 346.788" fill="#9CA6FF"/>
<path d="M564.109 538.697C524.541 595.939 428.505 621.029 334.292 621.029C272.311 621.029 211.185 610.182 167.542 590.603C147.147 581.444 122.483 566.193 103.408 541.588C78.4911 566.445 59.3768 594.853 46.6663 626.404C30.3465 666.881 35.0037 710.871 59.4738 747.118C84.0021 783.443 123.181 804.283 167.018 804.283H328.548H341.841C355.89 804.283 367.3 792.854 367.3 778.825C367.3 767.434 359.674 757.364 348.729 754.298L197.95 711.919L207.866 676.603L335.204 712.385L462.542 676.603L472.458 711.919L386.764 736C397.514 747.293 403.996 762.486 403.996 778.805C403.996 787.887 401.978 796.502 398.465 804.283H503.39C547.207 804.283 586.406 783.443 610.934 747.118C635.385 710.871 640.061 666.881 623.742 626.404C610.527 593.63 590.5 564.213 564.109 538.697" fill="#9CA6FF"/>
<path d="M247.901 229.111C266.321 223.96 337.732 207.163 419.944 228.765L432.629 224.631C437.694 215.8 440.508 205.886 440.508 195.54C440.508 163.202 414.186 136.86 381.847 136.86H271.82C239.459 136.86 213.137 163.202 213.137 195.54C213.137 205.929 215.929 215.821 221.038 224.674L247.901 229.111Z" fill="#1451AC"/>
<path d="M238.01 420.747C257.596 420.747 273.462 409.53 273.462 395.686C273.462 381.841 257.596 370.624 238.01 370.624C218.445 370.624 202.559 381.841 202.559 395.686C202.559 409.53 218.445 420.747 238.01 420.747Z" fill="#151516"/>
<path d="M432.389 420.747C451.955 420.747 467.841 409.53 467.841 395.686C467.841 381.841 451.955 370.624 432.389 370.624C412.804 370.624 396.938 381.841 396.938 395.686C396.938 409.53 412.804 420.747 432.389 420.747Z" fill="#151516"/>
<path d="M299.296 527.43L337.869 497.023L373.495 527.051L397.153 499.014L356.667 464.883C363.856 461.678 370.289 456.54 374.909 449.331C386.658 431.012 373.475 419.203 338.267 419.203C303.039 419.203 289.876 431.012 301.626 449.331C306.186 456.44 312.498 461.538 319.568 464.764L276.594 498.636L299.296 527.43" fill="#151516"/>
<path d="M737.903 250.662C740.085 267.194 742.357 284.289 743.437 301.586C750.028 407.954 706.029 506.968 630.09 560.748C619.293 544.621 606.763 529.483 592.592 515.38C661.919 468.932 689.226 375.452 684.885 305.23C683.918 289.912 681.893 274.572 679.734 258.355C674.92 221.984 669.927 184.376 677.327 145.598C683.018 115.773 696.064 85.6327 718.401 50.7239C722.63 44.1111 729.243 39.635 737.071 38.128C745.101 36.531 753.222 38.3303 759.88 43.0988C772.589 52.1634 775.896 69.6628 767.393 82.9561C749.533 110.892 739.23 134.285 734.979 156.575C729.356 186.04 733.517 217.418 737.903 250.662ZM610.925 747.123C586.384 783.471 547.199 804.3 503.359 804.3H398.447C401.979 796.517 403.98 787.902 403.98 778.815C403.98 762.508 397.502 747.303 386.75 736.011L472.452 711.944L462.532 676.63L335.194 712.394L207.856 676.63L197.936 711.944L348.735 754.298C359.645 757.38 367.293 767.456 367.293 778.838C367.293 792.873 355.866 804.3 341.83 804.3H328.536H167.007C123.188 804.3 83.9814 783.471 59.4629 747.123C34.9895 710.887 30.3332 666.914 46.6638 626.404C59.3729 594.869 78.4703 566.461 103.394 541.606C122.468 566.213 147.144 581.464 167.546 590.618C211.185 610.209 272.301 621.028 334.294 621.028C428.499 621.028 524.526 595.972 564.092 538.705C590.478 564.234 610.498 593.655 623.724 626.404C640.055 666.914 635.376 710.887 610.925 747.123ZM88.6601 239.956L246.028 266.002C248.929 266.475 251.899 266.25 254.688 265.35C255.43 265.102 330.088 241.485 415.407 265.552C418.894 266.542 422.605 266.475 426.07 265.35L567.894 219.285C571.988 245.646 574.192 294.928 543.353 330.174C538.674 335.527 537.505 343.13 540.384 349.653C540.744 350.463 576.397 433.101 539.417 508.767C499.827 589.718 292.928 606.701 182.55 557.149C112.931 525.907 92.7314 460.228 124.11 367.265C126.63 359.797 124.11 351.565 117.857 346.796C117.317 346.392 67.6732 307.569 88.6601 239.956ZM271.806 136.871H381.824C414.17 136.871 440.511 163.21 440.511 195.555C440.511 205.902 437.699 215.821 432.615 224.661L419.929 228.777C337.736 207.184 266.317 223.986 247.872 229.137L221.015 224.683C215.931 215.843 213.119 205.947 213.119 195.555C213.119 163.21 239.46 136.871 271.806 136.871ZM774.276 245.826C770.272 215.618 766.493 187.097 770.992 163.458C774.344 145.913 783.026 126.592 798.3 102.682C817.307 72.9693 809.794 33.6518 781.182 13.2509C766.471 2.74672 747.868 -1.32451 730.098 2.11688C712.35 5.53579 697.189 15.7925 687.494 30.9751C662.571 69.9326 647.905 104.189 641.314 138.716C632.812 183.319 638.187 223.918 643.384 263.146C645.453 278.756 647.388 293.466 648.287 307.501C651.594 360.899 634.071 429.727 589.601 471.182C599.183 416.097 585.462 366.59 578.039 345.492C625.951 280.578 600.285 194.003 599.116 190.202C597.676 185.501 594.414 181.564 590.051 179.293C585.687 177.021 580.581 176.593 575.924 178.123L475.984 210.58C476.771 205.632 477.176 200.638 477.176 195.555C477.176 142.989 434.415 100.23 381.824 100.23H345.159V66.2888H308.494V100.23H271.806C219.215 100.23 176.454 142.989 176.454 195.555C176.454 203.135 177.354 210.535 179.063 217.733L79.7299 201.313C71.3846 199.941 63.2193 204.417 59.8902 212.177C28.9835 284.289 59.1479 340.588 85.6458 367.152C66.9308 428.85 70.4625 474.803 84.4763 508.879C52.5798 538.772 28.3987 573.614 12.6305 612.706C-7.99652 663.922 -1.87816 721.841 29.051 767.659C60.0477 813.544 111.626 840.963 167.007 840.963H328.536H341.83H503.359C558.761 840.963 610.318 813.544 641.314 767.659C672.244 721.841 678.384 663.922 657.735 612.706C654.968 605.868 651.864 599.188 648.602 592.62C736.419 531.957 787.502 419.56 780.034 299.314C778.887 280.735 776.548 263.011 774.276 245.826Z" fill="#151516"/>
</svg>
