<svg width="2206" height="1891" viewBox="0 0 2206 1891" fill="none" xmlns="http://www.w3.org/2000/svg">
<path d="M1615.55 499.925C1608.64 504.987 1600.78 507.461 1592.92 507.861L1618.39 554.295L1586.22 571.936L1563.82 531.078L1516.87 545.541L1506.08 510.487L1558.36 494.368C1552.94 488.811 1548.88 481.789 1547.19 473.511C1542.85 452.216 1559.37 445.936 1592.24 458.629C1625.09 471.323 1633.1 487.08 1615.55 499.925ZM1539.65 671.732C1474.07 671.732 1408.28 640.033 1367.53 588.645L1396.27 565.847C1430.58 609.141 1486.29 635.631 1541.48 635.041L1541.88 671.718C1541.14 671.732 1540.4 671.732 1539.65 671.732ZM1474.15 387.779C1479.13 374.857 1497.97 370.119 1516.24 377.179C1534.51 384.239 1545.27 400.434 1540.28 413.337C1535.3 426.24 1516.43 430.997 1498.18 423.918C1479.91 416.876 1469.16 400.682 1474.15 387.779ZM1244.1 1022.8L1208.98 1019.57L1205.73 1054.68L1169.21 1051.31L1172.46 1016.2L1137.35 1012.95L1140.72 976.437L1175.83 979.682L1179.07 944.584L1215.59 947.941L1212.35 983.054L1247.44 986.297L1244.1 1022.8ZM1655.44 457.849C1660.43 444.927 1679.29 440.189 1697.54 447.249C1715.81 454.309 1726.56 470.504 1721.57 483.407C1716.59 496.309 1697.75 501.067 1679.48 493.988C1661.21 486.947 1650.45 470.751 1655.44 457.849ZM2080.09 811.088C1801.62 787.393 1655.08 749.372 1644.55 698.066C1642.5 687.997 1643.39 668.782 1672.49 653.278C1768.26 602.252 1760.44 526.397 1760.06 523.199C1759.01 514.312 1764.51 505.825 1773.09 503.313C1776.18 502.361 1845.74 480.343 1854.6 400.567L1770.96 398.284C1766.28 398.17 1761.81 396.247 1758.5 392.917C1661.05 295.5 1535.35 305.263 1534.1 305.377C1526.24 306.024 1518.72 301.59 1515.6 294.302L1478.41 207.238C1405.08 241.416 1406.89 314.854 1407 318.166C1407.27 325.188 1403.5 331.83 1397.3 335.122C1393.59 337.12 1305.38 386.961 1334.19 524.703L1298.3 532.201C1269.71 395.581 1343.19 328.613 1370.43 309.012C1372.54 268.154 1396.16 199.378 1475.21 168.986C1488.12 143.657 1510.5 87.7075 1496.45 57.4681C1493.29 50.6553 1486.73 41.121 1466.44 37.1056C1453.63 34.5175 1438.14 44.4703 1427.43 53.2434C1339.56 125.083 1234.29 374.933 1216.88 602.727L1234.41 607.656C1195.85 744.822 1099.51 827.182 931.253 866.858C858.58 883.98 785.754 871.564 715.329 859.541L696.141 856.283C539.279 830.048 363.152 1012.94 361.39 1014.79C356.276 1020.16 348.416 1021.93 341.495 1019.25L290.097 999.388C263.797 989.22 234.639 994.05 213.229 1011.1L347.054 1149.68L508.575 1095.44C611.334 1060.93 723.067 1070.03 815.108 1120.41C817.666 1121.8 820.194 1123.45 823.086 1125.58C828.537 1129.58 831.346 1136.26 830.391 1142.94C829.449 1149.64 824.885 1155.26 818.536 1157.59C713.334 1196 629.706 1264.57 583.06 1350.67C556.106 1400.41 541.863 1454.56 528.084 1506.92C524.293 1521.33 520.023 1537.58 515.655 1552.84C500.12 1607.09 475.864 1674.73 425.654 1716.66C399.248 1738.73 364.683 1754.98 316.88 1767.8C237.758 1789.04 153.171 1793.25 72.2822 1779.99C56.9334 1777.52 41.8224 1786.48 37.8506 1800.48C33.6542 1815.27 41.2039 1830.55 55.4071 1836.05C57.2588 1836.76 59.2077 1837.3 61.1983 1837.63C150.764 1852.55 244.444 1848 332.089 1824.46C388.407 1809.36 430.09 1789.42 463.267 1761.71C525.74 1709.52 554.224 1631.3 572.062 1568.98C576.557 1553.28 580.756 1537.32 584.815 1521.9C598.299 1470.64 611.039 1422.2 634.651 1378.62C677.601 1299.35 756.876 1238.08 857.878 1206.14C867.177 1203.21 877.149 1208.07 880.576 1217.2C896.742 1260.38 907.951 1309.09 913.05 1340.29C933.332 1464.23 855.082 1705.56 832.286 1772.04L1030.41 1848.62C1040.14 1815.81 1035.91 1780.1 1018.17 1750.24L1014.04 1743.29C1010.88 1737.96 1010.62 1731.37 1013.38 1725.79L1095.99 1558.88C1117.54 1515.36 1135.43 1465.12 1150.63 1405.26C1165.29 1347.69 1204.55 1299.2 1258.35 1272.25C1436.98 1182.74 1606.13 931.691 1629.71 849.668C1631.19 844.471 1634.89 840.216 1639.82 837.997C1644.74 835.791 1650.4 835.875 1655.27 838.208C1763.54 890.245 1958.36 909.372 2093.49 905.088C2138.57 903.684 2168.07 888.979 2168.66 867.659C2169.27 844.121 2135.6 815.805 2080.09 811.088Z" fill="#FFBA52"/>
<path d="M351.518 999.623L426.698 1131.62L351.518 1168.29L190.098 999.623C190.098 999.623 258.002 942.811 351.518 999.623Z" fill="#F3EEE0"/>
<path d="M838.415 1685.16L1028.13 1733.02C1028.13 1733.02 1072.14 1839.37 1048.3 1870.54L811.77 1775.88L838.415 1685.16Z" fill="#F3EEE0"/>
<path d="M2010.97 790.582V929.388C2010.97 929.388 2203.5 934.881 2188.82 859.978C2174.15 785.077 2010.97 790.582 2010.97 790.582Z" fill="#F3EEE0"/>
<path d="M2083.3 884.767C2068.63 893.771 2049.43 889.177 2040.42 874.5C2031.42 859.837 2036.02 840.639 2050.7 831.635C2065.37 822.632 2084.57 827.226 2093.58 841.903C2102.58 856.579 2097.98 875.764 2083.3 884.767Z" fill="#F68CA8"/>
<path d="M2121.87 837.359C2117.13 840.253 2110.96 838.779 2108.05 834.045C2105.15 829.311 2106.64 823.133 2111.37 820.224C2116.1 817.331 2122.28 818.806 2125.19 823.538C2128.08 828.272 2126.6 834.452 2121.87 837.359Z" fill="#F68CA8"/>
<path d="M2134.68 865.03C2129.97 867.936 2123.76 866.448 2120.88 861.728C2117.97 856.995 2119.44 850.816 2124.18 847.909C2128.91 845.001 2135.09 846.491 2138 851.21C2140.9 855.943 2139.41 862.138 2134.68 865.03Z" fill="#F68CA8"/>
<path d="M2126.27 894.987C2121.53 897.879 2115.35 896.405 2112.45 891.672C2109.54 886.952 2111.04 880.759 2115.74 877.852C2120.48 874.958 2126.69 876.432 2129.56 881.166C2132.48 885.899 2130.99 892.08 2126.27 894.987Z" fill="#F68CA8"/>
<path d="M1332.52 148.833L1454.71 213.011L1492.04 180.937C1492.04 180.937 1547.12 32.2945 1492.04 18.6555C1436.95 5.01657 1365.51 75.5002 1332.52 148.833Z" fill="#F3EEE0"/>
<path d="M1498.18 423.926C1516.44 430.98 1535.29 426.237 1540.28 413.33C1545.28 400.423 1534.51 384.233 1516.24 377.179C1497.98 370.11 1479.14 374.868 1474.16 387.775C1469.17 400.682 1479.92 416.873 1498.18 423.926Z" fill="#151516"/>
<path d="M1679.49 493.981C1697.75 501.045 1716.61 496.298 1721.59 483.393C1726.58 470.488 1715.83 454.287 1697.55 447.239C1679.3 440.175 1660.45 444.923 1655.46 457.828C1650.47 470.733 1661.22 486.933 1679.49 493.981Z" fill="#151516"/>
<path d="M1592.24 458.628C1559.38 445.925 1542.84 452.206 1547.2 473.52C1548.88 481.784 1552.93 488.804 1558.36 494.377L1506.08 510.48L1516.88 545.536L1563.82 531.069L1586.24 571.934L1618.38 554.288L1592.91 507.867C1600.78 507.458 1608.64 504.986 1615.55 499.933C1633.1 487.088 1625.09 471.332 1592.24 458.628Z" fill="#151516"/>
<path d="M1396.28 565.842L1367.53 588.63C1408.3 640.019 1474.07 671.719 1539.67 671.719C1540.42 671.719 1541.16 671.719 1541.89 671.704L1541.5 635.04C1486.31 635.632 1430.6 609.14 1396.28 565.842Z" fill="#151516"/>
<path d="M2093.51 905.082C1958.39 909.365 1763.56 890.238 1655.28 838.2C1650.4 835.869 1644.76 835.784 1639.83 837.99C1634.9 840.208 1631.2 844.465 1629.72 849.661C1606.14 931.684 1436.99 1182.74 1258.35 1272.25C1204.56 1299.2 1165.28 1347.68 1150.64 1405.25C1135.43 1465.11 1117.55 1515.35 1096 1558.88L1013.39 1725.79C1010.63 1731.37 1010.88 1737.95 1014.06 1743.29L1018.18 1750.24C1035.92 1780.1 1040.14 1815.81 1030.41 1848.61L832.295 1772.04C855.091 1705.55 933.34 1464.23 913.058 1340.28C907.96 1309.09 896.751 1260.38 880.583 1217.19C877.157 1208.06 867.185 1203.2 857.886 1206.14C756.882 1238.08 677.61 1299.34 634.657 1378.61C611.046 1422.19 598.306 1470.63 584.821 1521.9C580.763 1537.32 576.564 1553.28 572.068 1568.98C554.23 1631.29 525.747 1709.51 463.274 1761.7C430.096 1789.41 388.412 1809.36 332.095 1824.46C244.45 1848 150.77 1852.55 61.2021 1837.63C59.2124 1837.29 57.2631 1836.76 55.4121 1836.04C41.2086 1830.55 33.6582 1815.27 37.8552 1800.48C41.827 1786.48 56.9375 1777.52 72.287 1779.99C153.176 1793.25 237.762 1789.04 316.887 1767.8C364.69 1754.97 399.254 1738.72 425.658 1716.66C475.869 1674.72 500.127 1607.08 515.661 1552.84C520.03 1537.57 524.3 1521.32 528.093 1506.91C541.87 1454.55 556.112 1400.41 583.067 1350.66C629.712 1264.56 713.342 1196 818.544 1157.58C824.893 1155.25 829.458 1149.64 830.399 1142.93C831.355 1136.25 828.545 1129.58 823.096 1125.58C820.201 1123.44 817.673 1121.8 815.117 1120.41C723.075 1070.03 611.341 1060.93 508.583 1095.43L347.06 1149.68L213.233 1011.1C234.646 994.044 263.802 989.213 290.102 999.381L341.501 1019.24C348.422 1021.92 356.282 1020.15 361.396 1014.79C363.158 1012.93 539.285 830.041 696.149 856.276L715.335 859.534C785.761 871.557 858.589 883.972 931.26 866.852C1099.52 827.175 1195.87 744.815 1234.43 607.644L1216.88 602.713C1234.3 374.92 1339.56 125.073 1427.43 53.2316C1438.14 44.468 1453.63 34.5101 1466.46 37.0911C1486.74 41.1166 1493.31 50.6312 1496.47 57.4495C1510.51 87.7076 1488.12 143.64 1475.22 168.987C1396.17 199.361 1372.56 268.14 1370.44 308.991C1343.2 328.598 1269.72 395.567 1298.3 532.181L1334.19 524.689C1305.39 386.938 1393.61 337.112 1397.31 335.109C1403.51 331.815 1407.27 325.17 1407.01 318.159C1406.9 314.846 1405.09 241.406 1478.44 207.219L1515.61 294.295C1518.73 301.576 1526.24 306.006 1534.1 305.351C1535.35 305.255 1661.07 295.509 1758.5 392.909C1761.81 396.222 1766.28 398.148 1770.98 398.283L1854.61 400.556C1845.75 480.332 1776.18 502.347 1773.1 503.291C1764.51 505.814 1759.02 514.308 1760.08 523.187C1760.44 526.384 1768.28 602.251 1672.5 653.268C1643.39 668.775 1642.51 687.989 1644.57 698.058C1655.1 749.365 1801.64 787.385 2080.11 811.079C2135.62 815.798 2169.29 844.113 2168.67 867.653C2168.09 888.972 2138.58 903.678 2093.51 905.082ZM2083.21 774.534C1735.92 744.996 1687.06 699.436 1681.18 691.625C1682.28 690.418 1684.73 688.311 1689.75 685.628C1782.77 636.065 1795.9 564.481 1796.92 533.53C1836.01 516.503 1892.54 469.835 1892.19 382.662C1892.15 372.763 1884.28 364.693 1874.36 364.404L1779.15 361.823C1688.93 275.42 1582.12 267.851 1544.37 268.294L1508.54 184.395C1520.93 159.819 1551.88 89.8071 1529.75 42.0604C1522.81 27.0951 1507.42 7.85376 1473.58 1.11255C1452.05 -3.14404 1428.68 4.82996 1404.2 24.8223C1353.37 66.3865 1296.69 162.207 1252.54 281.141C1205.87 406.854 1179.5 538.961 1177.8 654.308C1134.33 744.73 1053.49 800.362 922.833 831.15C857.423 846.599 791.409 835.307 721.516 823.382L702.203 820.11C545.719 793.945 382.944 942.064 343.541 980.715L303.323 965.167C257.136 947.316 204.902 960.954 173.348 999.142C167.404 1006.33 167.812 1016.85 174.294 1023.55L328.727 1183.48C333.634 1188.57 341.037 1190.35 347.755 1188.13L520.255 1130.2C602.717 1102.51 691.416 1105.74 768.345 1138.44C672.371 1181.73 595.976 1249.85 550.817 1333.2C521.771 1386.81 506.953 1443.12 492.613 1497.64C488.89 1511.8 484.662 1527.87 480.407 1542.74C466.319 1591.94 444.696 1652.98 402.146 1688.51C379.972 1707.04 349.858 1720.99 307.377 1732.39C233.251 1752.28 154 1756.22 78.2215 1743.81C44.2269 1738.16 11.7097 1758.29 2.57589 1790.47C-6.82371 1823.58 10.2054 1857.88 42.1852 1870.26C46.365 1871.86 50.7431 1873.07 55.1829 1873.8C149.888 1889.57 248.924 1884.75 341.605 1859.88C403.244 1843.35 449.373 1821.08 486.782 1789.85C556.927 1731.25 588.054 1646.43 607.325 1579.06C611.93 1562.98 616.187 1546.84 620.288 1531.22C633.197 1482.15 645.387 1435.79 666.906 1396.07C702.919 1329.58 768.302 1277.02 852.142 1246.78C864.277 1283.16 872.886 1321.86 876.862 1346.19C898.493 1478.4 792.953 1773.56 791.871 1776.52C788.5 1785.9 793.219 1796.25 802.518 1799.85L1034.42 1889.48C1036.6 1890.33 1038.83 1890.72 1041.05 1890.72C1048.02 1890.72 1054.65 1886.7 1057.73 1879.99C1079.28 1832.77 1076.62 1778.01 1050.66 1733.14L1128.88 1575.16C1151.57 1529.29 1170.31 1476.67 1186.18 1414.3C1198.2 1367.05 1230.5 1327.22 1274.78 1305.03C1452.78 1215.84 1616.29 982.597 1657.97 879.59C1774.25 928.256 1958.03 946.023 2094.65 941.74C2174.87 939.226 2204.42 902.316 2205.33 868.635C2206.77 814.38 2143.5 779.661 2083.21 774.534Z" fill="#151516"/>
<path d="M1215.59 947.937L1179.07 944.58L1175.84 979.678L1140.72 976.434L1137.35 1012.95L1172.46 1016.2L1169.22 1051.31L1205.74 1054.68L1208.98 1019.57L1244.1 1022.8L1247.46 986.294L1212.35 983.049L1215.59 947.937Z" fill="#151516"/>
<path d="M1460.88 132.341C1460.88 149.553 1446.92 163.514 1429.69 163.514C1412.49 163.514 1398.53 149.553 1398.53 132.341C1398.53 115.129 1412.49 101.168 1429.69 101.168C1446.92 101.168 1460.88 115.129 1460.88 132.341Z" fill="#F68CA8"/>
<path d="M1440.63 74.6581C1440.63 80.2075 1436.15 84.708 1430.6 84.708C1425.05 84.708 1420.55 80.2075 1420.55 74.6581C1420.55 69.1238 1425.05 64.6083 1430.6 64.6083C1436.15 64.6083 1440.63 69.1238 1440.63 74.6581Z" fill="#F68CA8"/>
<path d="M1470.92 78.2297C1470.92 83.7863 1466.42 88.2803 1460.87 88.2803C1455.33 88.2803 1450.82 83.7863 1450.82 78.2297C1450.82 72.6882 1455.33 68.1791 1460.87 68.1791C1466.42 68.1791 1470.92 72.6882 1470.92 78.2297Z" fill="#F68CA8"/>
<path d="M1492.05 101.075C1492.05 106.611 1487.55 111.108 1482 111.108C1476.45 111.108 1471.95 106.611 1471.95 101.075C1471.95 95.5249 1476.45 91.0274 1482 91.0274C1487.55 91.0274 1492.05 95.5249 1492.05 101.075Z" fill="#F68CA8"/>
</svg>
