<svg width="2343" height="1042" viewBox="0 0 2343 1042" fill="none" xmlns="http://www.w3.org/2000/svg">
<path d="M660.476 407.427C687.215 436.781 686.166 481.796 658.045 509.873C643.555 524.395 624.585 531.701 605.616 531.701C587.504 531.701 569.439 525.086 555.093 511.784L467.06 430.028C435.221 400.478 425.641 353.933 443.133 314.213L492.464 202.426L526.019 217.234L476.688 329.002C465.487 354.438 471.636 384.226 491.988 403.147L580.068 484.899C594.892 498.706 617.77 498.301 632.116 483.946C646.368 469.733 646.892 446.98 633.355 432.12L569.011 361.53C564.101 356.106 562.862 348.257 565.913 341.57L653.898 148.441L687.262 163.649L604.281 345.774L660.476 407.427ZM429.549 583.203L378.407 563.834C379.265 571.56 378.169 579.595 374.404 587.164C364.776 606.657 347.855 601.462 329.696 571.278C311.584 541.095 314.92 523.723 336.654 524.352C345.234 524.605 352.955 527.474 359.39 531.982L367.778 479.704L404.002 485.504L396.614 531.515L442.561 548.907L429.549 583.203ZM379.456 699.694C367.588 706.81 349.81 699.003 339.705 682.217C329.648 665.436 331.078 646.053 342.946 638.918C354.814 631.797 372.592 639.623 382.697 656.404C392.753 673.176 391.324 692.555 379.456 699.694ZM279.316 533.102C267.448 540.237 249.67 532.416 239.565 515.63C229.508 498.863 230.938 479.48 242.806 472.345C254.674 465.21 272.453 473.031 282.557 489.817C292.614 506.603 291.184 525.982 279.316 533.102ZM2089.36 474.862C2023.73 454.201 1955.95 456.293 1890.37 458.285C1842.85 459.763 1798.28 461.135 1754.62 454.706C1681.94 443.987 1611.68 409.295 1556.77 357.007C1527.03 328.721 1503.25 296.278 1480.28 264.899C1450.25 223.987 1421.94 185.349 1381.8 155.757C1316.6 107.625 1234.05 73.395 1136.44 54.0163C882.346 3.57741 679.922 74.3101 554.903 142.555C418.778 216.853 341.993 304.438 341.23 305.305C337.322 309.843 331.364 312.121 325.454 311.544C319.972 310.967 188.9 300.492 68.742 474.185C59.0188 488.173 15.5978 556.771 51.3926 613.134L119.026 572.499C124.174 569.382 130.561 569.029 136.089 571.531C141.571 574.047 145.479 579.099 146.527 585.043C166.689 700.49 239.947 718.229 243.092 718.935L235.514 754.804C234.084 754.523 221.501 751.716 204.629 742.26C195.906 768.273 189.043 812.625 214.209 864.537L315.159 803.875C317.494 802.488 320.116 801.616 322.785 801.349C332.079 800.41 550.851 775.941 546.943 582.05L583.595 581.306C584.548 629.872 573.491 669.297 555.522 701.405V784.301C555.522 822.486 569.296 859.414 594.319 888.248L666.1 971.082C681.447 987.486 706.899 990.436 726.155 977.602C737.356 970.157 744.6 958.752 746.65 945.479C748.652 932.219 745.125 919.175 736.688 908.751L675.918 833.682C672.915 829.988 671.486 825.284 671.915 820.551L691.457 597.091C692.028 590.49 696.127 584.719 702.181 581.983C711.189 577.922 924.098 483.202 1024.67 567.628C1027.57 570.073 1029.62 573.342 1030.62 576.993C1030.86 577.922 1056.08 670.846 1131.1 772.91C1134.53 777.543 1135.53 783.5 1133.91 789.019L1095.4 917.626C1091.49 930.761 1096.45 944.806 1107.79 952.542C1114.99 957.46 1123.62 959.143 1132.1 957.303C1140.63 955.463 1147.83 950.354 1152.36 942.91C1152.59 942.528 1152.83 942.152 1153.07 941.785L1230.9 832.376C1238.77 821.309 1244.15 808.636 1246.97 795.368C1205.69 744.905 1154.4 645.829 1180.57 479.761L1216.8 485.461C1180.19 717.824 1305.97 803.246 1311.36 806.773C1318.41 811.391 1321.46 820.28 1318.65 828.244L1272.13 959.92C1268.18 971.11 1270.27 983.287 1277.66 992.543C1284.14 1000.59 1293.72 1005.24 1304.07 1005.3C1304.11 1005.3 1304.16 1005.3 1304.26 1005.3C1314.22 1005.3 1323.51 1001.01 1329.99 993.487L1400.63 885.326C1401.01 884.778 1401.39 884.245 1401.82 883.739C1411.5 871.896 1414.31 855.62 1409.12 841.222C1399.25 813.779 1405.02 783.105 1424.22 761.138C1433.95 749.971 1445.34 738.862 1457.45 727.108C1481.32 703.865 1508.4 677.513 1524.84 647.163C1542.86 613.92 1559.87 549.197 1553.58 467.245C1553.06 460.32 1556.49 453.681 1562.45 450.112C1568.45 446.561 1575.93 446.671 1581.75 450.407C1632.42 482.807 1689.23 504.368 1746.09 512.751C1794.99 519.958 1844.23 518.428 1891.89 516.936C1955.43 514.972 2015.48 513.104 2071.72 530.829C2162.14 559.297 2232.87 642.964 2247.79 739.019C2249.98 753.16 2261.8 763.707 2275.86 764.102C2284.3 764.312 2293.02 760.69 2298.88 754.06C2304.56 747.598 2307.03 739.09 2305.7 730.673C2287.11 612.543 2200.13 509.735 2089.36 474.862" fill="#F3EEE0"/>
<path d="M670.508 89.9844C670.508 89.9844 833.729 61.9817 902.157 242.149C970.629 422.321 1109.31 436.899 1225.78 348.935C1342.26 260.972 1507.21 316.141 1556.73 357.009C1606.3 397.864 1496.2 84.2565 1113.6 36.923C731.044 -10.3931 670.508 89.9844 670.508 89.9844" fill="#F9CCBE"/>
<path d="M157.87 628.119C157.87 628.119 331.833 551.238 535.452 702.333C535.452 702.333 441.038 798.611 333.011 831.717L205.408 889.26C205.408 889.26 161.403 779.806 193.156 724.526C193.156 724.526 147.016 662.796 157.87 628.119" fill="#F9CCBE"/>
<path d="M1200.45 636.292C1200.45 636.292 1361.82 615.449 1420.49 796.364L1432.71 872.151L1346.59 1027.87H1286.02L1246.9 965.043L1298.25 831.715C1298.25 831.715 1190.77 706.742 1200.45 636.292" fill="#F9CCBE"/>
<path d="M342.954 638.916C331.101 646.053 329.628 665.433 339.722 682.217C349.815 699.001 367.595 706.81 379.484 699.691C391.337 692.554 392.774 673.173 382.681 656.404C372.588 639.62 354.808 631.797 342.954 638.916Z" fill="#151516"/>
<path d="M242.784 472.344C230.922 479.479 229.51 498.864 239.572 515.633C249.669 532.415 267.462 540.239 279.325 533.104C291.187 525.983 292.635 506.602 282.537 489.819C272.44 473.033 254.647 465.21 242.784 472.344Z" fill="#151516"/>
<path d="M404.004 485.507L367.78 479.704L359.413 531.98C352.928 527.47 345.213 524.605 336.664 524.355C314.929 523.721 311.56 541.093 329.709 571.277C347.857 601.461 364.774 606.656 374.41 587.161C378.177 579.594 379.264 571.56 378.394 563.834L429.543 583.202L442.547 548.903L396.615 531.516L404.004 485.507Z" fill="#151516"/>
<path d="M653.88 148.444L565.867 341.577C562.849 348.262 564.056 356.112 569.035 361.533L633.32 432.125C646.863 446.985 646.335 469.736 632.113 483.95C617.777 498.304 594.877 498.711 580.051 484.904L492 403.15C471.628 384.231 465.479 354.441 476.683 329.004L525.991 217.236L492.452 202.434L443.145 314.216C425.603 353.935 435.223 400.479 467.026 430.031L555.077 511.786C569.413 525.087 587.521 531.704 605.592 531.704C624.568 531.704 643.543 524.401 658.068 509.877C686.136 481.8 687.192 436.788 660.445 407.431L604.271 345.776L687.267 163.654L653.88 148.444" fill="#151516"/>
<path d="M2298.89 754.062C2293.05 760.691 2284.29 764.312 2275.86 764.101C2261.78 763.708 2249.95 753.162 2247.79 739.019C2232.89 642.965 2162.15 559.301 2071.73 530.828C2015.45 513.103 1955.44 514.971 1891.88 516.939C1844.22 518.429 1794.99 519.956 1746.08 512.753C1689.23 504.367 1632.38 482.811 1581.75 450.406C1575.91 446.671 1568.44 446.561 1562.45 450.114C1556.51 453.682 1553.07 460.325 1553.59 467.246C1559.87 549.2 1542.86 613.918 1524.85 647.165C1508.43 677.515 1481.32 703.866 1457.42 727.108C1445.35 738.866 1433.95 749.972 1424.18 761.141C1405.02 783.105 1399.27 813.78 1409.14 841.223C1414.31 855.62 1411.49 871.898 1401.81 883.738C1401.38 884.245 1401 884.777 1400.66 885.323L1330.02 993.484C1323.5 1001.01 1314.21 1005.3 1304.25 1005.3C1304.2 1005.3 1304.1 1005.3 1304.06 1005.3C1293.76 1005.24 1284.13 1000.59 1277.67 992.546C1270.24 983.288 1268.18 971.114 1272.16 959.916L1318.66 828.244C1321.49 820.284 1318.43 811.39 1311.34 806.774C1305.97 803.244 1180.2 717.827 1216.79 485.464L1180.58 479.76C1154.43 645.829 1205.68 744.905 1246.96 795.365C1244.14 808.637 1238.77 821.309 1230.87 832.377L1153.04 941.784C1152.8 942.153 1152.56 942.531 1152.32 942.909C1147.82 950.352 1140.64 955.467 1132.11 957.306C1123.59 959.145 1114.96 957.459 1107.78 952.545C1096.43 944.806 1091.5 930.759 1095.42 917.627L1133.88 789.02C1135.56 783.497 1134.51 777.544 1131.11 772.908C1056.1 670.844 1030.86 577.921 1030.62 576.997C1029.66 573.343 1027.56 570.072 1024.68 567.629C924.101 483.203 711.205 577.921 702.153 581.983C696.118 584.717 692.047 590.493 691.472 597.093L671.883 820.548C671.5 825.284 672.889 829.987 675.906 833.68L736.686 908.752C745.115 919.174 748.66 932.22 746.648 945.481C744.589 958.752 737.356 970.156 726.149 977.598C706.895 990.438 681.462 987.488 666.088 971.085L594.34 888.244C569.291 859.413 555.545 822.487 555.545 784.297V701.404C573.458 669.297 584.57 629.876 583.564 581.308L546.924 582.05C550.851 775.945 332.112 800.409 322.773 801.352C320.09 801.615 317.504 802.487 315.157 803.876L214.193 864.537C189 812.626 195.897 768.272 204.614 742.262C221.473 751.716 234.07 754.522 235.507 754.805L243.074 718.933C239.961 718.234 166.681 700.494 146.517 585.043C145.463 579.1 141.583 574.047 136.075 571.533C130.567 569.033 124.198 569.382 119.025 572.5L51.3962 613.132C15.6183 556.772 59.0596 488.175 68.7345 474.185C188.904 300.492 319.995 310.971 325.455 311.545C331.394 312.12 337.333 309.845 341.26 305.31C342.026 304.438 418.803 216.851 554.922 142.555C679.929 74.312 882.336 3.57878 1136.42 54.0149C1234.03 73.3972 1316.6 107.626 1381.84 155.759C1421.93 185.352 1450.28 223.987 1480.26 264.902C1503.25 296.277 1527.06 328.72 1556.75 357.01C1611.69 409.3 1681.95 443.989 1754.61 454.707C1798.29 461.139 1842.88 459.76 1890.39 458.285C1955.91 456.292 2023.73 454.199 2089.35 474.86C2200.13 509.736 2287.06 612.543 2305.7 730.676C2307.04 739.091 2304.55 747.602 2298.89 754.062V754.062ZM2100.37 439.875C2028.81 417.36 1957.88 419.534 1888.91 421.642C1843.41 423.05 1800.4 424.396 1759.97 418.414C1694.69 408.806 1631.52 377.556 1582.04 330.449C1554.69 304.424 1532.9 274.692 1509.82 243.216C1479.55 201.894 1448.22 159.154 1403.58 126.247C1333.99 74.901 1246.53 38.4975 1143.56 18.0472C878.025 -34.6638 666.614 39.5368 536.003 111.079C414.923 177.43 340.494 252.148 319.515 274.677C319.372 274.677 319.228 274.677 319.132 274.677C303.71 274.677 272.195 276.895 232.394 291.612C182.151 310.209 107.721 353.342 38.5603 453.313C0.579142 508.189 -20.83 588.525 33.0046 649.455C38.8479 656.083 48.6183 657.601 56.1858 653.037L115.959 617.093C129.131 667.007 151.833 699.144 173.961 719.733C160.311 753.205 144.41 821.165 191.539 899.566C194.987 905.299 201.07 908.455 207.248 908.455C210.457 908.455 213.762 907.612 216.684 905.831L330.771 837.291C352.611 834.216 451.42 816.826 518.857 749.58V784.297C518.857 831.309 535.812 876.755 566.609 912.277L638.883 995.621C655.263 1013.16 677.487 1022.26 699.998 1022.26C716.043 1022.26 732.231 1017.61 746.504 1008.11C766.093 995.074 779.313 974.26 782.905 951.013C786.449 927.77 779.983 903.948 765.183 885.677L709.05 816.362L727.011 611.169C788.269 585.56 929.705 542.754 996.902 592.404C1003.66 614.957 1030.96 696.179 1096.14 787.195L1060.27 907.109C1051.74 935.606 1062.52 966.042 1087.09 982.823C1102.7 993.47 1121.43 997.167 1139.87 993.149C1158.07 989.217 1173.49 978.36 1183.31 962.546L1260.76 853.627C1266.94 844.93 1272.06 835.509 1276.04 825.634C1277.28 826.716 1278.48 827.727 1279.63 828.665L1237.58 947.713C1229.34 970.927 1233.65 996.281 1249.07 1015.48C1262.48 1032.21 1282.46 1041.86 1303.86 1041.96C1304.01 1041.96 1304.1 1041.96 1304.25 1041.96C1325.51 1041.96 1345.44 1032.53 1358.94 1016.03C1359.38 1015.52 1359.76 1015 1360.09 1014.46L1430.84 906.142C1448.13 884.47 1453.01 854.944 1443.62 828.809C1438.26 813.89 1441.42 797.195 1451.81 785.241C1460.58 775.212 1471.5 764.623 1482.99 753.402C1508.76 728.33 1537.98 699.9 1557.09 664.637C1579.26 623.693 1591.72 562.289 1591.53 498.706C1638.65 524.243 1689.66 541.489 1740.72 549.032C1792.88 556.7 1843.79 555.115 1893.03 553.597C1953.38 551.729 2010.37 549.971 2060.71 565.8C2138.11 590.182 2198.75 662.036 2211.53 744.637C2216.42 776.28 2243.1 799.877 2274.85 800.758C2294.54 801.251 2313.36 793.105 2326.43 778.272C2339.32 763.612 2344.97 744.173 2341.95 724.958C2321.21 593.415 2224.13 478.836 2100.37 439.875" fill="#151516"/>
</svg>
