<svg width="2343" height="1042" viewBox="0 0 2343 1042" fill="none" xmlns="http://www.w3.org/2000/svg">
<path d="M660.476 407.428C687.215 436.782 686.166 481.797 658.045 509.874C643.555 524.396 624.585 531.702 605.616 531.702C587.504 531.702 569.44 525.087 555.093 511.785L467.06 430.029C435.221 400.479 425.641 353.934 443.133 314.214L492.464 202.427L526.019 217.235L476.688 329.003C465.487 354.439 471.636 384.227 491.988 403.148L580.068 484.9C594.892 498.707 617.77 498.302 632.116 483.947C646.368 469.734 646.892 446.981 633.355 432.121L569.011 361.531C564.101 356.107 562.862 348.258 565.913 341.571L653.898 148.442L687.262 163.65L604.281 345.775L660.476 407.428ZM429.549 583.204L378.407 563.835C379.265 571.561 378.169 579.596 374.404 587.165C364.776 606.658 347.855 601.463 329.696 571.279C311.584 541.096 314.92 523.724 336.654 524.353C345.234 524.606 352.955 527.475 359.39 531.983L367.778 479.705L404.002 485.505L396.614 531.516L442.561 548.908L429.549 583.204ZM379.456 699.695C367.588 706.811 349.81 699.004 339.705 682.218C329.648 665.437 331.078 646.054 342.946 638.919C354.814 631.798 372.592 639.624 382.697 656.405C392.753 673.177 391.324 692.556 379.456 699.695ZM279.316 533.103C267.448 540.238 249.67 532.417 239.565 515.631C229.508 498.864 230.938 479.481 242.806 472.346C254.674 465.211 272.453 473.032 282.557 489.818C292.614 506.604 291.184 525.983 279.316 533.103ZM2089.36 474.863C2023.73 454.202 1955.95 456.294 1890.37 458.286C1842.85 459.764 1798.28 461.136 1754.62 454.707C1681.94 443.988 1611.68 409.296 1556.77 357.008C1527.03 328.722 1503.25 296.279 1480.28 264.9C1450.25 223.988 1421.94 185.35 1381.8 155.758C1316.6 107.626 1234.05 73.3959 1136.44 54.0173C882.346 3.57837 679.922 74.311 554.903 142.556C418.778 216.853 341.993 304.439 341.23 305.306C337.322 309.844 331.364 312.122 325.454 311.545C319.973 310.968 188.9 300.493 68.742 474.186C59.0188 488.174 15.5978 556.772 51.3926 613.135L119.026 572.499C124.174 569.383 130.561 569.03 136.089 571.532C141.571 574.048 145.479 579.1 146.527 585.044C166.689 700.491 239.947 718.23 243.092 718.936L235.514 754.805C234.084 754.524 221.501 751.716 204.629 742.261C195.906 768.274 189.043 812.626 214.209 864.538L315.159 803.876C317.494 802.489 320.116 801.617 322.785 801.35C332.079 800.411 550.851 775.942 546.943 582.051L583.595 581.307C584.549 629.873 573.491 669.298 555.522 701.406V784.302C555.522 822.487 569.296 859.415 594.319 888.249L666.1 971.083C681.447 987.487 706.899 990.437 726.155 977.603C737.356 970.158 744.6 958.753 746.65 945.48C748.652 932.22 745.125 919.176 736.688 908.752L675.918 833.683C672.915 829.989 671.486 825.285 671.915 820.552L691.457 597.092C692.029 590.491 696.128 584.72 702.181 581.984C711.189 577.923 924.099 483.203 1024.67 567.629C1027.57 570.074 1029.62 573.343 1030.62 576.994C1030.86 577.923 1056.08 670.847 1131.1 772.911C1134.53 777.544 1135.53 783.501 1133.91 789.02L1095.4 917.627C1091.49 930.762 1096.45 944.807 1107.79 952.543C1114.99 957.461 1123.62 959.144 1132.1 957.304C1140.63 955.464 1147.83 950.355 1152.36 942.911C1152.59 942.529 1152.83 942.153 1153.07 941.786L1230.9 832.377C1238.77 821.31 1244.15 808.637 1246.97 795.369C1205.69 744.906 1154.41 645.83 1180.57 479.762L1216.8 485.462C1180.19 717.825 1305.97 803.247 1311.36 806.774C1318.41 811.392 1321.46 820.281 1318.65 828.245L1272.13 959.92C1268.18 971.111 1270.27 983.288 1277.66 992.544C1284.14 1000.59 1293.72 1005.24 1304.07 1005.3C1304.11 1005.3 1304.16 1005.3 1304.26 1005.3C1314.22 1005.3 1323.51 1001.01 1329.99 993.488L1400.63 885.327C1401.01 884.779 1401.39 884.246 1401.82 883.74C1411.5 871.897 1414.31 855.621 1409.11 841.223C1399.25 813.78 1405.02 783.106 1424.22 761.139C1433.95 749.972 1445.34 738.862 1457.45 727.109C1481.32 703.866 1508.4 677.514 1524.84 647.164C1542.86 613.921 1559.87 549.198 1553.58 467.246C1553.06 460.321 1556.49 453.682 1562.45 450.113C1568.45 446.562 1575.93 446.672 1581.75 450.408C1632.42 482.808 1689.23 504.369 1746.09 512.752C1794.99 519.959 1844.23 518.429 1891.89 516.937C1955.43 514.973 2015.48 513.105 2071.72 530.83C2162.14 559.298 2232.87 642.965 2247.79 739.02C2249.98 753.161 2261.8 763.708 2275.86 764.103C2284.3 764.313 2293.02 760.691 2298.88 754.061C2304.56 747.599 2307.03 739.091 2305.7 730.674C2287.11 612.544 2200.13 509.736 2089.36 474.863Z" fill="#F3EEE0"/>
<path d="M670.508 89.9844C670.508 89.9844 833.729 61.9817 902.157 242.149C970.629 422.321 1109.31 436.899 1225.78 348.935C1342.26 260.972 1507.21 316.141 1556.73 357.009C1606.3 397.864 1496.2 84.2565 1113.6 36.923C731.044 -10.3931 670.508 89.9844 670.508 89.9844Z" fill="#BC9CFF"/>
<path d="M157.872 628.12C157.872 628.12 331.835 551.239 535.454 702.334C535.454 702.334 441.04 798.612 333.013 831.718L205.41 889.261C205.41 889.261 161.405 779.807 193.158 724.527C193.158 724.527 147.018 662.797 157.872 628.12Z" fill="#BC9CFF"/>
<path d="M1200.45 636.292C1200.45 636.292 1361.82 615.449 1420.49 796.364L1432.71 872.151L1346.59 1027.87H1286.02L1246.89 965.043L1298.24 831.715C1298.24 831.715 1190.76 706.742 1200.45 636.292Z" fill="#BC9CFF"/>
<path d="M342.956 638.917C331.103 646.053 329.63 665.434 339.724 682.218C349.817 699.002 367.597 706.811 379.486 699.692C391.339 692.555 392.776 673.174 382.683 656.405C372.59 639.621 354.81 631.798 342.956 638.917Z" fill="#151516"/>
<path d="M242.782 472.344C230.92 479.479 229.508 498.864 239.57 515.633C249.667 532.415 267.46 540.239 279.323 533.104C291.185 525.983 292.633 506.602 282.536 489.819C272.438 473.033 254.645 465.21 242.782 472.344Z" fill="#151516"/>
<path d="M404.004 485.507L367.78 479.704L359.413 531.98C352.928 527.47 345.213 524.605 336.664 524.355C314.929 523.721 311.56 541.093 329.709 571.277C347.857 601.461 364.774 606.656 374.41 587.161C378.177 579.594 379.264 571.56 378.394 563.834L429.543 583.202L442.547 548.903L396.615 531.516L404.004 485.507Z" fill="#151516"/>
<path d="M653.88 148.445L565.867 341.578C562.849 348.263 564.056 356.113 569.035 361.534L633.32 432.126C646.863 446.986 646.335 469.737 632.113 483.951C617.777 498.305 594.877 498.712 580.051 484.905L492 403.151C471.628 384.232 465.479 354.442 476.683 329.005L525.991 217.237L492.452 202.435L443.145 314.217C425.603 353.936 435.223 400.48 467.026 430.032L555.077 511.787C569.413 525.088 587.521 531.705 605.592 531.705C624.568 531.705 643.543 524.402 658.068 509.878C686.136 481.801 687.192 436.789 660.445 407.432L604.271 345.777L687.267 163.655L653.88 148.445Z" fill="#151516"/>
<path d="M2298.9 754.062C2293.05 760.691 2284.29 764.312 2275.86 764.101C2261.78 763.708 2249.95 753.162 2247.79 739.019C2232.9 642.965 2162.15 559.301 2071.73 530.828C2015.45 513.103 1955.44 514.971 1891.88 516.939C1844.22 518.429 1794.99 519.956 1746.09 512.753C1689.23 504.367 1632.38 482.811 1581.76 450.406C1575.91 446.671 1568.44 446.561 1562.45 450.114C1556.52 453.682 1553.07 460.325 1553.59 467.246C1559.87 549.2 1542.87 613.918 1524.86 647.165C1508.43 677.515 1481.32 703.866 1457.42 727.108C1445.35 738.866 1433.95 749.972 1424.18 761.141C1405.02 783.105 1399.27 813.78 1409.14 841.223C1414.31 855.62 1411.49 871.898 1401.81 883.738C1401.38 884.245 1401 884.777 1400.66 885.323L1330.02 993.484C1323.5 1001.01 1314.21 1005.3 1304.25 1005.3C1304.2 1005.3 1304.11 1005.3 1304.06 1005.3C1293.76 1005.24 1284.13 1000.59 1277.67 992.546C1270.24 983.288 1268.18 971.114 1272.16 959.916L1318.67 828.244C1321.49 820.284 1318.43 811.39 1311.34 806.774C1305.97 803.244 1180.2 717.827 1216.79 485.464L1180.58 479.76C1154.43 645.829 1205.68 744.905 1246.97 795.365C1244.14 808.637 1238.78 821.309 1230.87 832.377L1153.04 941.784C1152.8 942.153 1152.56 942.531 1152.33 942.909C1147.82 950.352 1140.64 955.467 1132.11 957.306C1123.59 959.145 1114.97 957.459 1107.78 952.545C1096.43 944.806 1091.5 930.759 1095.43 917.627L1133.89 789.02C1135.56 783.497 1134.51 777.544 1131.11 772.908C1056.1 670.844 1030.86 577.921 1030.62 576.997C1029.66 573.343 1027.56 570.072 1024.68 567.629C924.103 483.203 711.207 577.921 702.155 581.983C696.12 584.717 692.049 590.493 691.474 597.093L671.885 820.548C671.502 825.284 672.891 829.987 675.908 833.68L736.688 908.752C745.117 919.174 748.662 932.22 746.65 945.481C744.591 958.752 737.358 970.156 726.15 977.598C706.896 990.438 681.464 987.488 666.09 971.085L594.342 888.244C569.293 859.413 555.547 822.487 555.547 784.297V701.404C573.46 669.297 584.572 629.876 583.566 581.308L546.926 582.05C550.853 775.945 332.114 800.409 322.775 801.352C320.092 801.615 317.506 802.487 315.159 803.876L214.195 864.537C189.002 812.626 195.899 768.272 204.616 742.262C221.475 751.716 234.072 754.522 235.509 754.805L243.076 718.933C239.963 718.234 166.683 700.494 146.519 585.043C145.465 579.1 141.585 574.047 136.077 571.533C130.569 569.033 124.199 569.382 119.027 572.5L51.3982 613.132C15.6202 556.772 59.0616 488.175 68.7365 474.185C188.906 300.492 319.996 310.971 325.457 311.545C331.396 312.12 337.335 309.845 341.262 305.31C342.028 304.438 418.805 216.851 554.924 142.555C679.931 74.312 882.338 3.57874 1136.42 54.015C1234.04 73.3972 1316.61 107.626 1381.84 155.759C1421.93 185.352 1450.28 223.987 1480.27 264.902C1503.26 296.277 1527.06 328.72 1556.76 357.01C1611.69 409.3 1681.95 443.989 1754.61 454.707C1798.29 461.139 1842.88 459.76 1890.4 458.285C1955.92 456.292 2023.74 454.199 2089.35 474.86C2200.14 509.736 2287.07 612.543 2305.7 730.676C2307.04 739.091 2304.55 747.602 2298.9 754.062ZM2100.37 439.875C2028.81 417.36 1957.88 419.534 1888.91 421.642C1843.41 423.05 1800.4 424.396 1759.98 418.414C1694.69 408.806 1631.52 377.556 1582.04 330.449C1554.7 304.424 1532.9 274.692 1509.82 243.216C1479.55 201.894 1448.22 159.154 1403.59 126.247C1333.99 74.901 1246.54 38.4976 1143.56 18.0472C878.027 -34.6638 666.616 39.5368 536.005 111.079C414.925 177.43 340.496 252.148 319.517 274.677C319.374 274.677 319.23 274.677 319.134 274.677C303.712 274.677 272.197 276.895 232.396 291.612C182.153 310.209 107.723 353.341 38.5623 453.313C0.581095 508.189 -20.828 588.525 33.0066 649.455C38.8498 656.083 48.6202 657.601 56.1877 653.037L115.961 617.093C129.133 667.007 151.835 699.144 173.963 719.733C160.313 753.205 144.412 821.165 191.541 899.566C194.989 905.299 201.072 908.455 207.25 908.455C210.459 908.455 213.764 907.612 216.686 905.831L330.773 837.291C352.613 834.216 451.422 816.826 518.859 749.58V784.297C518.859 831.309 535.814 876.755 566.611 912.277L638.885 995.621C655.265 1013.16 677.489 1022.26 700 1022.26C716.045 1022.26 732.233 1017.61 746.506 1008.11C766.095 995.074 779.315 974.26 782.907 951.013C786.451 927.77 779.985 903.948 765.185 885.677L709.052 816.362L727.013 611.169C788.271 585.56 929.707 542.754 996.904 592.404C1003.66 614.957 1030.96 696.179 1096.14 787.195L1060.27 907.109C1051.74 935.606 1062.52 966.042 1087.09 982.823C1102.71 993.47 1121.43 997.167 1139.87 993.149C1158.07 989.217 1173.49 978.36 1183.31 962.546L1260.76 853.627C1266.94 844.93 1272.06 835.509 1276.04 825.634C1277.28 826.716 1278.48 827.727 1279.63 828.665L1237.58 947.713C1229.34 970.927 1233.65 996.281 1249.07 1015.48C1262.49 1032.21 1282.46 1041.86 1303.87 1041.96C1304.01 1041.96 1304.11 1041.96 1304.25 1041.96C1325.52 1041.96 1345.44 1032.53 1358.95 1016.03C1359.38 1015.52 1359.76 1015 1360.1 1014.46L1430.84 906.142C1448.13 884.47 1453.01 854.944 1443.63 828.809C1438.26 813.89 1441.42 797.195 1451.82 785.241C1460.58 775.212 1471.5 764.623 1483 753.402C1508.76 728.33 1537.98 699.9 1557.09 664.637C1579.27 623.693 1591.72 562.289 1591.53 498.706C1638.66 524.243 1689.67 541.489 1740.72 549.032C1792.88 556.7 1843.79 555.115 1893.03 553.597C1953.38 551.729 2010.37 549.971 2060.71 565.8C2138.11 590.182 2198.75 662.036 2211.54 744.637C2216.42 776.28 2243.1 799.877 2274.85 800.758C2294.54 801.251 2313.36 793.105 2326.44 778.272C2339.32 763.612 2344.97 744.173 2341.95 724.958C2321.22 593.415 2224.13 478.836 2100.37 439.875Z" fill="#151516"/>
</svg>
