<svg width="1482" height="1272" viewBox="0 0 1482 1272" fill="none" xmlns="http://www.w3.org/2000/svg">
<path d="M1047.85 424.08C1103.28 468.288 1175.64 491.084 1246.36 486.655L1248.65 523.258C1242.11 523.668 1235.54 523.863 1228.98 523.863C1155.69 523.863 1082.31 498.474 1024.99 452.753L1047.85 424.08ZM1129.74 248.628C1149.32 248.628 1165.19 259.864 1165.19 273.692C1165.19 287.543 1149.32 298.757 1129.74 298.757C1110.16 298.757 1094.29 287.543 1094.29 273.692C1094.29 259.864 1110.16 248.628 1129.74 248.628ZM1223.86 297.223C1259.09 297.223 1272.25 309.02 1260.51 327.343C1255.96 334.452 1249.64 339.552 1242.56 342.771L1285.53 376.63L1262.83 405.433L1224.26 375.031L1188.62 405.065L1165 377.019L1205.48 342.901C1198.27 339.681 1191.85 334.539 1187.22 327.343C1175.49 309.02 1188.65 297.223 1223.86 297.223V297.223ZM1324.11 248.628C1343.69 248.628 1359.56 259.864 1359.56 273.692C1359.56 287.543 1343.69 298.757 1324.11 298.757C1304.53 298.757 1288.66 287.543 1288.66 273.692C1288.66 259.864 1304.53 248.628 1324.11 248.628ZM671.284 1234.49C665.391 1204.67 645.366 1178.98 616.969 1166.27L583.11 1151.15C575.901 1147.93 571.565 1140.45 572.347 1132.61C573.127 1124.74 578.849 1118.26 586.55 1116.53C587.114 1116.38 649.182 1101.38 683.492 1044.92C709.099 1002.77 713.515 947.864 696.622 881.702L732.155 872.627C748.02 934.77 747.034 989.091 729.3 1034.64C897.966 1039.93 952.644 937.45 961.138 918.824C960.414 816.924 962.474 716.881 971.028 659.687L1007.3 665.132C988.326 791.989 1002.89 1151.06 1006.61 1234.49H1056.28H1149.56C1144.11 1203.07 1124.87 1175.17 1096.65 1159.12L1077.89 1148.45C1070.99 1144.51 1067.4 1136.6 1068.99 1128.83L1131.4 823.471L1167.33 830.817L1107.58 1123.14L1114.8 1127.27C1154.46 1149.83 1180.87 1189.87 1186.61 1234.49H1285.16C1279.53 1201.34 1258.77 1172.52 1228.2 1156.72L1218.57 1151.75C1211.32 1147.99 1207.42 1139.91 1209 1131.89L1336.13 490.155C1337.17 484.948 1340.4 480.453 1344.99 477.817C1415.1 437.584 1448.86 374.836 1445.32 291.324C1442.58 226.718 1417.74 173.261 1417.48 172.743C1416.33 170.301 1415.73 167.6 1415.73 164.899V47.1389C1358.53 52.3463 1323.95 81.1704 1306.09 102C1322.8 111.55 1331.65 120.863 1332.63 121.9L1305.68 146.77C1303.57 144.567 1250.63 90.9585 1141.29 133.115C1135.67 135.297 1129.31 134.541 1124.32 131.127C1119.34 127.713 1116.36 122.052 1116.36 116.002V37.0697C1048.56 34.9954 1013.05 107.791 1006.28 123.326C952.056 247.828 964.308 317.361 972.414 363.363C983.972 428.92 977.777 456.772 865.868 489.312C469.116 604.739 415.482 877.122 418.823 1029.22C418.946 1034.77 416.558 1040.06 412.331 1043.63C408.1 1047.19 402.484 1048.68 397.046 1047.65C326.602 1034.16 265.7 982.631 241.89 916.318C221.005 858.172 226.917 794.409 233.177 726.929C236.053 695.836 239.014 663.922 239.258 632.224C240.073 527.233 199.267 376.263 81.5806 296.207C74.7653 291.605 66.2839 290.244 58.3125 292.491C50.2763 294.781 43.7225 300.464 40.3278 308.091L39.1198 310.814C33.5924 323.216 37.8601 337.585 49.4876 345.731C132.514 403.942 181.522 510.877 180.582 631.77C180.353 661.07 177.633 690.434 174.75 721.505C168.177 792.421 161.379 865.735 186.667 936.153C220.536 1030.45 310.456 1099.81 410.43 1108.71C418.896 1109.49 425.737 1115.95 426.95 1124.38C432.082 1159.94 439.632 1196.93 449.418 1234.49H621.485H671.284" fill="#AC7D83"/>
<path d="M732.277 1148.45C726.005 1144.88 722.409 1137.96 723.09 1130.79L728.728 1071.26C722.806 1071.09 716.746 1070.79 710.57 1070.35C688.983 1102.73 660.761 1123.18 637.5 1135.44C676.095 1154.92 702.486 1192.15 708.462 1234.48H803.944C798.496 1203.05 779.254 1175.18 751.044 1159.12L732.277 1148.45" fill="#AC7D83"/>
<path d="M1324.11 298.77C1343.69 298.77 1359.56 287.546 1359.56 273.683C1359.56 259.861 1343.69 248.637 1324.11 248.637C1304.53 248.637 1288.66 259.861 1288.66 273.683C1288.66 287.546 1304.53 298.77 1324.11 298.77Z" fill="#151516"/>
<path d="M1129.74 298.77C1149.32 298.77 1165.19 287.546 1165.19 273.683C1165.19 259.861 1149.32 248.637 1129.74 248.637C1110.16 248.637 1094.29 259.861 1094.29 273.683C1094.29 287.546 1110.16 298.77 1129.74 298.77Z" fill="#151516"/>
<path d="M1205.48 342.913L1165 377.011L1188.62 405.069L1224.26 375.031L1262.82 405.429L1285.52 376.631L1242.56 342.773C1249.64 339.553 1255.96 334.453 1260.51 327.334C1272.25 309.035 1259.09 297.216 1223.86 297.216C1188.65 297.216 1175.49 309.035 1187.22 327.334C1191.85 334.553 1198.27 339.693 1205.48 342.913" fill="#151516"/>
<path d="M426.95 1124.37C425.737 1115.96 418.898 1109.48 410.429 1108.71C310.456 1099.8 220.537 1030.45 186.668 936.157C161.379 865.733 168.178 792.419 174.75 721.492C177.632 690.441 180.354 661.076 180.584 631.777C181.521 510.879 132.514 403.952 49.488 345.747C37.8596 337.579 33.5915 323.236 39.121 310.82L40.3276 308.083C43.7242 300.484 50.2764 294.791 58.3133 292.492C66.2845 290.236 74.766 291.594 81.581 296.214C199.266 376.273 240.073 527.236 239.26 632.215C239.013 663.923 236.054 695.85 233.179 726.923C226.918 794.412 221.005 858.179 241.89 916.317C265.701 982.624 326.6 1034.17 397.047 1047.64C402.487 1048.69 408.101 1047.2 412.332 1043.63C416.559 1040.06 418.946 1034.76 418.823 1029.22C415.481 877.142 469.116 604.755 865.869 489.331C977.777 456.769 983.97 428.915 972.412 363.353C964.309 317.368 952.057 247.842 1006.28 123.331C1013.05 107.783 1048.56 34.995 1116.36 37.0753V116.017C1116.36 122.061 1119.33 127.71 1124.32 131.127C1129.31 134.543 1135.67 135.287 1141.29 133.119C1250.63 90.9439 1303.57 144.572 1305.68 146.783L1332.63 121.907C1331.65 120.856 1322.8 111.55 1306.09 102.002C1323.95 81.1556 1358.53 52.3381 1415.73 47.1483V164.893C1415.73 167.608 1416.33 170.302 1417.48 172.732C1417.74 173.28 1442.58 226.732 1445.32 291.331C1448.86 374.849 1415.1 437.587 1344.99 477.813C1340.4 480.463 1337.17 484.952 1336.13 490.163L1209 1131.9C1207.42 1139.89 1211.32 1148 1218.57 1151.76L1228.2 1156.73C1258.77 1172.52 1279.53 1201.34 1285.16 1234.47H1186.61C1180.87 1189.86 1154.46 1149.84 1114.8 1127.26L1107.58 1123.14L1167.33 830.828L1131.4 823.492L1068.99 1128.84C1067.4 1136.61 1070.99 1144.51 1077.89 1148.46L1096.65 1159.12C1124.87 1175.17 1144.11 1203.07 1149.56 1234.47H1056.28H1006.61C1002.89 1151.06 988.326 791.981 1007.3 665.127L971.028 659.696C962.474 716.872 960.414 816.923 961.138 918.814C952.644 937.449 897.964 1039.93 729.3 1034.63C747.034 989.084 748.02 934.777 732.156 872.631L696.621 881.719C713.516 947.872 709.099 1002.77 683.492 1044.92C649.183 1101.38 587.115 1116.4 586.55 1116.53C578.85 1118.28 573.128 1124.74 572.346 1132.6C571.564 1140.44 575.9 1147.93 583.112 1151.15L616.97 1166.28C645.366 1178.98 665.393 1204.67 671.283 1234.47H621.485H449.418C439.632 1196.92 432.083 1159.95 426.95 1124.37V1124.37ZM803.945 1234.47H708.461C702.487 1192.14 676.097 1154.94 637.502 1135.45C660.763 1123.19 688.982 1102.73 710.57 1070.35C716.748 1070.78 722.807 1071.09 728.729 1071.27L723.09 1130.78C722.411 1137.97 726.007 1144.89 732.276 1148.46L751.044 1159.12C779.254 1175.17 798.495 1203.07 803.945 1234.47V1234.47ZM691.413 1271.13H823.858C833.986 1271.13 842.194 1262.94 842.194 1252.8C842.194 1201.01 814.223 1152.9 769.185 1127.26L760.717 1122.44L765.615 1070.72C848.01 1065.68 902.329 1035.73 935.142 1008.46C945.608 999.792 954.437 990.945 961.92 982.471C964.263 1119.44 970.314 1244.08 970.787 1253.7C971.271 1263.46 979.326 1271.13 989.101 1271.13H1056.28H1169.48H1305.05C1315.17 1271.13 1323.38 1262.94 1323.38 1252.8C1323.38 1199.41 1294.43 1150.91 1247.66 1125.53L1370.51 505.317C1544.58 398.652 1465.7 192.419 1452.4 161.083V28.0095C1452.4 17.8708 1444.2 9.65916 1434.07 9.65916C1342.58 9.65916 1292.52 58.3161 1270.85 87.2432C1241.81 78.8782 1202.58 75.9878 1153.03 90.4404V20.6737C1153.03 11.827 1146.71 4.22858 1138.02 2.63004C1056.57 -12.3481 998.045 50.4111 972.659 108.681C914.023 243.331 927.968 322.448 936.298 369.725C944.751 417.703 946.514 427.689 855.625 454.12C771.318 478.645 650.057 527.039 551.163 618.31C441.04 719.937 384.218 850.186 382.057 1005.79C334.096 989.303 293.123 950.5 276.41 903.923C258.275 853.448 263.82 793.624 269.711 730.12C272.641 698.477 275.672 665.762 275.932 632.499C276.817 518.477 231.845 354.046 102.201 265.886C86.3768 255.134 66.7072 251.981 48.2748 257.236C29.7592 262.513 14.6533 275.608 6.81561 293.192L5.609 295.93C-6.94568 324.112 2.65483 357.682 28.4365 375.769C55.8409 394.974 145.165 470.193 143.912 631.492C143.695 659.259 141.041 687.835 138.234 718.12C131.289 793.01 124.113 870.463 152.153 948.551C189.125 1051.49 284.685 1128.35 392.777 1143.59C398.694 1180.62 407.046 1218.92 417.656 1257.66C419.837 1265.61 427.079 1271.13 435.342 1271.13H621.485H691.413" fill="#151516"/>
<path d="M1248.65 523.268L1246.36 486.653C1175.64 491.093 1103.28 468.297 1047.85 424.091L1024.98 452.767C1082.3 498.473 1155.68 523.863 1228.97 523.863C1235.53 523.863 1242.11 523.671 1248.65 523.268" fill="#151516"/>
</svg>
