<svg width="1457" height="1917" viewBox="0 0 1457 1917" fill="none" xmlns="http://www.w3.org/2000/svg">
<path d="M700.473 308.947C680.897 308.947 665.029 297.735 665.029 283.889C665.029 270.074 680.897 258.832 700.473 258.832C720.048 258.832 735.917 270.074 735.917 283.889C735.917 297.735 720.048 308.947 700.473 308.947ZM584.859 510.542C531.31 510.542 477.883 497.094 430.553 470.841L448.351 438.769C513.113 474.701 594.141 483.462 665.06 462.172L675.598 497.308C646.036 506.192 615.432 510.542 584.859 510.542V510.542ZM506.097 258.832C525.703 258.832 541.572 270.074 541.572 283.889C541.572 297.735 525.703 308.947 506.097 308.947C486.522 308.947 470.653 297.735 470.653 283.889C470.653 270.074 486.522 258.832 506.097 258.832ZM569.725 337.527C557.961 319.239 571.134 307.415 606.364 307.415C641.563 307.415 654.736 319.239 643.003 337.527C638.377 344.757 631.944 349.903 624.745 353.119L665.243 387.214L641.594 415.274L605.966 385.223L567.397 415.641L544.697 386.846L587.677 352.966C580.57 349.75 574.259 344.665 569.725 337.527V337.527ZM1277.38 1178.71C1277.66 1178.4 1277.9 1178.06 1278.15 1177.76C1330.56 1120.9 1355.99 1036.6 1354.15 926.72C1351.09 743.535 1256.95 604.462 1074.4 513.391C955.719 454.177 836.735 435.583 804.967 431.448C783.891 450.746 765.296 460.763 763.519 461.682L746.425 429.242C747.282 428.783 832.416 382.558 832.416 294.304C832.416 184.884 777.672 91.9438 749.887 51.8454L705.221 127.202C700.994 134.34 692.508 137.771 684.482 135.534C598.736 111.518 499.603 135.412 498.623 135.657C492.006 137.311 484.99 135.136 480.487 130.02L420.78 62.5364C366.404 108.149 312.304 215.945 351.639 332.779C353.415 338.109 355.284 343.47 357.153 348.892C374.155 397.69 393.424 452.983 364.107 501.903L358.194 511.736C332.523 554.53 262.676 583.846 223.311 597.478L96.7905 639.567C69.2807 649.094 45.968 672.835 41.5566 695.871C40.4231 701.936 40.6376 707.388 42.3225 712.29C48.8476 708.46 55.8628 705.397 63.3376 703.345L283.324 646.49L392.75 591.688L409.17 624.465L297.997 680.156C296.833 680.738 295.608 681.197 294.383 681.504L72.7729 738.787C59.9984 742.279 49.2153 750.795 42.6901 762.65C36.1956 774.505 34.7862 788.167 38.7687 801.125C46.3354 825.754 71.9764 840.549 97.1273 834.913L446.452 755.88C455.796 753.797 465.17 759.189 467.988 768.317C468.295 769.267 504.045 872.806 696.644 981.093C739.471 935.082 789.313 895.137 845.037 862.881L882.779 841.039L901.159 872.775L863.387 894.616C709.51 983.666 603.025 1135.08 571.226 1310C569.97 1316.92 564.824 1322.53 558.054 1324.4L453.927 1353.13C439.651 1357.05 429.726 1370.13 429.726 1384.93C429.726 1401.96 443.021 1416.42 460.023 1417.79L536.548 1424.01C595.795 1428.82 651.121 1395.34 674.434 1340.72C705.895 1266.9 783.002 1224.2 861.947 1236.79C884.402 1240.37 906.918 1244.75 928.853 1249.74C930.691 1250.2 1061.35 1283.13 1176.41 1242.85C1181.95 1240.89 1188.11 1241.75 1192.92 1245.09C1193.87 1245.76 1194.67 1246.53 1195.43 1247.32C1211.06 1238.56 1233.94 1224.93 1262.09 1206.09C1265.56 1196.41 1270.52 1187.16 1277.38 1178.71" fill="#F3EEE0"/>
<path d="M1383.38 1454.35C1367.55 1429.72 1347.98 1408.83 1329.02 1388.62C1305.63 1363.68 1283.56 1340.11 1270.9 1312.25C1257.03 1281.67 1249.47 1241.03 1262.09 1206.09C1233.95 1224.93 1211.08 1238.56 1195.47 1247.31C1198.73 1250.63 1200.72 1255.05 1200.84 1259.78C1201.36 1287.52 1206.97 1313.35 1217.46 1336.45C1234.1 1373.16 1260.57 1401.42 1286.18 1428.74C1304.17 1447.92 1321.09 1465.97 1334.02 1486.09C1385.97 1566.88 1360.88 1689.56 1281.36 1743.49C1234.5 1775.29 1175.04 1785.42 1117.57 1795.23L965.309 1821.18C957.595 1822.52 950.827 1826.76 946.315 1833.16C941.772 1839.53 940.003 1847.31 941.314 1855.05C944.058 1870.99 959.272 1881.76 975.157 1879.01L1127.36 1853.07C1188.06 1842.73 1256.88 1830.99 1314.32 1792.03C1420.48 1720.05 1452.74 1562.25 1383.38 1454.35" fill="#F9CCBE"/>
<path d="M589.571 1137.61L446.269 1188.85C436.595 1191.95 430.473 1200.34 430.473 1209.89C430.473 1221.96 440.298 1231.78 452.366 1231.78H552.713C562.538 1199.31 574.883 1167.82 589.571 1137.61" fill="#F3EEE0"/>
<path d="M869.271 415.644C869.271 415.644 771.482 514.905 646.795 595.564C522.108 676.251 771.481 673.155 967.061 438.791L869.271 415.644" fill="#F9CCBE"/>
<path d="M1028.2 474.684C1028.2 474.684 909.136 612.685 790.184 686.029C671.233 759.373 967.074 753.135 1125.99 510.544L1028.2 474.684Z" fill="#F9CCBE"/>
<path d="M1184.67 561.348C1184.67 561.348 1091.76 700.687 949.947 764.266C808.164 827.815 1099.1 837.619 1267.8 631.032L1184.67 561.348" fill="#F9CCBE"/>
<path d="M348.521 390.227C348.521 390.227 513.561 302.551 605.154 199.534C605.154 199.534 728.295 299.594 817.947 391.829C817.947 391.829 920.601 162.843 749.491 23.5041L700.66 101.722C700.66 101.722 544.123 96.8549 492.765 111.519L430.44 38.168C430.44 38.168 243.402 138.413 348.521 390.227" fill="#F9CCBE"/>
<path d="M1336.23 739.805C1336.23 739.805 1196.91 854.705 1074.66 874.264C952.388 893.823 1189.57 986.737 1365.58 837.601L1336.23 739.805Z" fill="#F9CCBE"/>
<path d="M506.326 308.947C525.912 308.947 541.769 297.73 541.769 283.871C541.769 270.041 525.912 258.825 506.326 258.825C486.74 258.825 470.883 270.041 470.883 283.871C470.883 297.73 486.74 308.947 506.326 308.947Z" fill="#151516"/>
<path d="M700.689 308.947C720.275 308.947 736.132 297.73 736.132 283.871C736.132 270.041 720.275 258.825 700.689 258.825C681.103 258.825 665.246 270.041 665.246 283.871C665.246 297.73 681.103 308.947 700.689 308.947Z" fill="#151516"/>
<path d="M567.609 415.636L606.151 385.234L641.786 415.287L665.417 387.239L624.957 353.117C632.136 349.891 638.56 344.746 643.181 337.538C654.924 319.228 641.757 307.427 606.558 307.427C571.329 307.427 558.162 319.228 569.905 337.538C574.468 344.659 580.776 349.746 587.839 352.972L544.879 386.862L567.609 415.636" fill="#151516"/>
<path d="M392.968 591.68L283.521 646.494L63.5747 703.35C56.0533 705.393 49.0272 708.457 42.5272 712.295C40.8558 707.374 40.6082 701.926 41.7534 695.891C46.1796 672.833 69.4867 649.094 96.9722 639.561L223.505 597.499C262.845 583.819 332.735 554.54 358.394 511.735L364.306 501.893C393.618 452.991 374.366 397.682 357.342 348.873C355.485 343.488 353.597 338.103 351.832 332.779C312.492 215.972 366.596 108.14 420.979 62.5188L480.686 130.022C485.174 135.129 492.2 137.295 498.824 135.655C499.815 135.407 598.954 111.514 684.692 135.531C692.709 137.76 701.189 134.355 705.399 127.205L750.063 51.8409C777.858 91.9529 832.612 184.897 832.612 294.308C832.612 382.548 747.494 428.788 746.627 429.252L763.713 461.688C765.508 460.76 784.079 450.732 805.189 431.449C836.946 435.566 955.926 454.198 1074.6 513.375C1257.15 604.463 1351.28 743.524 1354.34 926.72C1356.2 1036.59 1330.76 1120.87 1278.35 1177.76C1278.11 1178.07 1277.83 1178.38 1277.58 1178.72C1245.82 1217.75 1253.38 1273.21 1271.08 1312.24C1283.74 1340.13 1305.81 1363.71 1329.21 1388.63C1348.15 1408.84 1367.74 1429.73 1383.56 1454.36C1452.92 1562.26 1420.67 1720.08 1314.51 1792.07C1257.06 1831 1188.25 1842.73 1127.52 1853.07L975.364 1879.04C959.454 1881.76 944.226 1870.99 941.502 1855.05C940.171 1847.31 941.966 1839.54 946.485 1833.17C951.004 1826.76 957.752 1822.52 965.49 1821.19L1117.74 1795.25C1175.22 1785.44 1234.68 1775.29 1281.54 1743.5C1361.06 1689.59 1386.16 1566.87 1334.19 1486.09C1321.29 1465.97 1304.35 1447.93 1286.37 1428.74C1260.77 1401.41 1234.28 1373.18 1217.63 1336.47C1207.13 1313.35 1201.53 1287.54 1201.01 1259.78C1200.91 1253.93 1197.97 1248.45 1193.14 1245.11C1188.31 1241.73 1182.15 1240.9 1176.61 1242.85C1061.57 1283.12 930.885 1250.18 929.059 1249.75C907.114 1244.74 884.581 1240.37 862.141 1236.78C783.182 1224.19 706.111 1266.9 674.632 1340.71C651.325 1395.34 595.983 1428.8 536.74 1424L460.227 1417.81C443.234 1416.42 429.925 1401.97 429.925 1384.91C429.925 1370.12 439.86 1357.06 454.129 1353.13L558.252 1324.4C565.031 1322.52 570.169 1316.91 571.407 1310.01C603.226 1135.08 709.701 983.669 863.595 894.624L901.357 872.773L883.002 841.018L845.21 862.869C789.527 895.12 739.694 935.077 696.825 981.1C504.241 872.804 468.491 769.275 468.181 768.315C465.365 759.185 455.986 753.799 446.639 755.904L97.3125 834.89C72.1794 840.554 46.551 825.759 38.9677 801.123C35.0058 788.185 36.3678 774.505 42.8987 762.651C49.4296 750.797 60.201 742.286 72.9843 738.788L294.571 681.53C295.809 681.189 297.047 680.725 298.192 680.168L409.372 624.488L392.968 591.68ZM452.334 1231.8C440.293 1231.8 430.451 1221.96 430.451 1209.92C430.451 1200.35 436.579 1191.97 446.237 1188.87L589.545 1137.62C574.874 1167.82 562.524 1199.3 552.681 1231.8H452.334ZM3.89898 811.894C17.0846 854.76 61.6558 880.542 105.391 870.669L439.829 795.026C456.946 830.154 512.938 918.24 672.125 1009.27C651.264 1034.49 632.352 1061.26 615.576 1089.37L434.506 1154.14C410.146 1161.91 393.773 1184.35 393.773 1209.92C393.773 1242.2 420.051 1268.44 452.334 1268.44H542.745C540.888 1276.31 539.093 1284.17 537.514 1292.09L444.379 1317.78C414.263 1326.07 393.246 1353.68 393.246 1384.91C393.246 1420.94 421.351 1451.42 457.255 1454.36L533.769 1460.55C608.766 1466.65 678.873 1424.28 708.37 1355.11C733.194 1296.8 794.046 1263 856.322 1272.99C877.988 1276.46 899.747 1280.67 920.393 1285.34C925.809 1286.77 1046.92 1317.47 1165.94 1284.57C1168.66 1308.37 1174.79 1330.81 1184.23 1351.64C1203.39 1393.83 1231.96 1424.34 1259.69 1453.9C1276.44 1471.76 1292.25 1488.63 1303.33 1505.9C1345.18 1570.96 1324.97 1669.75 1260.96 1713.14C1220.69 1740.47 1165.22 1749.94 1111.52 1759.1L959.33 1785.04C941.935 1788.01 926.769 1797.58 916.555 1811.97C906.371 1826.36 902.379 1843.85 905.35 1861.24C910.829 1893.37 938.809 1916.12 970.38 1916.12C974.064 1916.12 977.778 1915.81 981.523 1915.19L1133.71 1889.22C1198.1 1878.26 1271.08 1865.82 1335.09 1822.43C1457.01 1739.7 1494.09 1558.45 1414.42 1434.53C1396.78 1407.1 1376.04 1384.97 1355.95 1363.56C1334.69 1340.87 1314.6 1319.48 1304.48 1297.11C1291.85 1269.31 1284.79 1227.62 1306.09 1201.81C1306.15 1201.72 1306.24 1201.59 1306.34 1201.47C1364.53 1137.96 1393 1045.32 1391.02 926.101C1387.74 730.927 1283.99 576.855 1090.97 480.568C987.59 429.004 885.881 407.122 834.593 398.673C853.722 372.334 869.291 337.669 869.291 294.308C869.291 135.129 766.684 12.1625 762.32 6.99377C758.482 2.47499 752.632 0.0607548 746.782 0.586914C740.87 1.08212 735.577 4.39377 732.544 9.50061L680.854 96.7192C606.352 79.7583 529.219 91.9838 501.022 97.6477L437.26 25.5948C431.194 18.7238 421.01 17.4239 413.396 22.4379C343.878 68.4304 267.983 198.732 317.042 344.478C318.868 349.926 320.818 355.404 322.737 360.944C337.78 404.151 353.349 448.844 332.828 483.044L326.947 492.855C312.771 516.533 269.592 542.686 211.712 562.772L85.1795 604.834C45.2203 618.7 12.5657 653.303 5.72527 688.989C2.25863 707.157 5.53938 724.118 14.825 738.386C13.4012 740.522 12.0085 742.688 10.7704 744.978C-0.558076 765.622 -3.00336 789.393 3.89898 811.894Z" fill="#151516"/>
<path d="M675.823 497.291L665.253 462.165C594.348 483.444 513.325 474.712 448.58 438.767L430.775 470.813C478.112 497.094 531.496 510.545 585.078 510.545C615.628 510.545 646.234 506.165 675.823 497.291" fill="#151516"/>
</svg>
