<svg width="809" height="841" viewBox="0 0 809 841" fill="none" xmlns="http://www.w3.org/2000/svg">
<path d="M767.405 82.9538C775.886 69.6643 772.592 52.1676 759.88 43.1075C753.224 38.3438 745.099 36.5406 737.085 38.1211C729.248 39.6348 722.614 44.1093 718.385 50.7207C696.079 85.6251 683.033 115.766 677.334 145.595C669.943 184.373 674.93 221.971 679.738 258.344C681.898 274.572 683.924 289.909 684.881 305.225C689.244 375.457 661.907 468.928 592.606 515.386C606.765 529.477 619.298 544.636 630.095 560.73C706.029 506.971 750.041 407.957 743.429 301.596C742.361 284.278 740.09 267.182 737.908 250.664C733.5 217.407 729.36 186.042 734.992 156.591C739.222 134.286 749.529 110.891 767.405 82.9538Z" fill="#CDED88"/>
<path d="M238.014 370.634C257.59 370.634 273.467 381.859 273.467 395.684C273.467 409.551 257.59 420.755 238.014 420.755C218.417 420.755 202.561 409.551 202.561 395.684C202.561 381.859 218.417 370.634 238.014 370.634ZM301.605 449.336C289.872 431.029 303.021 419.212 338.241 419.212C373.462 419.212 386.632 431.029 374.899 449.336C370.269 456.544 363.842 461.681 356.655 464.915L397.139 499.013L373.482 527.065L337.861 497.047L299.279 527.446L276.596 498.654L319.553 464.789C312.471 461.554 306.171 456.46 301.605 449.336ZM432.38 370.634C451.956 370.634 467.833 381.859 467.833 395.684C467.833 409.551 451.956 420.755 432.38 420.755C412.783 420.755 396.927 409.551 396.927 395.684C396.927 381.859 412.783 370.634 432.38 370.634ZM117.852 346.788C124.13 351.566 126.646 359.789 124.13 367.251C92.7364 460.223 112.947 525.903 182.563 557.147C292.916 606.697 499.839 589.701 539.414 508.78C576.41 433.101 540.746 350.467 540.387 349.642C537.512 343.131 538.675 335.521 543.368 330.152C574.212 294.912 571.992 245.658 567.891 219.276L426.059 265.338C422.613 266.459 418.892 266.543 415.425 265.55C330.081 241.472 255.434 265.106 254.694 265.338C251.904 266.247 248.944 266.48 246.047 265.994L88.6776 239.95C67.6851 307.554 117.323 346.387 117.852 346.788Z" fill="#CDED88"/>
<path d="M564.113 538.697C524.545 595.939 428.509 621.029 334.296 621.029C272.315 621.029 211.189 610.182 167.546 590.603C147.151 581.444 122.487 566.193 103.411 541.588C78.495 566.445 59.3807 594.853 46.6702 626.404C30.3504 666.881 35.0076 710.871 59.4777 747.118C84.006 783.443 123.185 804.283 167.022 804.283H328.552H341.844C355.894 804.283 367.304 792.854 367.304 778.825C367.304 767.434 359.678 757.364 348.733 754.298L197.954 711.919L207.87 676.603L335.208 712.385L462.546 676.603L472.462 711.919L386.768 736C397.518 747.293 404 762.486 404 778.805C404 787.887 401.982 796.502 398.469 804.283H503.394C547.211 804.283 586.41 783.443 610.938 747.118C635.389 710.871 640.065 666.881 623.745 626.404C610.53 593.63 590.504 564.213 564.113 538.697Z" fill="#CDED88"/>
<path d="M247.904 229.111C266.324 223.96 337.735 207.163 419.947 228.765L432.632 224.631C437.697 215.8 440.511 205.886 440.511 195.54C440.511 163.202 414.189 136.86 381.85 136.86H271.823C239.462 136.86 213.14 163.202 213.14 195.54C213.14 205.929 215.932 215.821 221.04 224.674L247.904 229.111Z" fill="#62CA79"/>
<path d="M238.013 420.747C257.599 420.747 273.465 409.53 273.465 395.686C273.465 381.841 257.599 370.624 238.013 370.624C218.448 370.624 202.562 381.841 202.562 395.686C202.562 409.53 218.448 420.747 238.013 420.747Z" fill="#151516"/>
<path d="M432.391 420.747C451.956 420.747 467.843 409.53 467.843 395.686C467.843 381.841 451.956 370.624 432.391 370.624C412.806 370.624 396.939 381.841 396.939 395.686C396.939 409.53 412.806 420.747 432.391 420.747Z" fill="#151516"/>
<path d="M299.298 527.43L337.871 497.023L373.497 527.051L397.155 499.014L356.669 464.883C363.858 461.678 370.291 456.54 374.911 449.331C386.66 431.012 373.477 419.203 338.269 419.203C303.041 419.203 289.878 431.012 301.628 449.331C306.188 456.44 312.5 461.538 319.57 464.764L276.596 498.636L299.298 527.43Z" fill="#151516"/>
<path d="M737.904 250.662C740.086 267.194 742.358 284.289 743.438 301.586C750.029 407.954 706.03 506.968 630.091 560.748C619.294 544.621 606.764 529.483 592.593 515.38C661.92 468.932 689.227 375.452 684.886 305.23C683.919 289.912 681.894 274.572 679.735 258.355C674.921 221.984 669.928 184.376 677.328 145.598C683.019 115.773 696.065 85.6328 718.402 50.7239C722.631 44.1111 729.244 39.635 737.072 38.128C745.102 36.531 753.223 38.3303 759.881 43.0988C772.59 52.1634 775.897 69.6628 767.394 82.9561C749.534 110.892 739.231 134.285 734.98 156.575C729.357 186.04 733.518 217.418 737.904 250.662ZM610.926 747.123C586.385 783.471 547.2 804.3 503.36 804.3H398.448C401.98 796.517 403.981 787.902 403.981 778.815C403.981 762.508 397.503 747.303 386.751 736.011L472.453 711.944L462.533 676.63L335.195 712.394L207.857 676.63L197.937 711.944L348.736 754.298C359.646 757.38 367.294 767.456 367.294 778.838C367.294 792.873 355.867 804.3 341.831 804.3H328.537H167.007C123.189 804.3 83.9823 783.471 59.4639 747.123C34.9905 710.887 30.3341 666.914 46.6648 626.404C59.3738 594.869 78.4713 566.461 103.395 541.606C122.469 566.213 147.145 581.464 167.547 590.618C211.186 610.209 272.302 621.028 334.295 621.028C428.5 621.028 524.526 595.972 564.093 538.705C590.479 564.234 610.499 593.655 623.725 626.404C640.056 666.914 635.377 710.887 610.926 747.123ZM88.661 239.956L246.029 266.002C248.93 266.475 251.9 266.25 254.689 265.35C255.431 265.102 330.089 241.485 415.408 265.552C418.895 266.542 422.606 266.475 426.071 265.35L567.895 219.285C571.989 245.646 574.193 294.928 543.354 330.174C538.675 335.527 537.506 343.13 540.385 349.653C540.745 350.463 576.398 433.101 539.418 508.767C499.828 589.718 292.929 606.701 182.551 557.149C112.932 525.907 92.7324 460.228 124.111 367.265C126.631 359.797 124.111 351.565 117.858 346.796C117.318 346.392 67.6742 307.569 88.661 239.956ZM271.807 136.871H381.825C414.171 136.871 440.512 163.21 440.512 195.555C440.512 205.902 437.7 215.821 432.616 224.661L419.93 228.777C337.737 207.184 266.318 223.986 247.873 229.137L221.016 224.683C215.932 215.843 213.12 205.947 213.12 195.555C213.12 163.21 239.461 136.871 271.807 136.871ZM774.277 245.826C770.273 215.618 766.494 187.097 770.993 163.458C774.345 145.913 783.027 126.592 798.301 102.682C817.308 72.9693 809.795 33.6518 781.183 13.2509C766.472 2.7467 747.869 -1.32452 730.099 2.11688C712.351 5.53577 697.19 15.7925 687.495 30.9751C662.572 69.9326 647.906 104.189 641.315 138.716C632.813 183.319 638.188 223.918 643.385 263.146C645.454 278.756 647.389 293.466 648.288 307.501C651.595 360.899 634.072 429.727 589.602 471.182C599.184 416.097 585.463 366.59 578.04 345.492C625.952 280.578 600.286 194.003 599.117 190.202C597.677 185.501 594.415 181.564 590.052 179.293C585.688 177.021 580.582 176.593 575.925 178.123L475.985 210.58C476.772 205.632 477.177 200.638 477.177 195.555C477.177 142.989 434.416 100.23 381.825 100.23H345.16V66.2888H308.495V100.23H271.807C219.216 100.23 176.455 142.989 176.455 195.555C176.455 203.135 177.355 210.535 179.064 217.733L79.7309 201.313C71.3856 199.941 63.2203 204.417 59.8912 212.177C28.9845 284.289 59.1489 340.588 85.6468 367.152C66.9318 428.85 70.4635 474.803 84.4772 508.879C52.5808 538.772 28.3997 573.614 12.6314 612.706C-7.99554 663.922 -1.87718 721.841 29.052 767.659C60.0487 813.544 111.627 840.963 167.007 840.963H328.537H341.831H503.36C558.762 840.963 610.319 813.544 641.315 767.659C672.245 721.841 678.385 663.922 657.736 612.706C654.969 605.868 651.865 599.188 648.603 592.62C736.42 531.957 787.503 419.56 780.035 299.314C778.888 280.735 776.549 263.011 774.277 245.826Z" fill="#151516"/>
</svg>
