<svg width="2600" height="1080" viewBox="0 0 2600 1080" fill="none" xmlns="http://www.w3.org/2000/svg">
<path d="M1977.89 786.501C1914.5 796.364 1853.44 805.814 1796.3 808.399C1797.15 808.846 1798.01 809.297 1798.86 809.748L1801.25 810.998C1814.71 817.961 1828.06 824.928 1841.38 831.67C1868.09 845.181 1894.18 857.4 1919.76 868.496C1963.11 857.4 2015.67 854.678 2066.69 852.134C2149.89 848.005 2235.93 843.709 2249.07 801.586C2254.06 785.602 2252.35 772.331 2244.05 762.133C2235.93 752.192 2223.73 747.318 2215.06 746.195C2204.3 755.743 2190.26 761.447 2174.14 762.4C2107.68 766.307 2041.73 776.573 1977.89 786.501Z" fill="#F3EEE0"/>
<path d="M505.504 913.567C480.988 831.544 479.222 744.355 500.457 661.405L536.005 670.49C516.428 746.994 518.014 827.416 540.656 903.062L505.504 913.567ZM2556.59 930.645C2548.4 918.485 2532.22 914.721 2518.95 921.841C2426.04 971.811 2313.59 992.346 2193.72 981.235C2080.22 970.744 1959.55 932.53 1824.86 864.383C1811.41 857.584 1797.89 850.575 1784.34 843.524L1781.99 842.316C1680.07 789.31 1574.8 734.549 1457.19 742.487L1454.74 705.899C1551.47 699.367 1638.03 730.591 1720.59 770.138C1794.39 777.879 1880.81 764.496 1972.28 750.267C2036.92 740.209 2103.8 729.805 2172.01 725.785C2184.34 725.071 2192.89 719.563 2197.36 709.465C2204.32 693.692 2199.81 671.178 2186.47 654.732C2176.16 642.02 2151.64 622.218 2103.51 632.373C1974.84 659.509 1599.89 612.711 1584.03 610.714C1582.94 610.577 1581.93 610.364 1580.93 610.043C1097.82 461.798 530.416 599.141 524.756 600.547C519.889 601.741 514.698 600.912 510.479 598.201C424.89 543.609 318.426 535.519 194.076 574.183C133.568 592.977 83.2418 618.919 54.6735 635.279L131.6 680.04C139.228 684.481 142.614 693.736 139.65 702.049C103.103 804.398 150.001 878.327 152.009 881.421C155.225 886.363 155.885 892.571 153.765 898.062C151.645 903.552 147.023 907.723 141.323 909.212C92.3992 922.021 63.045 947.837 47.9604 965.282C203.543 1017.33 368.684 1021.79 527.136 977.965L534.995 975.788C538.096 974.93 541.413 974.901 544.549 975.716C550.823 977.36 1166.68 1133.72 1744.5 930.237C1742.33 929.116 1740.17 928.02 1738.01 926.895C1647.62 879.903 1554.5 831.573 1463.61 837.611L1461.16 801.023C1562.21 794.242 1660.06 845.042 1754.63 894.201C1769.48 901.923 1783.94 909.454 1798.36 916.743C1939.8 988.272 2067.31 1028.48 2188.31 1039.66C2210.73 1041.74 2233.3 1042.78 2255.4 1042.78C2362.08 1042.78 2463.14 1018.65 2547.65 973.005C2554.79 969.187 2559.72 962.741 2561.67 954.889C2563.62 946.994 2562.18 938.933 2557.63 932.191L2556.59 930.645Z" fill="#F3EEE0"/>
<path d="M127.499 807.345C127.499 807.345 462.324 805.464 510.481 598.202C510.481 598.202 475.694 503.047 281.447 539.957C87.1768 576.881 18.7764 629.297 18.7764 629.297L114.903 691.628L127.499 807.345Z" fill="#FFBA52"/>
<path d="M2561.68 954.887C2559.76 962.739 2554.79 969.186 2547.68 973.004C2463.13 1018.65 2362.07 1042.78 2255.39 1042.78C2233.29 1042.78 2210.72 1041.74 2188.33 1039.66C2067.32 1028.48 1939.77 988.272 1798.36 916.741C1783.96 909.451 1769.48 901.922 1754.64 894.198C1660.08 845.039 1562.25 794.241 1461.15 801.023L1463.62 837.612C1554.48 831.571 1647.63 879.901 1738.02 926.897C1740.2 928.018 1742.34 929.114 1744.51 930.239C1166.69 1133.72 550.839 977.358 544.525 975.718C541.404 974.901 538.102 974.93 534.982 975.787L527.144 977.964C368.682 1021.78 203.543 1017.33 47.9613 965.282C63.0456 947.837 92.4012 922.02 141.322 909.212C147.023 907.724 151.646 903.552 153.765 898.062C155.888 892.568 155.227 886.36 152.009 881.418C150.002 878.327 103.102 804.394 139.649 702.05C142.614 693.733 139.229 684.477 131.601 680.04L54.6743 635.279C83.2425 618.919 133.568 592.975 194.075 574.184C318.425 535.519 424.889 543.607 510.489 598.2C514.698 600.911 519.887 601.738 524.749 600.544C530.446 599.14 1097.82 461.796 1580.93 610.04C1581.95 610.363 1582.97 610.573 1584.02 610.715C1599.91 612.71 1974.82 659.506 2103.49 632.373C2151.65 622.217 2176.18 642.021 2186.48 654.731C2199.83 671.179 2204.3 693.693 2197.37 709.466C2192.87 719.564 2184.34 725.069 2172 725.787C2103.78 729.804 2036.95 740.21 1972.28 750.265C1880.81 764.495 1794.41 777.877 1720.56 770.138C1638.05 730.587 1551.47 699.368 1454.73 705.896L1457.2 742.485C1574.8 734.55 1680.07 789.31 1782 842.318L1784.36 843.523C1797.89 850.576 1811.39 857.583 1824.85 864.383C1959.55 932.528 2080.2 970.743 2193.7 981.237C2313.59 992.347 2426.04 971.81 2518.97 921.839C2532.22 914.72 2548.4 918.483 2556.6 930.645L2557.65 932.191C2562.19 938.933 2563.6 946.995 2561.68 954.887ZM2215.04 746.193C2223.71 747.315 2235.9 752.191 2244.07 762.133C2252.38 772.329 2254.08 785.602 2249.07 801.585C2235.94 843.708 2149.9 848.004 2066.7 852.133C2015.68 854.677 1963.14 857.401 1919.78 868.497C1894.19 857.401 1868.1 845.181 1841.4 831.672C1828.08 824.931 1814.69 817.964 1801.27 810.997L1798.87 809.746C1798 809.296 1797.13 808.846 1796.29 808.396C1853.45 805.812 1914.48 796.36 1977.91 786.502C2041.73 776.571 2107.7 766.306 2174.14 762.402C2190.25 761.444 2204.3 755.743 2215.04 746.193ZM2586.97 910.112C2568.21 882.303 2531.53 873.468 2501.59 889.549C2415.08 936.095 2309.82 955.166 2197.11 944.734C2129.69 938.497 2059.44 921.922 1984.69 894.549C2011.58 891.658 2040.28 890.166 2068.51 888.762C2168.7 883.777 2263.34 879.06 2284.09 812.5C2292.73 784.818 2288.59 758.708 2272.44 738.944C2261.88 726.008 2248.09 717.837 2234.67 713.37C2241.53 686.908 2234.23 655.392 2214.97 631.629C2188.44 598.944 2145.04 586.165 2095.95 596.502C1977.25 621.502 1616.93 577.834 1590.15 574.521C1128.34 433.411 593.512 547.188 523.552 563.157C430.55 506.909 312.764 498.679 182.235 539.448C82.7237 570.548 11.5371 618.454 8.56163 620.475C3.35092 624.016 0.317523 629.985 0.542499 636.277C0.767474 642.583 4.19293 648.327 9.64314 651.502L100.337 704.267C76.3735 784.662 96.1242 848.973 110.25 880.518C33.4795 908.399 3.9387 963.483 2.60699 966.012C0.175808 970.689 -0.147168 976.193 1.76149 981.11C3.67378 986.026 7.59287 989.901 12.5496 991.712C181.956 1053.87 363.275 1061.33 536.941 1013.3L540.135 1012.42C575.405 1020.97 795.264 1071.24 1084.54 1071.24C1297.18 1071.24 1547.3 1043.95 1789 953.018C1931.75 1024.41 2061.37 1064.76 2184.96 1076.18C2208.47 1078.36 2232.17 1079.45 2255.39 1079.45C2368.13 1079.45 2475.25 1053.81 2565.09 1005.28C2581.17 996.599 2592.89 981.418 2597.28 963.649C2601.67 945.841 2598.29 926.897 2588.03 911.658L2586.97 910.112Z" fill="#151516"/>
<path d="M510.179 303.875C507.222 297.289 500.672 293.047 493.443 293.047H398.094V329.718H452.505L399.08 389.635C394.268 395.028 393.071 402.737 396.029 409.325C398.986 415.926 405.535 420.167 412.765 420.167H508.113V383.497H453.702L507.128 323.58C511.94 318.188 513.137 310.478 510.179 303.875Z" fill="#151516"/>
<path d="M571.004 318.876C573.956 325.465 580.505 329.719 587.749 329.719H730.589V293.048H628.656L722.303 188.062C727.116 182.669 728.307 174.957 725.355 168.356C722.403 161.77 715.829 157.528 708.61 157.528H565.745V194.186H667.703L574.055 299.17C569.242 304.565 568.052 312.29 571.004 318.876Z" fill="#151516"/>
<path d="M792.48 211.684C795.42 218.271 801.989 222.524 809.22 222.524H1004.43V185.855H850.143L988.089 31.2061C992.883 25.8109 994.075 18.1009 991.135 11.5006C988.168 4.91351 981.626 0.657242 974.395 0.657242H779.183V37.3269H933.445L795.526 191.978C790.732 197.371 789.513 205.097 792.48 211.684Z" fill="#151516"/>
<path d="M535.975 670.492L500.442 661.405C479.235 744.355 480.984 831.547 505.501 913.568L540.633 903.062C518.031 827.417 516.4 746.996 535.975 670.492Z" fill="#151516"/>
<path d="M1427.8 790.642C1427.8 887.861 1250.21 966.668 1031.14 966.668C812.046 966.668 634.455 887.861 634.455 790.642C634.455 693.423 812.046 614.617 1031.14 614.617C1250.21 614.617 1427.8 693.423 1427.8 790.642Z" fill="#FFBA52"/>
</svg>
