<svg width="4713" height="4118" viewBox="0 0 4713 4118" fill="none" xmlns="http://www.w3.org/2000/svg">
<path d="M4649.21 548.546C4072.97 371.053 3496.72 193.546 2920.47 16.0527C2735.55 277.759 2550.61 539.466 2365.68 801.173C2946.48 963.4 3527.27 1125.63 4108.05 1287.85C4288.44 1041.41 4468.83 794.986 4649.21 548.546Z" fill="#FCC062"/>
<path d="M4649.21 548.546C4072.97 371.053 3496.72 193.546 2920.47 16.0527C2735.55 277.759 2550.61 539.466 2365.68 801.173C2946.48 963.4 3527.27 1125.63 4108.05 1287.85C4288.44 1041.41 4468.83 794.986 4649.21 548.546V548.546Z" stroke="black" stroke-width="26.6667" stroke-miterlimit="10"/>
<path d="M4108.05 1287.85C3520.48 1436.45 2932.91 1585.05 2345.33 1733.65C2345.33 2521.87 2345.33 3310.07 2345.33 4098.28C2932.91 3876 3520.48 3653.72 4108.05 3431.44C4108.05 2716.91 4108.05 2002.39 4108.05 1287.85Z" fill="#FBB03B"/>
<path d="M4108.05 1287.85C3520.48 1436.45 2932.91 1585.05 2345.33 1733.65C2345.33 2521.87 2345.33 3310.07 2345.33 4098.28C2932.91 3876 3520.48 3653.72 4108.05 3431.44C4108.05 2716.91 4108.05 2002.39 4108.05 1287.85Z" stroke="black" stroke-width="26.6667" stroke-miterlimit="10"/>
<path d="M582.619 1287.85C1170.19 1436.45 1757.76 1585.05 2345.33 1733.65C2345.33 2521.87 2345.33 3310.07 2345.33 4098.28C1757.76 3876 1170.19 3653.72 582.619 3431.44C582.619 2716.91 582.619 2002.39 582.619 1287.85Z" fill="#FBB03B"/>
<path d="M582.619 1287.85C1170.19 1436.45 1757.76 1585.05 2345.33 1733.65C2345.33 2521.87 2345.33 3310.07 2345.33 4098.28C1757.76 3876 1170.19 3653.72 582.619 3431.44C582.619 2716.91 582.619 2002.39 582.619 1287.85Z" stroke="black" stroke-width="26.6667" stroke-miterlimit="10"/>
<path d="M2365.68 801.173C1771.33 963.4 1176.97 1125.63 582.62 1287.85C402.41 1034.24 222.2 780.626 41.9902 527.013C622.781 374.026 1203.57 221.053 1784.36 68.0664C1978.13 312.44 2171.91 556.8 2365.68 801.173Z" fill="#FCC062"/>
<path d="M2365.68 801.173C1771.33 963.4 1176.97 1125.63 582.62 1287.85C402.41 1034.24 222.2 780.626 41.9902 527.013C622.781 374.026 1203.57 221.053 1784.36 68.0664C1978.13 312.44 2171.91 556.8 2365.68 801.173Z" stroke="black" stroke-width="26.6667" stroke-miterlimit="10"/>
<path d="M2345.33 1733.65C1756.05 1585.05 1166.77 1436.45 577.495 1287.85C392.567 1549.56 207.639 1811.27 22.7109 2072.97C603.5 2235.19 1184.29 2397.41 1765.08 2559.64C1958.49 2284.32 2151.92 2008.99 2345.33 1733.65Z" fill="#FCC062"/>
<path d="M2345.33 1733.65C1756.05 1585.05 1166.77 1436.45 577.495 1287.85C392.567 1549.56 207.639 1811.27 22.7109 2072.97C603.5 2235.19 1184.29 2397.41 1765.08 2559.64C1958.49 2284.32 2151.92 2008.99 2345.33 1733.65Z" stroke="black" stroke-width="26.6667" stroke-miterlimit="10"/>
<path d="M4689.37 2020.96C4115.43 2192.68 3541.48 2364.4 2967.52 2536.11C2760.13 2268.63 2552.73 2001.15 2345.33 1733.65C2932.91 1585.05 3520.48 1436.45 4108.05 1287.85C4301.83 1532.21 4495.6 1776.59 4689.37 2020.96Z" fill="#FCC062"/>
<path d="M4689.37 2020.96C4115.43 2192.68 3541.48 2364.4 2967.52 2536.11C2760.13 2268.63 2552.73 2001.15 2345.33 1733.65C2932.91 1585.05 3520.48 1436.45 4108.05 1287.85C4301.83 1532.21 4495.6 1776.59 4689.37 2020.96Z" stroke="black" stroke-width="26.6667" stroke-miterlimit="10"/>
<path d="M602.969 1287.85C1197.32 1125.63 1791.68 963.399 2386.03 801.173C2966.83 963.399 3547.61 1125.63 4128.4 1287.85C3540.83 1436.45 2953.25 1585.05 2365.68 1733.65C1778.11 1585.05 1190.53 1436.45 602.969 1287.85Z" fill="#B96E16"/>
<path d="M602.969 1287.85C1197.32 1125.63 1791.68 963.4 2386.03 801.173C2966.83 963.4 3547.61 1125.63 4128.4 1287.85C3540.83 1436.45 2953.25 1585.05 2365.68 1733.65C1778.11 1585.05 1190.53 1436.45 602.969 1287.85V1287.85Z" stroke="black" stroke-width="13.3333" stroke-miterlimit="10"/>
</svg>
