<svg width="2343" height="1042" viewBox="0 0 2343 1042" fill="none" xmlns="http://www.w3.org/2000/svg">
<path d="M660.477 407.427C687.216 436.781 686.167 481.796 658.046 509.873C643.556 524.395 624.586 531.701 605.617 531.701C587.505 531.701 569.44 525.086 555.094 511.784L467.061 430.028C435.222 400.478 425.642 353.933 443.134 314.213L492.465 202.426L526.02 217.234L476.689 329.002C465.488 354.438 471.637 384.226 491.989 403.147L580.069 484.899C594.893 498.706 617.771 498.301 632.117 483.946C646.369 469.733 646.893 446.98 633.356 432.12L569.012 361.53C564.102 356.106 562.863 348.257 565.914 341.57L653.899 148.441L687.263 163.649L604.282 345.774L660.477 407.427ZM429.55 583.203L378.408 563.834C379.266 571.56 378.17 579.595 374.404 587.164C364.777 606.657 347.856 601.462 329.697 571.278C311.585 541.095 314.921 523.723 336.655 524.352C345.235 524.605 352.956 527.474 359.391 531.982L367.779 479.704L404.003 485.504L396.615 531.515L442.562 548.907L429.55 583.203ZM379.457 699.694C367.589 706.81 349.811 699.003 339.706 682.217C329.649 665.436 331.079 646.053 342.947 638.918C354.815 631.797 372.593 639.623 382.698 656.404C392.754 673.176 391.325 692.555 379.457 699.694ZM279.317 533.102C267.449 540.237 249.671 532.416 239.566 515.63C229.509 498.863 230.939 479.48 242.807 472.345C254.675 465.21 272.454 473.031 282.558 489.817C292.615 506.603 291.185 525.982 279.317 533.102ZM2089.36 474.862C2023.73 454.201 1955.95 456.293 1890.37 458.285C1842.85 459.763 1798.28 461.135 1754.62 454.706C1681.94 443.987 1611.68 409.295 1556.78 357.007C1527.03 328.721 1503.25 296.278 1480.28 264.899C1450.25 223.987 1421.94 185.349 1381.81 155.757C1316.6 107.625 1234.05 73.395 1136.44 54.0163C882.347 3.57741 679.923 74.3101 554.904 142.555C418.779 216.853 341.993 304.438 341.231 305.305C337.323 309.843 331.365 312.121 325.455 311.544C319.973 310.967 188.901 300.492 68.743 474.185C59.0198 488.173 15.5988 556.771 51.3936 613.134L119.027 572.499C124.175 569.382 130.562 569.029 136.09 571.531C141.572 574.047 145.48 579.099 146.528 585.043C166.69 700.49 239.948 718.229 243.093 718.935L235.515 754.804C234.085 754.523 221.502 751.716 204.629 742.26C195.907 768.273 189.044 812.625 214.21 864.537L315.16 803.875C317.495 802.488 320.117 801.616 322.786 801.349C332.08 800.41 550.852 775.941 546.944 582.05L583.596 581.306C584.549 629.872 573.492 669.297 555.523 701.405V784.301C555.523 822.486 569.297 859.414 594.32 888.248L666.101 971.082C681.448 987.486 706.9 990.436 726.156 977.602C737.357 970.157 744.601 958.752 746.651 945.479C748.653 932.219 745.126 919.175 736.689 908.751L675.919 833.682C672.916 829.988 671.487 825.284 671.916 820.551L691.458 597.091C692.029 590.49 696.128 584.719 702.182 581.983C711.19 577.922 924.099 483.202 1024.67 567.628C1027.58 570.073 1029.62 573.342 1030.63 576.993C1030.86 577.922 1056.08 670.846 1131.1 772.91C1134.53 777.543 1135.53 783.5 1133.91 789.019L1095.4 917.626C1091.49 930.761 1096.45 944.806 1107.79 952.542C1114.99 957.46 1123.62 959.143 1132.1 957.303C1140.63 955.463 1147.83 950.354 1152.36 942.91C1152.6 942.528 1152.83 942.152 1153.07 941.785L1230.91 832.376C1238.77 821.309 1244.16 808.636 1246.97 795.368C1205.69 744.905 1154.41 645.829 1180.57 479.761L1216.8 485.461C1180.19 717.824 1305.97 803.246 1311.36 806.773C1318.41 811.391 1321.46 820.28 1318.65 828.244L1272.13 959.92C1268.18 971.11 1270.27 983.287 1277.66 992.543C1284.14 1000.59 1293.72 1005.24 1304.07 1005.3C1304.12 1005.3 1304.16 1005.3 1304.26 1005.3C1314.22 1005.3 1323.51 1001.01 1330 993.487L1400.63 885.326C1401.01 884.778 1401.39 884.245 1401.82 883.739C1411.5 871.896 1414.31 855.62 1409.12 841.222C1399.25 813.779 1405.02 783.105 1424.23 761.138C1433.95 749.971 1445.34 738.862 1457.45 727.108C1481.33 703.865 1508.4 677.513 1524.84 647.163C1542.86 613.92 1559.87 549.197 1553.58 467.245C1553.06 460.32 1556.49 453.681 1562.45 450.112C1568.45 446.561 1575.94 446.671 1581.75 450.407C1632.42 482.807 1689.23 504.368 1746.09 512.751C1794.99 519.958 1844.23 518.428 1891.89 516.936C1955.43 514.972 2015.48 513.104 2071.72 530.829C2162.14 559.297 2232.87 642.964 2247.79 739.019C2249.98 753.16 2261.8 763.707 2275.86 764.102C2284.3 764.312 2293.02 760.69 2298.89 754.06C2304.56 747.598 2307.04 739.09 2305.7 730.673C2287.11 612.543 2200.13 509.735 2089.36 474.862" fill="#F3EEE0"/>
<path d="M670.511 89.9844C670.511 89.9844 833.732 61.9817 902.16 242.149C970.632 422.321 1109.31 436.899 1225.78 348.935C1342.26 260.972 1507.22 316.141 1556.74 357.009C1606.3 397.864 1496.2 84.2565 1113.6 36.923C731.047 -10.3931 670.511 89.9844 670.511 89.9844" fill="#FF7C7C"/>
<path d="M157.872 628.119C157.872 628.119 331.835 551.238 535.454 702.333C535.454 702.333 441.04 798.611 333.013 831.717L205.41 889.26C205.41 889.26 161.405 779.806 193.158 724.526C193.158 724.526 147.018 662.796 157.872 628.119" fill="#FF7C7C"/>
<path d="M1200.45 636.292C1200.45 636.292 1361.82 615.449 1420.49 796.364L1432.72 872.151L1346.6 1027.87H1286.02L1246.9 965.043L1298.25 831.715C1298.25 831.715 1190.77 706.742 1200.45 636.292" fill="#FF7C7C"/>
<path d="M342.956 638.916C331.103 646.053 329.63 665.433 339.724 682.217C349.817 699.001 367.597 706.81 379.486 699.691C391.339 692.554 392.776 673.173 382.683 656.404C372.59 639.62 354.81 631.797 342.956 638.916Z" fill="#151516"/>
<path d="M242.786 472.344C230.924 479.479 229.512 498.864 239.574 515.633C249.671 532.415 267.464 540.239 279.326 533.104C291.189 525.983 292.637 506.602 282.539 489.819C272.442 473.033 254.649 465.21 242.786 472.344Z" fill="#151516"/>
<path d="M404.006 485.507L367.782 479.704L359.415 531.98C352.93 527.47 345.215 524.605 336.666 524.355C314.931 523.721 311.562 541.093 329.711 571.277C347.859 601.461 364.776 606.656 374.411 587.161C378.179 579.594 379.266 571.56 378.396 563.834L429.544 583.202L442.549 548.903L396.617 531.516L404.006 485.507Z" fill="#151516"/>
<path d="M653.882 148.444L565.869 341.577C562.851 348.262 564.058 356.112 569.037 361.533L633.322 432.125C646.865 446.985 646.337 469.736 632.115 483.95C617.779 498.304 594.879 498.711 580.053 484.904L492.002 403.15C471.63 384.231 465.481 354.441 476.685 329.004L525.993 217.236L492.454 202.434L443.147 314.216C425.605 353.935 435.225 400.479 467.028 430.031L555.079 511.786C569.415 525.087 587.523 531.704 605.594 531.704C624.57 531.704 643.545 524.401 658.07 509.877C686.138 481.8 687.194 436.788 660.447 407.431L604.273 345.776L687.269 163.654L653.882 148.444" fill="#151516"/>
<path d="M2298.9 754.062C2293.05 760.691 2284.29 764.312 2275.86 764.101C2261.78 763.708 2249.95 753.162 2247.79 739.019C2232.9 642.965 2162.15 559.301 2071.73 530.828C2015.45 513.103 1955.44 514.971 1891.88 516.939C1844.22 518.429 1794.99 519.956 1746.09 512.753C1689.23 504.367 1632.38 482.811 1581.76 450.406C1575.91 446.671 1568.44 446.561 1562.45 450.114C1556.52 453.682 1553.07 460.325 1553.59 467.246C1559.87 549.2 1542.87 613.918 1524.86 647.165C1508.43 677.515 1481.32 703.866 1457.42 727.108C1445.35 738.866 1433.95 749.972 1424.18 761.141C1405.02 783.105 1399.27 813.78 1409.14 841.223C1414.31 855.62 1411.49 871.898 1401.81 883.738C1401.38 884.245 1401 884.777 1400.66 885.323L1330.02 993.484C1323.5 1001.01 1314.21 1005.3 1304.25 1005.3C1304.2 1005.3 1304.11 1005.3 1304.06 1005.3C1293.76 1005.24 1284.13 1000.59 1277.67 992.546C1270.24 983.288 1268.18 971.114 1272.16 959.916L1318.67 828.244C1321.49 820.284 1318.43 811.39 1311.34 806.774C1305.97 803.244 1180.2 717.827 1216.79 485.464L1180.58 479.76C1154.43 645.829 1205.68 744.905 1246.97 795.365C1244.14 808.637 1238.78 821.309 1230.87 832.377L1153.04 941.784C1152.8 942.153 1152.56 942.531 1152.33 942.909C1147.82 950.352 1140.64 955.467 1132.11 957.306C1123.59 959.145 1114.97 957.459 1107.78 952.545C1096.43 944.806 1091.5 930.759 1095.43 917.627L1133.89 789.02C1135.56 783.497 1134.51 777.544 1131.11 772.908C1056.1 670.844 1030.86 577.921 1030.62 576.997C1029.66 573.343 1027.56 570.072 1024.68 567.629C924.103 483.203 711.207 577.921 702.155 581.983C696.12 584.717 692.049 590.493 691.474 597.093L671.885 820.548C671.502 825.284 672.891 829.987 675.908 833.68L736.687 908.752C745.117 919.174 748.662 932.22 746.65 945.481C744.591 958.752 737.358 970.156 726.15 977.598C706.896 990.438 681.464 987.488 666.09 971.085L594.342 888.244C569.293 859.413 555.547 822.487 555.547 784.297V701.404C573.46 669.297 584.572 629.876 583.566 581.308L546.926 582.05C550.853 775.945 332.114 800.409 322.775 801.352C320.092 801.615 317.506 802.487 315.159 803.876L214.195 864.537C189.002 812.626 195.899 768.272 204.616 742.262C221.475 751.716 234.072 754.522 235.509 754.805L243.076 718.933C239.963 718.234 166.683 700.494 146.519 585.043C145.465 579.1 141.585 574.047 136.077 571.533C130.569 569.033 124.199 569.382 119.027 572.5L51.3982 613.132C15.6202 556.772 59.0616 488.175 68.7365 474.185C188.906 300.492 319.996 310.971 325.457 311.545C331.396 312.12 337.335 309.845 341.262 305.31C342.028 304.438 418.805 216.851 554.924 142.555C679.931 74.312 882.338 3.57878 1136.42 54.0149C1234.04 73.3972 1316.61 107.626 1381.84 155.759C1421.93 185.352 1450.28 223.987 1480.27 264.902C1503.26 296.277 1527.06 328.72 1556.76 357.01C1611.69 409.3 1681.95 443.989 1754.61 454.707C1798.29 461.139 1842.88 459.76 1890.4 458.285C1955.92 456.292 2023.74 454.199 2089.35 474.86C2200.14 509.736 2287.07 612.543 2305.7 730.676C2307.04 739.091 2304.55 747.602 2298.9 754.062V754.062ZM2100.37 439.875C2028.81 417.36 1957.88 419.534 1888.91 421.642C1843.41 423.05 1800.4 424.396 1759.98 418.414C1694.69 408.806 1631.52 377.556 1582.04 330.449C1554.7 304.424 1532.9 274.692 1509.82 243.216C1479.55 201.894 1448.22 159.154 1403.59 126.247C1333.99 74.901 1246.54 38.4975 1143.56 18.0472C878.027 -34.6638 666.616 39.5368 536.005 111.079C414.925 177.43 340.496 252.148 319.517 274.677C319.374 274.677 319.23 274.677 319.134 274.677C303.712 274.677 272.197 276.895 232.396 291.612C182.153 310.209 107.723 353.342 38.5623 453.313C0.581095 508.189 -20.828 588.525 33.0066 649.455C38.8498 656.083 48.6202 657.601 56.1877 653.037L115.961 617.093C129.133 667.007 151.835 699.144 173.963 719.733C160.313 753.205 144.412 821.165 191.541 899.566C194.989 905.299 201.072 908.455 207.25 908.455C210.459 908.455 213.764 907.612 216.686 905.831L330.773 837.291C352.613 834.216 451.422 816.826 518.859 749.58V784.297C518.859 831.309 535.814 876.755 566.611 912.277L638.885 995.621C655.265 1013.16 677.489 1022.26 700 1022.26C716.045 1022.26 732.233 1017.61 746.506 1008.11C766.095 995.074 779.315 974.26 782.907 951.013C786.451 927.77 779.985 903.948 765.185 885.677L709.052 816.362L727.013 611.169C788.271 585.56 929.707 542.754 996.904 592.404C1003.66 614.957 1030.96 696.179 1096.14 787.195L1060.27 907.109C1051.74 935.606 1062.52 966.042 1087.09 982.823C1102.71 993.47 1121.43 997.167 1139.87 993.149C1158.07 989.217 1173.49 978.36 1183.31 962.546L1260.76 853.627C1266.94 844.93 1272.06 835.509 1276.04 825.634C1277.28 826.716 1278.48 827.727 1279.63 828.665L1237.58 947.713C1229.34 970.927 1233.65 996.281 1249.07 1015.48C1262.49 1032.21 1282.46 1041.86 1303.87 1041.96C1304.01 1041.96 1304.11 1041.96 1304.25 1041.96C1325.52 1041.96 1345.44 1032.53 1358.95 1016.03C1359.38 1015.52 1359.76 1015 1360.1 1014.46L1430.84 906.142C1448.13 884.47 1453.01 854.944 1443.63 828.809C1438.26 813.89 1441.42 797.195 1451.82 785.241C1460.58 775.212 1471.5 764.623 1483 753.402C1508.76 728.33 1537.98 699.9 1557.09 664.637C1579.27 623.693 1591.72 562.289 1591.53 498.706C1638.66 524.243 1689.67 541.489 1740.72 549.032C1792.88 556.7 1843.79 555.115 1893.03 553.597C1953.38 551.729 2010.37 549.971 2060.71 565.8C2138.11 590.182 2198.75 662.036 2211.54 744.637C2216.42 776.28 2243.1 799.877 2274.85 800.758C2294.54 801.251 2313.36 793.105 2326.44 778.272C2339.32 763.612 2344.97 744.173 2341.95 724.958C2321.22 593.415 2224.13 478.836 2100.37 439.875" fill="#151516"/>
</svg>
