<svg width="1679" height="1327" viewBox="0 0 1679 1327" fill="none" xmlns="http://www.w3.org/2000/svg">
<path d="M1419.41 1047.81C1418.72 1048.19 1418.01 1048.55 1417.3 1048.93C1447.76 1071.23 1502.73 1108.1 1542.96 1115.83C1549.87 1117.17 1562.23 1118.6 1567.5 1113.26C1571.34 1109.39 1572.38 1101.87 1572.28 1095.36C1543.77 1082.21 1484.38 1048.35 1458.19 1032.69C1445.09 1039.24 1432.18 1044.13 1419.41 1047.81Z" fill="#A7A7A7"/>
<path d="M135.228 1062.06C150.972 1050.42 170.411 1050.02 178.629 1061.15C186.861 1072.28 180.764 1090.73 165.018 1102.36C149.272 1114 129.833 1114.41 121.617 1103.31C113.386 1092.15 119.482 1073.7 135.228 1062.06ZM244.715 1041.56C273.045 1020.62 290.658 1022.33 292.09 1044.02C292.651 1052.57 290.544 1060.52 286.669 1067.39L339.509 1070.77L337.162 1107.35L290.658 1104.38L277.706 1151.78L242.34 1142.1L256.749 1089.31C249.152 1090.92 241.047 1090.57 233.154 1087.57C212.831 1079.82 216.398 1062.5 244.715 1041.56ZM291.541 946.548C307.287 934.911 326.727 934.501 334.942 945.633C343.173 956.765 337.08 975.245 321.334 986.85C305.588 998.518 286.148 998.928 277.933 987.765C269.702 976.664 275.798 958.184 291.541 946.548ZM115.871 1212.93C271.386 1337.87 627.04 1272.18 797.963 1240.61L815.813 1237.33C855.9 1229.96 886.494 1249.98 913.474 1267.64C933.995 1281.07 951.75 1292.68 968.884 1289.4C982.117 1286.88 999.084 1281.48 1004.8 1270.1C1007.92 1263.89 1007.29 1256.32 1005.26 1249.22C993.268 1249.19 981.246 1246.61 969.925 1241.47L919.374 1218.35L652.083 1167.2L658.965 1131.22L928.435 1182.75C929.879 1183.03 931.27 1183.47 932.604 1184.07L985.163 1208.07C1000.64 1215.17 1017.69 1213.94 1031.99 1204.73C1046.29 1195.55 1054.49 1180.54 1054.49 1163.54C1054.49 1142.95 1041.43 1124.41 1021.99 1117.37C902.083 1074.04 825.378 1026.43 794.002 975.876L825.17 956.513C843.667 986.345 895.006 1032.48 1034.45 1082.87C1053.88 1089.91 1069.62 1103.56 1079.55 1120.65C1147.6 1108.77 1235.84 1088.05 1322.61 1052.7C1221.95 1034.75 1149.61 953.36 1148.57 952.161L1176.23 928.068C1181.51 934.123 1307.29 1075.15 1449.91 995.585C1455.77 992.274 1462.96 992.495 1468.63 996.09C1493.77 1011.98 1580.73 1060.89 1594.65 1065.06C1617.12 1071.81 1632.11 1058.59 1638.1 1045.25C1644.02 1031.98 1643.91 1012.17 1624.03 999.937L1553.71 957.774C1533.03 945.066 1520.11 923.401 1519 899.718C1516.6 849.073 1488.19 801.044 1441.06 767.932C1434.4 763.265 1431.62 754.782 1434.21 747.088C1471.4 636.651 1444.29 509.154 1366.77 429.78C1351.46 414.107 1334.86 400.484 1318.81 387.302C1306.87 377.526 1296.01 368.601 1285.73 359.078C1237.99 314.834 1207.87 260.436 1200.95 205.911C1195.4 162.361 1205.68 117.928 1229.15 83.996C1236.96 72.7064 1236.79 58.3265 1228.73 48.2352C1222.83 40.8244 1214.29 36.7562 1204.99 37.1661C1195.54 37.4815 1187 42.1488 1181.57 50.0011C1149.57 96.2318 1135.43 155.77 1142.73 213.322C1151.39 281.47 1188.01 348.545 1245.85 402.123C1257.54 412.94 1269.73 422.937 1281.52 432.618C1297.12 445.421 1311.76 457.436 1324.79 470.776C1383.7 531.071 1406.58 626.434 1383.1 713.66C1381.75 718.674 1378.35 722.869 1373.73 725.234C1369.12 727.599 1363.73 727.883 1358.88 726.054C1322.64 712.304 1281.41 701.425 1236.33 693.698C986.273 650.842 683.743 708.646 439.036 844.752C487.748 878.684 536.163 941.786 550.125 1016.65C560.056 1069.91 556.249 1149.29 481.737 1224.94L455.612 1199.21C519.026 1134.84 522.397 1068.05 514.068 1023.37C499.883 947.242 445.217 885.559 397.517 862.664C392.544 861.781 389.567 857.997 376.801 841.693L329.313 781.082C282.96 830.719 286.388 876.319 286.583 878.4C287.299 886.473 282.667 894.199 275.151 897.227C167.645 940.241 115.253 1024.31 114.733 1025.17C110.929 1031.38 103.821 1034.78 96.5863 1033.77L37.3411 1025.67C37.2591 1031.31 37.3 1036.83 37.483 1042.04C40.0374 1116.68 65.6864 1172.59 115.871 1212.93Z" fill="#A7A7A7"/>
<path d="M165.014 1102.37C180.758 1090.75 186.855 1072.29 178.624 1061.18C170.407 1050.04 150.967 1050.44 135.223 1062.09C119.476 1073.71 113.381 1092.17 121.61 1103.31C129.829 1114.42 149.268 1114.02 165.014 1102.37" fill="#151516"/>
<path d="M321.333 986.861C337.078 975.226 343.174 956.773 334.944 945.659C326.727 934.519 307.288 934.936 291.541 946.57C275.796 958.204 269.7 976.658 277.933 987.772C286.148 998.911 305.589 998.521 321.333 986.861Z" fill="#151516"/>
<path d="M233.151 1087.58C241.046 1090.56 249.15 1090.92 256.75 1089.31L242.339 1142.1L277.706 1151.76L290.655 1104.38L337.16 1107.37L339.506 1070.77L286.667 1067.38C290.543 1060.52 292.652 1052.57 292.088 1044.03C290.655 1022.33 273.042 1020.64 244.713 1041.58C216.395 1062.49 212.828 1079.83 233.151 1087.58" fill="#151516"/>
<path d="M37.3411 1025.67L96.5844 1033.81C103.82 1034.79 110.926 1031.39 114.731 1025.17C115.252 1024.34 167.644 940.265 275.15 897.227C282.665 894.21 287.3 886.46 286.582 878.424C286.385 876.327 282.961 830.716 329.311 781.072L376.798 841.706C389.567 858.001 392.544 861.78 397.515 862.67C445.215 885.57 499.881 947.253 514.067 1023.39C522.396 1068.08 519.025 1134.84 455.608 1199.19L481.734 1224.95C556.247 1149.29 560.055 1069.92 550.122 1016.65C536.162 941.79 487.747 878.678 439.034 844.755C683.742 708.653 986.27 650.846 1236.33 693.693C1281.4 701.443 1322.64 712.306 1358.88 726.059C1363.72 727.901 1369.12 727.615 1373.72 725.233C1378.34 722.883 1381.74 718.69 1383.09 713.672C1406.58 626.42 1383.7 531.101 1324.79 470.784C1311.75 457.444 1297.12 445.438 1281.51 432.637C1269.73 422.95 1257.54 412.945 1245.85 402.145C1188.01 348.53 1151.39 281.48 1142.73 213.317C1135.42 155.764 1149.57 96.2409 1181.56 50.0265C1187 42.1812 1195.54 37.4803 1204.99 37.1627C1214.29 36.7498 1222.83 40.8153 1228.73 48.2477C1236.79 58.3481 1236.96 72.7366 1229.15 84.0123C1205.68 117.935 1195.4 162.37 1200.95 205.917C1207.87 260.453 1237.98 314.862 1285.73 359.107C1296.01 368.636 1306.87 377.529 1318.81 387.312C1334.86 400.494 1351.46 414.12 1366.77 429.779C1444.29 509.153 1471.4 636.679 1434.2 747.086C1431.62 754.804 1434.4 763.285 1441.06 767.954C1488.18 801.05 1516.6 849.075 1519 899.736C1520.11 923.399 1533.03 945.061 1553.7 957.766L1624.03 999.947C1643.91 1012.18 1644.02 1032 1638.09 1045.24C1632.11 1058.61 1617.12 1071.79 1594.65 1065.06C1580.73 1060.9 1493.77 1011.99 1468.63 996.072C1462.95 992.515 1455.76 992.292 1449.91 995.564C1307.29 1075.13 1181.51 934.135 1176.23 928.068L1148.57 952.176C1149.61 953.351 1221.94 1034.76 1322.61 1052.7C1235.84 1088.06 1147.6 1108.77 1079.55 1120.68C1069.62 1103.56 1053.87 1089.93 1034.45 1082.88C895.002 1032.5 843.664 986.353 825.168 956.528L793.998 975.871C825.378 1026.44 902.082 1074.05 1021.99 1117.4C1041.43 1124.42 1054.49 1142.94 1054.49 1163.56C1054.49 1180.55 1046.29 1195.57 1031.99 1204.75C1017.69 1213.96 1000.64 1215.17 985.161 1208.09L932.604 1184.07C931.267 1183.47 929.879 1183.03 928.43 1182.77L658.962 1131.22L652.082 1167.21L919.371 1218.35L969.921 1241.47C981.244 1246.61 993.267 1249.19 1005.26 1249.22C1007.28 1256.33 1007.92 1263.89 1004.8 1270.12C999.08 1281.49 982.115 1286.89 968.882 1289.4C951.748 1292.67 933.992 1281.08 913.472 1267.64C886.489 1249.98 855.9 1229.97 815.814 1237.34L797.959 1240.64C627.036 1272.18 271.386 1337.87 115.872 1212.91C65.6843 1172.61 40.0379 1116.71 37.4809 1042.06C37.2998 1036.82 37.2554 1031.33 37.3411 1025.67ZM1567.51 1113.28C1562.25 1118.58 1549.89 1117.15 1542.97 1115.82C1502.75 1108.1 1447.77 1071.22 1417.29 1048.92C1418.01 1048.54 1418.73 1048.19 1419.43 1047.81C1432.18 1044.13 1445.1 1039.24 1458.19 1032.69C1484.38 1048.35 1543.79 1082.21 1572.29 1095.36C1572.37 1101.87 1571.33 1109.37 1567.51 1113.28ZM92.8935 1241.5C261.526 1377 614.817 1311.76 804.617 1276.69L822.443 1273.39C848.089 1268.66 870.099 1283.08 893.401 1298.32C914.749 1312.3 936.717 1326.69 962.548 1326.69C966.833 1326.69 971.229 1326.31 975.737 1325.42C1006.79 1319.51 1027.59 1306.45 1037.58 1286.57C1042.51 1276.76 1046.3 1261.67 1041.12 1241.44C1044.79 1239.75 1048.37 1237.82 1051.82 1235.59C1076.46 1219.78 1091.16 1192.84 1091.16 1163.52C1091.16 1160.95 1091.02 1158.44 1090.8 1155.93C1171.8 1141.45 1279.39 1114.96 1380.65 1067.28C1406.32 1087.13 1480.13 1141.1 1536.05 1151.84C1542.67 1153.11 1548.89 1153.74 1554.7 1153.74C1570.98 1153.74 1584.07 1148.75 1593.76 1138.84C1603.97 1128.43 1607.64 1114.96 1608.64 1103.4C1635.61 1102.48 1659.7 1086.72 1671.56 1060.23C1686.89 1026.02 1675.23 988.385 1643.06 968.629L1572.74 926.417C1562.57 920.191 1556.18 909.551 1555.62 897.989C1552.88 840.023 1522.96 785.296 1473 746.006C1508.27 625.912 1476.92 490.064 1393.01 404.146C1376.28 387.026 1358.88 372.765 1341.62 358.599C1330.56 349.547 1320.12 340.971 1310.66 332.204C1269.21 293.803 1243.17 247.303 1237.32 201.311C1232.9 166.595 1240.92 131.465 1259.31 104.88C1276.39 80.2007 1275.63 48.2476 1257.27 25.2198C1244.21 8.79865 1224.75 -0.285395 1203.76 0.508667C1182.59 1.2392 1163.51 11.6574 1151.41 29.1586C1114.33 82.7419 1097.91 151.539 1106.35 217.954C1116.1 294.629 1156.77 369.589 1220.92 429.016C1233.42 440.61 1246.05 450.964 1258.36 461.065C1273.06 473.103 1286.92 484.505 1298.55 496.416C1343.51 542.44 1363.88 616.002 1351.98 684.641C1318.62 673.397 1281.91 664.313 1242.52 657.579C979.726 612.508 661.113 674.985 406.939 820.711C387.404 795.778 345.574 742.385 345.574 742.385C342.458 738.383 337.808 735.874 332.764 735.429C327.71 734.952 322.694 736.636 318.918 740.034C262.241 790.727 251.666 843.358 250.066 867.974C159.792 907.518 107.921 971.138 90.2379 995.913L22.8312 986.702C17.9681 986.003 13.0733 987.306 9.1917 990.291C5.31012 993.245 2.77847 997.66 2.15272 1002.52C1.31097 1009.13 0.831451 1016.02 0.691688 1023.61C0.564632 1030.41 0.609077 1037.01 0.825073 1043.3C3.73785 1128.08 34.7143 1194.75 92.8935 1241.5Z" fill="#151516"/>
</svg>
