<svg width="1482" height="1271" viewBox="0 0 1482 1271" fill="none" xmlns="http://www.w3.org/2000/svg">
<path d="M1047.72 423.694C1103.15 467.903 1175.52 490.698 1246.24 486.269L1248.53 522.872C1241.98 523.282 1235.41 523.477 1228.85 523.477C1155.56 523.477 1082.18 498.088 1024.86 452.367L1047.72 423.694ZM1129.61 248.242C1149.19 248.242 1165.07 259.478 1165.07 273.307C1165.07 287.157 1149.19 298.371 1129.61 298.371C1110.04 298.371 1094.16 287.157 1094.16 273.307C1094.16 259.478 1110.04 248.242 1129.61 248.242ZM1223.74 296.837C1258.96 296.837 1272.12 308.635 1260.38 326.958C1255.83 334.067 1249.51 339.166 1242.43 342.385L1285.4 376.244L1262.7 405.047L1224.13 374.645L1188.49 404.68L1164.87 376.633L1205.35 342.515C1198.14 339.296 1191.72 334.153 1187.09 326.958C1175.36 308.635 1188.52 296.837 1223.74 296.837V296.837ZM1323.98 248.242C1343.56 248.242 1359.43 259.478 1359.43 273.307C1359.43 287.157 1343.56 298.371 1323.98 298.371C1304.4 298.371 1288.53 287.157 1288.53 273.307C1288.53 259.478 1304.4 248.242 1323.98 248.242ZM671.155 1234.1C665.263 1204.28 645.238 1178.59 616.84 1165.89L582.982 1150.76C575.773 1147.54 571.436 1140.07 572.219 1132.22C572.999 1124.36 578.721 1117.87 586.422 1116.15C586.986 1115.99 649.054 1101 683.364 1044.54C708.97 1002.38 713.387 947.479 696.493 881.317L732.027 872.242C747.891 934.384 746.906 988.706 729.172 1034.25C897.837 1039.55 952.516 937.064 961.01 918.438C960.286 816.538 962.345 716.496 970.9 659.301L1007.17 664.746C988.198 791.603 1002.76 1150.67 1006.48 1234.1H1056.15H1149.43C1143.98 1202.68 1124.74 1174.79 1096.52 1158.73L1077.76 1148.06C1070.86 1144.13 1067.27 1136.22 1068.86 1128.44L1131.27 823.085L1167.2 830.431L1107.45 1122.76L1114.67 1126.88C1154.33 1149.44 1180.74 1189.48 1186.49 1234.1H1285.03C1279.4 1200.95 1258.64 1172.13 1228.08 1156.34L1218.44 1151.37C1211.19 1147.61 1207.29 1139.53 1208.87 1131.51L1336 489.769C1337.04 484.562 1340.27 480.068 1344.87 477.432C1414.97 437.199 1448.73 374.451 1445.19 290.938C1442.46 226.332 1417.61 172.875 1417.36 172.357C1416.2 169.915 1415.6 167.214 1415.6 164.513V46.7531C1358.41 51.9605 1323.83 80.7847 1305.96 101.614C1322.67 111.165 1331.52 120.478 1332.51 121.515L1305.55 146.385C1303.44 144.181 1250.51 90.5728 1141.16 132.729C1135.54 134.911 1129.18 134.155 1124.19 130.741C1119.21 127.327 1116.23 121.666 1116.23 115.616V36.684C1048.43 34.6097 1012.92 107.405 1006.15 122.941C951.928 247.442 964.18 316.975 972.285 362.977C983.844 428.534 977.648 456.386 865.74 488.927C468.988 604.353 415.354 876.736 418.694 1028.83C418.818 1034.38 416.43 1039.68 412.203 1043.24C407.972 1046.81 402.356 1048.3 396.917 1047.26C326.473 1033.78 265.572 982.245 241.762 915.932C220.877 857.786 226.789 794.023 233.049 726.543C235.925 695.45 238.886 663.536 239.13 631.838C239.944 526.848 199.139 375.877 81.4523 295.822C74.637 291.219 66.1556 289.858 58.1842 292.105C50.148 294.395 43.5942 300.078 40.1995 307.706L38.9915 310.428C33.4641 322.831 37.7318 337.2 49.3593 345.345C132.386 403.556 181.394 510.491 180.454 631.384C180.225 660.684 177.504 690.048 174.622 721.12C168.048 792.035 161.25 865.349 186.539 935.767C220.408 1030.06 310.328 1099.42 410.302 1108.32C418.768 1109.1 425.609 1115.56 426.821 1123.99C431.953 1159.56 439.503 1196.55 449.29 1234.1H621.356H671.155" fill="#E9E00B"/>
<path d="M732.15 1148.07C725.878 1144.5 722.282 1137.57 722.962 1130.4L728.601 1070.88C722.679 1070.71 716.619 1070.4 710.443 1069.96C688.855 1102.35 660.634 1122.79 637.373 1135.06C675.968 1154.54 702.359 1191.76 708.335 1234.09H803.816C798.368 1202.67 779.127 1174.8 750.917 1158.73L732.15 1148.07" fill="#E9E00B"/>
<path d="M1323.98 298.384C1343.56 298.384 1359.43 287.16 1359.43 273.297C1359.43 259.475 1343.56 248.251 1323.98 248.251C1304.4 248.251 1288.53 259.475 1288.53 273.297C1288.53 287.16 1304.4 298.384 1323.98 298.384Z" fill="#151516"/>
<path d="M1129.61 298.384C1149.19 298.384 1165.06 287.16 1165.06 273.297C1165.06 259.475 1149.19 248.251 1129.61 248.251C1110.03 248.251 1094.16 259.475 1094.16 273.297C1094.16 287.16 1110.03 298.384 1129.61 298.384Z" fill="#151516"/>
<path d="M1205.35 342.527L1164.87 376.625L1188.49 404.683L1224.13 374.645L1262.7 405.043L1285.39 376.245L1242.43 342.387C1249.51 339.167 1255.83 334.068 1260.38 326.948C1272.12 308.649 1258.96 296.83 1223.74 296.83C1188.52 296.83 1175.36 308.649 1187.09 326.948C1191.72 334.168 1198.14 339.307 1205.35 342.527" fill="#151516"/>
<path d="M426.821 1123.98C425.608 1115.57 418.769 1109.09 410.3 1108.33C310.327 1099.41 220.408 1030.06 186.539 935.771C161.25 865.347 168.049 792.034 174.621 721.106C177.503 690.055 180.225 660.69 180.455 631.391C181.392 510.493 132.385 403.566 49.3591 345.361C37.7307 337.193 33.4626 322.85 38.9921 310.434L40.1987 307.697C43.5953 300.099 50.1474 294.405 58.1844 292.106C66.1556 289.85 74.6371 291.208 81.452 295.828C199.137 375.887 239.944 526.851 239.131 631.829C238.884 663.537 235.925 695.464 233.05 726.537C226.789 794.026 220.876 857.793 241.761 915.932C265.572 982.238 326.471 1033.79 396.918 1047.25C402.358 1048.3 407.973 1046.81 412.203 1043.25C416.43 1039.68 418.817 1034.38 418.694 1028.84C415.352 876.756 468.987 604.369 865.74 488.946C977.648 456.383 983.841 428.529 972.283 362.967C964.181 316.982 951.928 247.456 1006.15 122.945C1012.92 107.398 1048.43 34.6093 1116.23 36.6896V115.631C1116.23 121.675 1119.21 127.325 1124.19 130.741C1129.18 134.157 1135.54 134.901 1141.16 132.733C1250.51 90.5581 1303.44 144.186 1305.55 146.398L1332.5 121.522C1331.52 120.471 1322.67 111.164 1305.96 101.617C1323.82 80.7699 1358.4 51.9523 1415.6 46.7626V164.507C1415.6 167.223 1416.2 169.916 1417.35 172.347C1417.61 172.894 1442.45 226.347 1445.19 290.945C1448.73 374.464 1414.97 437.201 1344.86 477.427C1340.27 480.077 1337.04 484.566 1336 489.778L1208.87 1131.52C1207.29 1139.51 1211.19 1147.61 1218.44 1151.38L1228.07 1156.35C1258.64 1172.14 1279.4 1200.95 1285.03 1234.09H1186.49C1180.74 1189.48 1154.33 1149.45 1114.67 1126.87L1107.45 1122.76L1167.2 830.442L1131.27 823.107L1068.86 1128.45C1067.27 1136.22 1070.86 1144.13 1077.76 1148.07L1096.52 1158.73C1124.74 1174.79 1143.98 1202.68 1149.43 1234.09H1056.15H1006.48C1002.76 1150.68 988.197 791.596 1007.17 664.741L970.899 659.311C962.345 716.486 960.285 816.537 961.01 918.428C952.515 937.063 897.835 1039.54 729.172 1034.25C746.905 988.698 747.891 934.391 732.027 872.245L696.492 881.333C713.387 947.486 708.97 1002.38 683.363 1044.54C649.054 1100.99 586.986 1116.01 586.421 1116.14C578.721 1117.9 572.999 1124.36 572.217 1132.22C571.435 1140.06 575.771 1147.54 582.983 1150.76L616.841 1165.9C645.237 1178.6 665.264 1204.28 671.155 1234.09H621.356H449.289C439.503 1196.53 431.954 1159.57 426.821 1123.98V1123.98ZM803.816 1234.09H708.332C702.358 1191.76 675.968 1154.55 637.373 1135.06C660.634 1122.8 688.853 1102.35 710.441 1069.96C716.619 1070.4 722.678 1070.71 728.6 1070.88L722.961 1130.4C722.282 1137.58 725.878 1144.5 732.148 1148.07L750.915 1158.73C779.125 1174.79 798.366 1202.68 803.816 1234.09V1234.09ZM691.284 1270.74H823.729C833.857 1270.74 842.065 1262.55 842.065 1252.41C842.065 1200.63 814.094 1152.52 769.056 1126.87L760.588 1122.06L765.487 1070.33C847.881 1065.3 902.2 1035.34 935.013 1008.08C945.479 999.406 954.308 990.559 961.791 982.085C964.134 1119.06 970.185 1243.7 970.658 1253.31C971.142 1263.08 979.197 1270.74 988.972 1270.74H1056.15H1169.35H1304.92C1315.05 1270.74 1323.25 1262.55 1323.25 1252.41C1323.25 1199.03 1294.3 1150.52 1247.53 1125.14L1370.38 504.931C1544.45 398.267 1465.57 192.033 1452.27 160.697V27.6238C1452.27 17.4851 1444.07 9.27342 1433.94 9.27342C1342.45 9.27342 1292.39 57.9304 1270.72 86.8574C1241.68 78.4924 1202.45 75.6021 1152.9 90.0546V20.288C1152.9 11.4413 1146.58 3.84284 1137.89 2.2443C1056.44 -12.7338 997.916 50.0253 972.531 108.295C913.894 242.945 927.839 322.062 936.169 369.34C944.622 417.318 946.385 427.303 855.496 453.734C771.189 478.259 649.928 526.654 551.034 617.924C440.911 719.552 384.089 849.8 381.928 1005.41C333.967 988.917 292.994 950.114 276.281 903.537C258.146 853.063 263.691 793.238 269.582 729.734C272.512 698.092 275.543 665.376 275.803 632.114C276.688 518.092 231.716 353.661 102.072 265.5C86.2479 254.748 66.5783 251.595 48.1459 256.85C29.6303 262.128 14.5244 275.223 6.68671 292.807L5.4801 295.544C-7.07459 323.726 2.52592 357.296 28.3076 375.383C55.712 394.588 145.036 469.807 143.783 631.106C143.566 658.873 140.912 687.449 138.105 717.734C131.161 792.625 123.984 870.077 152.024 948.165C188.996 1051.11 284.556 1127.97 392.648 1143.21C398.565 1180.24 406.917 1218.54 417.527 1257.28C419.708 1265.22 426.95 1270.74 435.213 1270.74H621.356H691.284" fill="#151516"/>
<path d="M1248.52 522.882L1246.23 486.267C1175.51 490.707 1103.15 467.912 1047.72 423.705L1024.86 452.382C1082.18 498.088 1155.55 523.478 1228.84 523.478C1235.4 523.478 1241.98 523.285 1248.52 522.882" fill="#151516"/>
</svg>
